<?xml version="1.0" encoding="UTF-8" standalone="no"?>
<!-- Generator: Adobe Illustrator 19.1.0, SVG Export Plug-In . SVG Version: 6.00 Build 0)  -->

<svg
   xmlns:dc="http://purl.org/dc/elements/1.1/"
   xmlns:cc="http://creativecommons.org/ns#"
   xmlns:rdf="http://www.w3.org/1999/02/22-rdf-syntax-ns#"
   xmlns:svg="http://www.w3.org/2000/svg"
   xmlns="http://www.w3.org/2000/svg"
   xmlns:sodipodi="http://sodipodi.sourceforge.net/DTD/sodipodi-0.dtd"
   xmlns:inkscape="http://www.inkscape.org/namespaces/inkscape"
   version="1.1"
   id="Layer_1"
   x="0px"
   y="0px"
   viewBox="0 0 186.2 200"
   xml:space="preserve"
   inkscape:version="0.91 r13725"
   sodipodi:docname="angular.svg"
   width="186.2"
   height="200"><metadata
     id="metadata17"><rdf:RDF><cc:Work
         rdf:about=""><dc:format>image/svg+xml</dc:format><dc:type
           rdf:resource="http://purl.org/dc/dcmitype/StillImage" /><dc:title></dc:title></cc:Work></rdf:RDF></metadata><defs
     id="defs15" /><sodipodi:namedview
     pagecolor="#ffffff"
     bordercolor="#666666"
     borderopacity="1"
     objecttolerance="10"
     gridtolerance="10"
     guidetolerance="10"
     inkscape:pageopacity="0"
     inkscape:pageshadow="2"
     inkscape:window-width="1366"
     inkscape:window-height="705"
     id="namedview13"
     showgrid="false"
     fit-margin-top="0"
     fit-margin-left="0"
     fit-margin-right="0"
     fit-margin-bottom="0"
     inkscape:zoom="0.944"
     inkscape:cx="93.1"
     inkscape:cy="105"
     inkscape:window-x="-8"
     inkscape:window-y="-8"
     inkscape:window-maximized="1"
     inkscape:current-layer="Layer_1" /><style
     type="text/css"
     id="style3">
	.st0{fill:#DD0031;}
	.st1{fill:#C3002F;}
	.st2{fill:#FFFFFF;}
</style><g
     id="g5"
     transform="translate(-31.9,-30)"><polygon
       class="st0"
       points="31.9,63.2 46.1,186.3 125,230 125,230 125,230 203.9,186.3 218.1,63.2 125,30 125,30 125,30 "
       id="polygon7"
       style="fill:#dd0031" /><polygon
       class="st1"
       points="125,153.4 125,153.4 125,230 125,230 203.9,186.3 218.1,63.2 125,30 125,30 125,52.2 125,52.1 "
       id="polygon9"
       style="fill:#c3002f" /><path
       class="st2"
       d="m 125,52.1 -58.2,130.5 0,0 21.7,0 0,0 11.7,-29.2 49.4,0 11.7,29.2 0,0 21.7,0 0,0 -58,-130.5 0,0 0,0 0,0 0,0 z m 17,83.3 -34,0 17,-40.9 17,40.9 z"
       id="path11"
       inkscape:connector-curvature="0"
       style="fill:#ffffff" /></g></svg>