<?xml version="1.0" encoding="UTF-8" standalone="no"?>
<!-- Created with Inkscape (http://www.inkscape.org/) -->

<svg
   xmlns:dc="http://purl.org/dc/elements/1.1/"
   xmlns:cc="http://creativecommons.org/ns#"
   xmlns:rdf="http://www.w3.org/1999/02/22-rdf-syntax-ns#"
   xmlns:svg="http://www.w3.org/2000/svg"
   xmlns="http://www.w3.org/2000/svg"
   xmlns:sodipodi="http://sodipodi.sourceforge.net/DTD/sodipodi-0.dtd"
   xmlns:inkscape="http://www.inkscape.org/namespaces/inkscape"
   version="1.1"
   id="svg2"
   width="2142.231"
   height="420.87802"
   viewBox="0 0 2142.231 420.87802"
   sodipodi:docname="logo-white.svg"
   inkscape:version="0.92.2 (5c3e80d, 2017-08-06)">
  <metadata
     id="metadata8">
    <rdf:RDF>
      <cc:Work
         rdf:about="">
        <dc:format>image/svg+xml</dc:format>
        <dc:type
           rdf:resource="http://purl.org/dc/dcmitype/StillImage" />
        <dc:title></dc:title>
      </cc:Work>
    </rdf:RDF>
  </metadata>
  <defs
     id="defs6" />
  <sodipodi:namedview
     pagecolor="#ffffff"
     bordercolor="#666666"
     borderopacity="1"
     objecttolerance="10"
     gridtolerance="10"
     guidetolerance="10"
     inkscape:pageopacity="0"
     inkscape:pageshadow="2"
     inkscape:window-width="1366"
     inkscape:window-height="705"
     id="namedview4"
     showgrid="false"
     inkscape:pagecheckerboard="true"
     showguides="true"
     inkscape:guide-bbox="true"
     inkscape:zoom="0.30519502"
     inkscape:cx="1210.9714"
     inkscape:cy="-156.26773"
     inkscape:window-x="-8"
     inkscape:window-y="-8"
     inkscape:window-maximized="1"
     inkscape:current-layer="svg2"
     fit-margin-top="0"
     fit-margin-left="0"
     fit-margin-right="0"
     fit-margin-bottom="0" />
  <path
     style="fill:#ffffff;fill-opacity:1"
     d="m 1067.338,419.92395 c -25.2756,-2.84385 -50.6907,-10.84397 -68.15755,-21.45459 -4.6041,-2.79681 -7.6873,-4.34398 -7.6873,-4.34398 0,0 6.4038,-14.76249 12.10685,-27.84287 9.503,-21.79581 12.2853,-26.55658 12.2853,-26.55658 0,0 4.5784,3.00954 6.0976,4.08351 5.2114,3.68423 21.4926,11.32942 30.1565,14.16066 52.2473,17.07361 94.9814,-4.60746 95.0767,-48.23697 l 0.015,-6.76687 -6.25,4.86608 c -13.5035,10.51348 -26.4327,15.43996 -45.5329,17.34966 -32.5254,3.25198 -60.3675,-6.25264 -82.3315,-28.106 -21.29955,-21.19223 -31.87765,-49.25744 -31.87765,-84.576 0,-15.78311 1.7432,-28.43804 5.6023,-40.67162 8.5999,-27.26206 27.50235,-50.25173 51.15265,-62.21333 32.7886,-16.58349 77.9686,-12.96705 103.7371,8.30365 l 6,4.95273 L 1148.3062,105 h 61.9249 l -0.01,107.75 c -0.01,115.35254 -0.096,117.73587 -5.0897,134.62116 -11.1391,37.66805 -41.4342,63.50722 -83.4044,71.13707 -10.7811,1.95993 -42.2715,2.77955 -54.3929,1.41572 z m 41.1627,-154.39323 c 21.7205,-4.60267 37.5304,-22.55916 40.8938,-46.44603 2.7085,-19.23661 -7.4194,-41.98165 -23.2038,-52.11048 -21.1782,-13.59002 -46.3926,-10.86672 -63.981,6.91031 -20.779,21.00185 -21.1827,54.85826 -0.9126,76.52714 9.1438,9.77467 23.3731,16.30358 35.9338,16.48766 2.475,0.0363 7.5464,-0.5796 11.2698,-1.3686 z m 890.7302,154.33237 c -25.242,-2.58704 -52.7214,-11.23205 -69.25,-21.78603 -3.9642,-2.53126 -6.1981,-4.19827 -6.1981,-4.19827 L 1947.9199,342 c 0,0 6.229,2.26036 11.0472,5.02303 16.933,9.7092 36.566,15.67587 54.7638,16.64326 14.5233,0.77206 25.0824,-1.18215 36.3028,-6.71869 17.8251,-8.79544 27.286,-23.99999 28.8877,-46.42547 l 0.6412,-8.97786 -5.8771,5.23825 c -7.433,6.62485 -21.306,13.51994 -32.9546,16.3789 -12.9585,3.18043 -37.1885,3.20975 -49.7744,0.0602 -28.7484,-7.1941 -51.8389,-25.74443 -65.7083,-52.78848 -16.7032,-32.57003 -17.1402,-79.4716 -1.054,-113.14655 11.3651,-23.79184 29.7382,-41.45936 53.0366,-50.9999 32.1196,-13.15277 74.1395,-7.66633 97.25,12.69774 l 4.75,4.1855 v -18.16997 h 63 l -8e-4,103.25 c -5e-4,61.95184 -0.4057,107.5189 -1.013,113.92273 -6.0061,63.33704 -50.1424,99.42743 -120.6968,98.69439 -7.0342,-0.0731 -16.6144,-0.5249 -21.2893,-1.00403 z m 42.5717,-154.88143 c 18.807,-4.81002 32.8141,-19.38183 37.9133,-39.44176 4.6781,-18.40365 -0.9804,-38.34277 -14.7356,-51.92515 -8.1353,-8.03314 -15.2599,-11.97923 -25.5757,-14.16559 -8.9523,-1.89736 -12.4494,-1.80834 -21.6776,0.55183 -18.0143,4.60729 -30.8974,16.94166 -37.0781,35.49901 -9.3128,27.9611 5.8867,59.62321 32.8158,68.35887 11.3089,3.66854 17.4351,3.91127 28.3379,1.12279 z M 619.90948,331.9443 c -16.14053,-1.87603 -32.00383,-9.01578 -43.88956,-19.75382 l -3.78907,-3.4232 V 327 h -62 V 0 h 63 v 121.99188 l 6.25,-5.05629 c 12.82683,-10.37699 28.84489,-16.22059 47.86242,-17.46082 41.30664,-2.69383 77.7342,16.05142 98.29369,50.58093 11.38517,19.12131 16.59389,39.82083 16.59389,65.9443 0,7.0704 -0.48055,16.31031 -1.06789,20.53312 -5.3654,38.57582 -26.73376,69.83201 -58.43211,85.47055 -19.02433,9.38574 -39.59307,12.64047 -62.82137,9.94063 z m 14.52215,-60.03528 c 14.95662,-3.0792 28.80967,-14.0371 35.87837,-28.38016 9.04776,-18.35874 9.04481,-36.76492 -0.009,-55.02886 -16.07744,-32.43357 -57.38543,-39.36297 -82.71849,-13.87604 -10.51563,10.57952 -16.35166,25.34692 -16.35166,41.37604 0,36.10493 30.0922,62.72526 63.20078,55.90902 z m 212.79922,60.45882 C 805.31755,328.40728 774.45803,306.73923 762.65551,272.98308 756.87928,256.4626 756.9488,257.53502 756.51443,178.25 L 756.11313,105 h 64.11772 v 64.36351 c 0,38.59501 0.3999,66.52004 0.9988,69.75 1.439,7.76084 7.2582,18.98254 12.1226,23.37721 15.3545,13.87187 41.4065,13.86846 56.7654,-0.007 2.0982,-1.89564 5.2208,-6.08425 6.9391,-9.30803 6.0895,-11.42501 6.143,-12.15077 6.1593,-83.42527 L 903.23085,105 h 64 l -0.01,64.25 c -0.01,66.6929 -0.6444,81.76251 -4.0169,95.25 -2.5827,10.32842 -10.4961,26.31879 -16.9239,34.19732 -12.9697,15.89702 -34.3823,27.6874 -57.8523,31.85507 -8.7309,1.55039 -32.7857,2.61039 -41.1983,1.81545 z m 459.00005,0.0106 c -10.4214,-0.75497 -27.5243,-3.4818 -37.4862,-5.97667 -19.6951,-4.93243 -44.3287,-21.12967 -44.3287,-21.12967 l 26.4341,-49.52476 c 0,0 6.9694,5.32306 14.3895,9.07577 7.4202,3.75271 17.1112,7.79982 21.5355,8.99356 28.9994,7.82447 58.6986,6.4601 69.3008,-3.18364 2.8687,-2.60935 5.155,-6.84428 5.155,-9.54857 0,-2.96715 -5.3711,-8.56853 -10.5507,-11.00327 -6.1072,-2.87072 -14.0212,-4.6096 -34.603,-7.60305 -29.81,-4.33562 -44.0359,-8.70388 -57.3534,-17.61118 -11.3853,-7.61502 -18.2184,-16.2131 -22.6076,-28.44687 -3.0492,-8.49916 -3.8227,-31.1094 -1.4319,-41.85573 5.8807,-26.43257 26.5831,-44.84985 58.5465,-52.08424 9.9331,-2.2482 47.7956,-3.17289 62.2276,-1.51975 19.552,2.23962 40.585,8.03322 58.0224,15.98242 4.597,2.83136 7.3238,4.79323 7.3238,4.79323 l -22.2318,49.67123 c 0,0 -5.7673,-2.12878 -11.1164,-4.42357 -20.2236,-8.67606 -47.7175,-14.73015 -62.2256,-13.70194 -12.6581,0.8971 -22.1632,5.26564 -25.5011,11.72029 -2.3193,4.4852 -1.8176,6.91453 2.2727,11.0049 4.9988,4.99877 11.9298,7.06229 36.8662,10.97601 10.9242,1.71453 22.7872,3.7802 26.3622,4.59037 29.6207,6.71271 49.4323,20.92969 56.8709,40.81115 4.8288,12.90628 4.8674,35.18293 0.085,49.29885 -4.0479,11.94847 -14.0431,25.11612 -24.5964,32.40297 -10.9353,7.55062 -27.4313,13.76025 -43.6882,16.44564 -9.1549,1.51226 -37.2591,2.60086 -47.6716,1.84653 z m 450.9056,-0.34083 c -36.7432,-4.69287 -68.5323,-29.166 -82.9874,-63.88866 -13.0178,-31.27023 -13.0178,-73.02769 0,-104.29792 5.3444,-12.83773 12.6432,-23.52693 23.5229,-34.44955 14.9922,-15.05131 30.1106,-23.38041 51.0245,-28.11076 11.091,-2.50857 37.6993,-2.2007 48.0344,0.55578 10.9802,2.92854 24.8471,9.98975 31.75,16.16752 l 5.75,5.14594 v -18.15997 h 62 v 222 h -62 v -18.15997 l -5.75,5.14594 c -7.007,6.2709 -20.9601,13.32789 -31.75,16.05807 -9.1318,2.31063 -29.2005,3.32109 -39.5944,1.99358 z m 37.4633,-60.5455 c 15.1191,-3.93801 28.3469,-14.73459 34.9082,-28.49212 3.703,-7.76438 6.7229,-19.89275 6.7229,-27 0,-7.04319 -3.0076,-19.21029 -6.6141,-26.75738 -10.614,-22.21072 -36.0475,-34.64926 -58.7548,-28.73474 -15.1191,3.93801 -28.3469,14.73459 -34.9082,28.49212 -3.703,7.76438 -6.7229,19.89275 -6.7229,27 0,7.10725 3.0199,19.23562 6.7229,27 4.445,9.32016 14.9592,20.19171 23.4829,24.28098 11.8073,5.66462 23.9841,7.12291 35.1631,4.21114 z M 83.23085,320.63099 c 0,-23.938 -11.04817,-54.6617 -27.5188,-76.52664 C 43.16814,227.45217 24.70268,211.81975 7.05144,202.90944 2.00541,200.36221 0,199.94388 0,199.94388 l 36.49925,-79.74224 c 0,0 19.99783,8.1659 34.237,17.62169 33.95487,22.54838 58.54221,50.33847 76.79547,86.79884 14.27862,28.52114 22.69913,62.82382 22.69913,92.46957 V 328 h -87 z M 184.81206,318.25 C 183.11754,293.08885 179.85063,274.60361 173.62207,254.93367 161.619,217.02767 140.2216,182.61004 111.30443,154.69602 101.57412,145.30325 98.47604,143.19047 98.47604,143.19047 L 155.9555,77 c 0,0 5.12829,1.82513 19.58604,16.25 18.11905,18.07784 29.75076,32.0942 42.11573,50.75 34.08954,51.43302 51.09053,104.93354 54.10083,170.25 l 0.63371,13.75 h -86.92312 z m 101.01239,-4.47935 c -1.36226,-65.7675 -22.61177,-124.57142 -58.27754,-177.2136 -5.51845,-8.14516 -9.14232,-11.93801 -9.14232,-11.93801 L 288.86847,72 c 0,0 28.7854,39.08881 41.90921,66.5 26.24665,54.82038 39.36014,108.75244 42.00395,172.75 l 0.69196,16.75 h -87.3544 z M 1440.2309,105 h 62 v 18.16781 l 6.25,-5.67218 c 7.5962,-6.89395 20.982,-13.59968 32.25,-16.15596 12.6326,-2.86585 35.9694,-2.40413 48.7238,0.96401 26.6938,7.04921 46.1299,24.50569 55.1516,49.53422 5.4703,15.17597 5.6246,17.91348 5.6246,99.79309 V 327 h -64 v -65.2899 c 0,-70.89818 -0.016,-71.13009 -5.6472,-82.3653 -11.704,-23.35096 -45.6766,-26.74225 -64.6539,-6.45402 -4.9904,5.33513 -7.5608,9.85109 -10.3077,18.10922 -1.683,5.05954 -1.8558,10.72546 -2.1575,70.75 l -0.3279,65.25 h -62.9058 z"
     id="path877"
     inkscape:connector-curvature="0"
     sodipodi:nodetypes="ccccccccccssscssccccccccccssccccccccsscccscccsccccsccccccccccscssccccccssssssssscssscssccsccccscccccscccccccscssssccssccccsccscccscccsccccsccccccccssccscccscccsssccsssccssssccsssccsssccssccsccccsscsccscscsccc" />
  <path
     style="fill:#000000"
     d=""
     id="path817"
     inkscape:connector-curvature="0" />
</svg>
