<?xml version="1.0" encoding="UTF-8" standalone="no"?>
<!-- Created with Inkscape (http://www.inkscape.org/) -->

<svg
   xmlns:dc="http://purl.org/dc/elements/1.1/"
   xmlns:cc="http://creativecommons.org/ns#"
   xmlns:rdf="http://www.w3.org/1999/02/22-rdf-syntax-ns#"
   xmlns:svg="http://www.w3.org/2000/svg"
   xmlns="http://www.w3.org/2000/svg"
   xmlns:sodipodi="http://sodipodi.sourceforge.net/DTD/sodipodi-0.dtd"
   xmlns:inkscape="http://www.inkscape.org/namespaces/inkscape"
   width="128.34386"
   height="28.399767"
   viewBox="0 0 128.34386 28.399767"
   id="svg2"
   version="1.1"
   inkscape:version="0.91 r13725"
   sodipodi:docname="express-logo.svg"
   inkscape:export-filename="C:\Users\mukho\Pictures\express-logo-made.png"
   inkscape:export-xdpi="90"
   inkscape:export-ydpi="90">
  <defs
     id="defs4" />
  <sodipodi:namedview
     id="base"
     pagecolor="#ffffff"
     bordercolor="#666666"
     borderopacity="1.0"
     inkscape:pageopacity="0.0"
     inkscape:pageshadow="2"
     inkscape:zoom="2"
     inkscape:cx="-53.188909"
     inkscape:cy="-15.532114"
     inkscape:document-units="px"
     inkscape:current-layer="layer1"
     showgrid="false"
     inkscape:window-width="1366"
     inkscape:window-height="705"
     inkscape:window-x="-8"
     inkscape:window-y="-8"
     inkscape:window-maximized="1"
     fit-margin-top="0"
     fit-margin-left="0"
     fit-margin-right="0"
     fit-margin-bottom="0"
     units="px" />
  <metadata
     id="metadata7">
    <rdf:RDF>
      <cc:Work
         rdf:about="">
        <dc:format>image/svg+xml</dc:format>
        <dc:type
           rdf:resource="http://purl.org/dc/dcmitype/StillImage" />
        <dc:title></dc:title>
      </cc:Work>
    </rdf:RDF>
  </metadata>
  <g
     inkscape:label="Layer 1"
     inkscape:groupmode="layer"
     id="layer1"
     transform="translate(-132.23739,-528.62239)">
    <flowRoot
       xml:space="preserve"
       id="flowRoot4136"
       style="font-style:normal;font-weight:normal;font-size:40px;line-height:125%;font-family:sans-serif;letter-spacing:0px;word-spacing:0px;fill:#000000;fill-opacity:1;stroke:none;stroke-width:1px;stroke-linecap:butt;stroke-linejoin:miter;stroke-opacity:1"><flowRegion
         id="flowRegion4138"><rect
           id="rect4140"
           width="568.57141"
           height="457.14285"
           x="60"
           y="200.93364" /></flowRegion><flowPara
         id="flowPara4142" /></flowRoot>    <g
       style="font-style:normal;font-weight:normal;font-size:40px;line-height:125%;font-family:sans-serif;letter-spacing:0px;word-spacing:0px;fill:#000000;fill-opacity:1;stroke:none;stroke-width:1px;stroke-linecap:butt;stroke-linejoin:miter;stroke-opacity:1"
       id="text4144">
      <path
         d="m 150.34686,539.58075 q 0.25391,-4.60938 -1.95312,-7.71484 -2.2461,-3.16407 -7.08985,-3.24219 -4.58984,0.0781 -6.875,3.39844 -2.28515,3.28125 -2.1875,7.71484 -0.0391,4.35547 2.26563,7.32422 2.28516,2.98828 6.79687,3.08594 7.51954,-0.0977 8.88672,-7.44141 l -1.52343,0 q -1.3086,6.03516 -7.36329,6.11328 -3.78906,-0.0391 -5.66406,-2.83203 -1.93359,-2.69531 -1.89453,-6.40625 l 16.60156,0 z m -16.60156,-1.32813 q 0.29297,-3.18359 2.20703,-5.70312 1.91406,-2.51953 5.35156,-2.61719 3.57422,0.0977 5.52735,2.51953 1.91406,2.44141 1.99219,5.80078 l -15.07813,0 z"
         style="font-style:normal;font-variant:normal;font-weight:normal;font-stretch:normal;font-family:'Helvetica 35 Thin';-inkscape-font-specification:'Helvetica 35 Thin, ';fill:#3b4854;fill-opacity:1"
         id="path4171"
         inkscape:connector-curvature="0" />
      <path
         d="m 151.46014,549.65887 1.91407,0 7.20703,-9.64843 0,0 7.03125,9.64843 2.08984,0 -8.125,-10.80078 7.44141,-9.76562 -1.97266,0 -6.46484,8.61328 0,0 -6.44531,-8.61328 -2.12891,0 7.51953,9.76562 -8.06641,10.80078 z"
         style="font-style:normal;font-variant:normal;font-weight:normal;font-stretch:normal;font-family:'Helvetica 35 Thin';-inkscape-font-specification:'Helvetica 35 Thin, ';fill:#3b4854;fill-opacity:1"
         id="path4173"
         inkscape:connector-curvature="0" />
      <path
         d="m 181.10858,548.81903 q -4.23828,-0.0781 -5.91797,-2.91016 -1.64062,-2.73437 -1.60156,-6.48437 -0.0391,-3.80859 1.71875,-6.60156 1.75781,-2.79297 5.80078,-2.89063 4.1211,0.0977 5.95703,2.96875 1.75782,2.83203 1.75782,6.52344 0,3.86719 -1.79688,6.60156 -1.91406,2.75391 -5.91797,2.79297 l 0,0 z m -7.55859,-19.72656 -1.52344,0 0,27.92969 1.52344,0 0,-11.64063 0.0781,0 q 0.95703,2.44141 2.96875,3.59375 1.95313,1.17188 4.51172,1.17188 4.72656,-0.0391 6.99219,-3.04688 2.24609,-2.92969 2.24609,-7.67578 0,-4.53125 -2.24609,-7.59766 -2.26563,-3.125 -6.99219,-3.20312 -3.35937,0.0781 -5.15625,1.79687 -1.83594,1.67969 -2.32422,3.39844 l -0.0781,0 0,-4.72656 z"
         style="font-style:normal;font-variant:normal;font-weight:normal;font-stretch:normal;font-family:'Helvetica 35 Thin';-inkscape-font-specification:'Helvetica 35 Thin, ';fill:#3b4854;fill-opacity:1"
         id="path4175"
         inkscape:connector-curvature="0" />
      <path
         d="m 195.44452,529.09247 -1.50391,0 0,20.5664 1.50391,0 0,-11.23046 q 0.13672,-2.28516 0.68359,-3.57422 0.52735,-1.26953 1.64063,-2.36328 1.44531,-1.34766 2.96875,-1.79688 1.48437,-0.39062 2.71484,-0.19531 l 0,-1.52344 q -2.83203,-0.0781 -5,1.25 -2.20703,1.34766 -2.87109,3.4375 l -0.13672,0 0,-4.57031 z"
         style="font-style:normal;font-variant:normal;font-weight:normal;font-stretch:normal;font-family:'Helvetica 35 Thin';-inkscape-font-specification:'Helvetica 35 Thin, ';fill:#3b4854;fill-opacity:1"
         id="path4177"
         inkscape:connector-curvature="0" />
      <path
         d="m 222.22186,539.58075 q 0.25391,-4.60938 -1.95312,-7.71484 -2.2461,-3.16407 -7.08985,-3.24219 -4.58984,0.0781 -6.875,3.39844 -2.28515,3.28125 -2.1875,7.71484 -0.0391,4.35547 2.26563,7.32422 2.28516,2.98828 6.79687,3.08594 7.51954,-0.0977 8.88672,-7.44141 l -1.52343,0 q -1.3086,6.03516 -7.36329,6.11328 -3.78906,-0.0391 -5.66406,-2.83203 -1.93359,-2.69531 -1.89453,-6.40625 l 16.60156,0 z m -16.60156,-1.32813 q 0.29297,-3.18359 2.20703,-5.70312 1.91406,-2.51953 5.35156,-2.61719 3.57422,0.0977 5.52735,2.51953 1.91406,2.44141 1.99219,5.80078 l -15.07813,0 z"
         style="font-style:normal;font-variant:normal;font-weight:normal;font-stretch:normal;font-family:'Helvetica 35 Thin';-inkscape-font-specification:'Helvetica 35 Thin, ';fill:#3b4854;fill-opacity:1"
         id="path4179"
         inkscape:connector-curvature="0" />
      <path
         d="m 225.01483,542.82294 q 0.19531,3.59375 2.48047,5.42968 2.26563,1.89454 5.83984,1.89454 1.38672,0 2.83204,-0.29297 1.40625,-0.27344 2.55859,-0.91797 1.25,-0.6836 1.95312,-1.79688 0.6836,-1.07422 0.6836,-2.67578 0,-1.60156 -0.54688,-2.67578 -0.5664,-1.05469 -1.52343,-1.67969 -2.05079,-1.25 -5.19532,-1.67968 -0.60547,-0.17579 -1.21093,-0.33204 -0.60547,-0.11718 -1.23047,-0.23437 -0.60547,-0.19531 -1.13282,-0.37109 -0.58593,-0.15625 -1.07421,-0.39063 -0.9961,-0.48828 -1.5625,-1.25 -0.64454,-0.74219 -0.64454,-1.95312 0,-1.15235 0.56641,-1.91407 0.52734,-0.72265 1.36719,-1.21093 1.79687,-0.83985 3.98437,-0.83985 2.65625,0 4.375,1.21094 1.67969,1.23047 1.71875,4.04297 l 1.52344,0 q -0.0391,-3.53516 -2.12891,-5.07813 -2.10937,-1.48437 -5.48828,-1.48437 -2.71484,-0.0391 -4.98047,1.07422 -1.09375,0.60547 -1.73828,1.60156 -0.70312,1.03516 -0.70312,2.59766 0,1.5625 0.625,2.55859 0.5664,0.99609 1.60156,1.64062 1.05469,0.60547 2.28516,0.95704 1.23047,0.41015 2.55859,0.68359 1.32813,0.23437 2.59766,0.52734 1.28906,0.27344 2.24609,0.76172 1.03516,0.42969 1.64063,1.26953 0.54687,0.83985 0.54687,2.16797 0,1.26953 -0.625,2.10938 -0.60547,0.8789 -1.60156,1.36718 -0.95703,0.48829 -2.08985,0.64454 -1.15234,0.23437 -2.1875,0.23437 -2.8125,0 -4.6875,-1.60156 -1.875,-1.5625 -2.10937,-4.39453 l -1.52344,0 z"
         style="font-style:normal;font-variant:normal;font-weight:normal;font-stretch:normal;font-family:'Helvetica 35 Thin';-inkscape-font-specification:'Helvetica 35 Thin, ';fill:#3b4854;fill-opacity:1"
         id="path4181"
         inkscape:connector-curvature="0" />
      <path
         d="m 244.23358,542.82294 q 0.19531,3.59375 2.48047,5.42968 2.26563,1.89454 5.83984,1.89454 1.38672,0 2.83204,-0.29297 1.40625,-0.27344 2.55859,-0.91797 1.25,-0.6836 1.95312,-1.79688 0.6836,-1.07422 0.6836,-2.67578 0,-1.60156 -0.54688,-2.67578 -0.5664,-1.05469 -1.52343,-1.67969 -2.05079,-1.25 -5.19532,-1.67968 -0.60547,-0.17579 -1.21093,-0.33204 -0.60547,-0.11718 -1.23047,-0.23437 -0.60547,-0.19531 -1.13282,-0.37109 -0.58593,-0.15625 -1.07421,-0.39063 -0.9961,-0.48828 -1.5625,-1.25 -0.64454,-0.74219 -0.64454,-1.95312 0,-1.15235 0.56641,-1.91407 0.52734,-0.72265 1.36719,-1.21093 1.79687,-0.83985 3.98437,-0.83985 2.65625,0 4.375,1.21094 1.67969,1.23047 1.71875,4.04297 l 1.52344,0 q -0.0391,-3.53516 -2.12891,-5.07813 -2.10937,-1.48437 -5.48828,-1.48437 -2.71484,-0.0391 -4.98047,1.07422 -1.09375,0.60547 -1.73828,1.60156 -0.70312,1.03516 -0.70312,2.59766 0,1.5625 0.625,2.55859 0.5664,0.99609 1.60156,1.64062 1.05469,0.60547 2.28516,0.95704 1.23047,0.41015 2.55859,0.68359 1.32813,0.23437 2.59766,0.52734 1.28906,0.27344 2.24609,0.76172 1.03516,0.42969 1.64063,1.26953 0.54687,0.83985 0.54687,2.16797 0,1.26953 -0.625,2.10938 -0.60547,0.8789 -1.60156,1.36718 -0.95703,0.48829 -2.08985,0.64454 -1.15234,0.23437 -2.1875,0.23437 -2.8125,0 -4.6875,-1.60156 -1.875,-1.5625 -2.10937,-4.39453 l -1.52344,0 z"
         style="font-style:normal;font-variant:normal;font-weight:normal;font-stretch:normal;font-family:'Helvetica 35 Thin';-inkscape-font-specification:'Helvetica 35 Thin, ';fill:#3b4854;fill-opacity:1"
         id="path4183"
         inkscape:connector-curvature="0" />
    </g>
  </g>
</svg>
