<?xml version="1.0" encoding="UTF-8" standalone="no"?>
<svg
    xmlns:dc="http://purl.org/dc/elements/1.1/"
    xmlns:cc="http://creativecommons.org/ns#"
    xmlns:rdf="http://www.w3.org/1999/02/22-rdf-syntax-ns#"
    xmlns:sodipodi="http://sodipodi.sourceforge.net/DTD/sodipodi-0.dtd"
    xmlns:inkscape="http://www.inkscape.org/namespaces/inkscape"
    xmlns="http://www.w3.org/2000/svg"
    width="2348.85px"
    height="1000.65px"
    viewBox="0 0 2348.85 1000.65"
    version="1.1"
    id="svg8"
    sodipodi:docname="Frontier-invert.svg"
    inkscape:version="0.92.2 (5c3e80d, 2017-08-06)">
    <metadata
        id="metadata12">
        <rdf:RDF>
            <cc:Work
                rdf:about="">
                <dc:format>image/svg+xml</dc:format>
                <dc:type
                    rdf:resource="http://purl.org/dc/dcmitype/StillImage"/>
                <dc:title></dc:title>
            </cc:Work>
        </rdf:RDF>
    </metadata>
    <sodipodi:namedview
        pagecolor="#ffffff"
        bordercolor="#666666"
        borderopacity="1"
        objecttolerance="10"
        gridtolerance="10"
        guidetolerance="10"
        inkscape:pageopacity="0"
        inkscape:pageshadow="2"
        inkscape:window-width="1366"
        inkscape:window-height="705"
        id="namedview10"
        showgrid="false"
        inkscape:zoom="0.24182046"
        inkscape:cx="1136.5047"
        inkscape:cy="464.40503"
        inkscape:window-x="-8"
        inkscape:window-y="-8"
        inkscape:window-maximized="1"
        inkscape:current-layer="svg8"/>
    <defs
        id="defs2"/>
    <g
        id="g6">
        <path
            d="m 505.45,-0.2 -0.2,0.5 12.75,0.3 12.75,0.65 12.8,0.95 12.85,1.3 9.2,1.15 18.25,2.75 18,3.4 17.75,4 17.5,4.65 17.2,5.25 16.9,5.8 8.35,3.15 16.45,6.65 16.15,7.2 15.8,7.75 15.5,8.3 15.15,8.8 14.8,9.3 14.4,9.8 14.05,10.25 13.65,10.75 13.25,11.2 12.85,11.6 12.4,12.05 12,12.45 11.55,12.85 11.1,13.25 10.65,13.6 10.15,13.95 9.65,14.3 9.2,14.65 8.7,14.95 8.15,15.25 7.65,15.55 7.1,15.85 6.55,16.1 5.75,15.6 0.5,0.15 3.35,-2.6 4,-2.85 4.15,-2.65 4.3,-2.45 4.4,-2.25 4.55,-2.05 4.7,-1.85 4.8,-1.65 4.95,-1.45 5.1,-1.25 5.25,-1.05 5.35,-0.9 5.5,-0.7 5.65,-0.5 5.8,-0.3 5.95,-0.1 7.9,0.2 7.65,0.55 7.4,0.9 7.15,1.3 6.95,1.65 6.7,2 6.45,2.35 6.2,2.75 6,3.1 5.75,3.45 5.5,3.8 5.25,4.2 5,4.55 4.8,4.9 4.55,5.25 4.3,5.65 4.05,6 3.8,6.35 3.55,6.7 3.25,7.05 3,7.45 2.75,7.8 2.5,8.15 2.2,8.5 1.95,8.85 1.7,9.25 1.45,9.6 1.2,9.95 0.9,10.3 0.65,10.65 0.4,11.05 0.15,11.4 -0.15,11.45 -0.4,11.05 -0.65,10.7 -0.9,10.35 -1.15,10 -1.4,9.6 -1.65,9.25 -1.9,8.9 -2.15,8.55 -2.45,8.15 -2.7,7.8 -2.95,7.45 -3.2,7.1 -3.45,6.7 -3.7,6.35 -3.95,6 -4.2,5.65 -4.5,5.25 -4.75,4.9 -5,4.55 -5.25,4.15 -5.5,3.8 -5.75,3.45 -6,3.1 -6.25,2.7 -6.5,2.35 -6.75,2 -7,1.65 -7.3,1.25 -7.55,0.9 -7.8,0.55 -8.05,0.2 -11.35,-0.4 -5.5,-0.5 -5.35,-0.65 -5.25,-0.85 -5.1,-1.05 -4.95,-1.25 -4.85,-1.45 -4.7,-1.6 -4.6,-1.8 -4.45,-2 -4.35,-2.2 -4.2,-2.35 -4.1,-2.55 -3.95,-2.75 -3.2,-2.45 -0.5,0.15 -3.3,9.55 -3.75,10.15 -3.95,10.05 -4.15,9.9 -4.35,9.8 -4.55,9.7 -4.75,9.55 -4.95,9.45 -5.15,9.3 -5.3,9.2 -5.5,9.05 -5.7,8.9 -5.85,8.8 -6.05,8.65 -6.2,8.5 -6.4,8.35 -6.55,8.2 -6.7,8.05 -6.9,7.9 -7.05,7.75 -7.2,7.6 -7.35,7.45 -7.5,7.3 -7.65,7.15 -7.8,7 -7.95,6.8 -8.1,6.65 -8.2,6.5 -8.35,6.3 -8.5,6.15 -8.6,5.95 -8.75,5.8 -8.85,5.6 -8.95,5.4 -9.1,5.25 -9.2,5.05 -9.3,4.85 -9.4,4.65 -9.5,4.45 -9.6,4.25 -9.7,4.05 -9.8,3.85 -9.9,3.65 -10,3.45 -10.1,3.25 -10.15,3.05 -10.25,2.8 -10.35,2.6 -10.4,2.4 -10.5,2.15 -10.55,1.95 -10.6,1.7 -10.7,1.5 -10.75,1.25 -10.8,1.05 -10.85,0.8 -10.9,0.55 -10.95,0.35 -11,0.1 -11.05,-0.15 -11.1,-0.4 -11.15,-0.65 -11.15,-0.9 -11.2,-1.15 -12.8,-1.6 -12.7,-1.95 -12.55,-2.25 -12.45,-2.55 -12.3,-2.85 -12.2,-3.15 -12.05,-3.45 -11.9,-3.7 -11.8,-4 -11.65,-4.3 -11.5,-4.55 -11.35,-4.85 -11.2,-5.1 -11,-5.35 -10.85,-5.6 -10.7,-5.85 -10.55,-6.1 -10.35,-6.35 -10.2,-6.6 -10,-6.85 -9.8,-7.05 -9.65,-7.3 -9.45,-7.5 -9.25,-7.7 -9.05,-7.95 -8.85,-8.15 -8.65,-8.35 -8.45,-8.55 -8.25,-8.75 -8,-8.95 -7.8,-9.1 -7.6,-9.3 -7.35,-9.5 -7.15,-9.65 -6.9,-9.8 -6.65,-10 -6.45,-10.15 -6.2,-10.3 -5.95,-10.45 -5.7,-10.6 -5.45,-10.75 -5.2,-10.9 -4.95,-11 L 35.9,687.3 31.5,676 27.35,664.6 23.5,653.1 19.9,641.45 16.6,629.7 13.6,617.85 10.85,605.9 8.4,593.85 6.25,581.7 4.4,569.5 2.85,557.2 1.6,544.8 0.65,532.35 0,519.85 -0.3,507.25 V 494.6 L 0,481.9 0.65,469.15 1.6,456.35 2.9,443.5 4.5,430.7 6.45,418 8.7,405.45 11.25,393 l 2.85,-12.3 3.15,-12.2 3.45,-12.05 3.7,-11.9 4,-11.8 4.3,-11.65 4.55,-11.5 4.85,-11.35 5.1,-11.2 5.35,-11 5.6,-10.85 5.85,-10.7 6.1,-10.55 6.35,-10.35 6.6,-10.2 6.85,-10 7.05,-9.8 7.3,-9.65 7.5,-9.45 7.7,-9.25 7.95,-9.05 8.15,-8.85 8.35,-8.65 8.55,-8.45 8.75,-8.25 8.95,-8 9.1,-7.8 9.3,-7.6 9.5,-7.35 9.65,-7.15 9.8,-6.9 10,-6.65 10.15,-6.45 10.3,-6.2 10.45,-5.95 10.6,-5.7 10.75,-5.45 10.9,-5.2 11,-4.95 L 312.8,36 324.1,31.6 335.5,27.45 347,23.6 358.65,20 370.4,16.7 382.25,13.7 394.2,10.95 406.25,8.5 418.4,6.35 430.6,4.5 442.9,2.95 455.3,1.7 l 12.45,-0.95 12.5,-0.65 12.6,-0.3 h 12.6 m 148.35,142.4 -0.4,0.15 -10.75,0.1 -10.85,0.4 -10.85,0.65 -10.9,0.95 -10.9,1.2 -10.95,1.45 -10.95,1.75 -10.95,2 -10.95,2.25 -10.9,2.5 -10.9,2.75 -10.85,3 -10.8,3.25 -10.75,3.5 -10.7,3.75 -10.65,3.95 -10.55,4.2 -10.5,4.4 -10.4,4.65 -10.3,4.85 -10.2,5.05 -10.1,5.3 -9.95,5.5 -9.85,5.7 -9.7,5.9 -9.55,6.1 -9.4,6.3 -9.25,6.45 -9.1,6.65 -8.9,6.85 -8.7,7 -8.55,7.2 -8.35,7.35 -8.15,7.55 -7.9,7.7 -7.7,7.85 -7.45,8 -7.25,8.2 -10.35,14.4 -10,15.15 -9.65,15.85 -9.2,16.45 -8.75,17 -8.25,17.55 -7.75,18 -3.65,9.15 -6.85,18.6 -6.2,18.95 -5.55,19.25 -4.85,19.5 -4.1,19.7 -1.75,9.9 -1.55,9.95 -1.35,9.95 -1.15,10 -0.9,10 -0.7,10 -0.45,10 -0.25,10 v 9.95 l 0.25,9.95 0.5,9.9 0.75,9.9 1,9.85 1.25,9.8 1.5,9.75 1.8,9.7 2.05,9.65 2.35,9.55 2.6,9.5 2.9,9.4 3.2,9.3 3.5,9.25 3.8,9.15 4.1,9 4.4,8.9 4.75,8.8 5.05,8.65 5.4,8.55 5.7,8.4 6.05,8.25 6.4,8.1 6.75,7.95 7.1,7.8 7.45,7.6 7.8,7.45 8.2,7.25 8.55,7.05 8.9,6.9 9.3,6.65 8.95,4.6 9.1,4.4 9.2,4.2 9.35,4 9.45,3.8 9.55,3.6 9.65,3.35 9.8,3.15 9.9,2.95 10,2.7 10.1,2.5 10.2,2.25 10.3,2.05 10.4,1.8 10.45,1.55 10.55,1.35 10.2,1.05 10.2,0.8 10.15,0.6 10.1,0.35 10.05,0.1 10.05,-0.1 10,-0.35 9.95,-0.55 9.9,-0.75 9.85,-1 9.8,-1.2 9.75,-1.4 9.65,-1.65 9.6,-1.85 9.55,-2.05 9.45,-2.25 9.4,-2.45 9.3,-2.65 9.25,-2.85 9.15,-3.05 9.1,-3.25 9,-3.45 8.9,-3.6 8.8,-3.8 8.7,-4 8.65,-4.15 8.55,-4.35 8.45,-4.55 8.3,-4.7 8.2,-4.9 8.1,-5.05 8,-5.2 7.9,-5.4 7.75,-5.55 7.65,-5.7 7.5,-5.85 7.4,-6.05 7.25,-6.2 7.15,-6.35 7,-6.5 6.85,-6.65 6.7,-6.8 6.55,-6.95 6.4,-7.1 6.3,-7.2 6.15,-7.35 5.95,-7.5 5.8,-7.65 5.65,-7.75 5.5,-7.9 5.35,-8 5.15,-8.15 5,-8.25 4.8,-8.4 4.65,-8.5 4.45,-8.65 4.3,-8.75 4.1,-8.85 3.9,-8.95 3.7,-9.05 3.55,-9.2 3.35,-9.3 3.15,-9.4 2.85,-9.25 -0.05,-0.35 -2.7,-5.65 -2.65,-6.05 -2.45,-6.3 -2.3,-6.55 -2.1,-6.8 -1.9,-7.05 -1.75,-7.25 -1.55,-7.5 -1.35,-7.75 -1.2,-8 -1,-8.25 -0.8,-8.45 -1.1,-17.65 -0.35,-18.65 0.1,-10.05 0.3,-9.75 0.5,-9.5 0.7,-9.2 0.9,-8.95 1.1,-8.65 1.3,-8.35 1.5,-8.1 1.7,-7.8 1.85,-7.55 2.05,-7.25 2.25,-6.95 2.45,-6.7 2.65,-6.4 2.85,-6.15 2.9,-5.55 0.05,-0.35 -4.7,-15.45 -5.35,-15.55 -5.9,-15.3 -6.45,-15.05 -7,-14.75 -7.5,-14.5 -8,-14.2 -8.55,-13.9 -6.75,-8.45 -7,-8.15 -7.25,-7.75 -7.5,-7.4 -7.75,-7 -7.95,-6.65 -8.15,-6.3 -8.35,-5.95 -8.55,-5.6 -8.75,-5.25 -8.95,-4.9 -9.1,-4.55 -9.3,-4.25 -9.45,-3.9 -9.6,-3.55 -9.75,-3.25 -9.85,-2.95 -10,-2.6 -10.1,-2.3 -10.2,-2 -10.35,-1.65 -10.4,-1.35 -10.5,-1.05 -10.6,-0.75 -10.65,-0.5 -10.75,-0.2 m -133.25,-97.45 0.05,0.2 h -11.25 l -11.2,0.3 -11.15,0.55 -11.1,0.85 -11.05,1.1 -10.95,1.4 -10.9,1.65 -10.8,1.9 -10.75,2.2 -10.65,2.45 -10.55,2.7 -10.45,2.95 -10.35,3.2 -10.25,3.45 -10.15,3.7 -10.05,3.95 -9.95,4.15 -9.85,4.4 -9.7,4.65 -9.6,4.85 -9.45,5.1 -9.35,5.3 -9.2,5.5 -9.05,5.75 -8.9,5.95 -8.75,6.15 -8.6,6.35 -8.45,6.55 -8.3,6.75 -8.15,6.95 -7.95,7.15 -7.8,7.35 -7.6,7.55 -7.45,7.7 -7.25,7.9 -7.1,8.05 -6.9,8.25 -6.7,8.4 -6.5,8.6 -6.3,8.75 -6.1,8.9 -5.9,9.05 -5.65,9.25 -5.45,9.4 -5.25,9.55 -5,9.7 -4.75,9.85 -4.55,9.95 -4.3,10.1 -4.05,10.25 -3.8,10.35 -3.55,10.5 -3.3,10.65 -3.05,10.75 -2.8,10.85 -2.55,11 -2.25,11.1 -2,11.2 -1.75,11.3 -1.45,11.4 -1.55,16.25 -0.95,16.2 -0.4,16.1 0.2,16 0.75,15.9 1.35,15.75 1.9,15.6 2.4,15.45 2.95,15.3 3.5,15.15 4,14.95 4.5,14.75 5,14.55 5.5,14.35 5.95,14.1 5.95,12.85 -0.25,-12 v -13.2 l 0.35,-13.25 0.65,-13.3 1,-13.35 1.3,-13.35 1.65,-13.35 1.95,-13.4 2.3,-13.4 2.6,-13.35 2.95,-13.35 3.25,-13.3 3.55,-13.3 3.9,-13.25 4.2,-13.2 4.5,-13.1 4.85,-13.05 5.15,-12.95 5.45,-12.9 5.75,-12.8 6.05,-12.65 6.35,-12.55 6.65,-12.45 7,-12.3 7.25,-12.15 7.55,-12 7.85,-11.85 8.15,-11.7 8.45,-11.5 8.75,-11.3 9.05,-11.15 9.35,-10.95 9.65,-10.7 9.9,-10.5 10.2,-10.25 10.5,-10.05 10.8,-9.8 11.05,-9.55 11.35,-9.25 11.65,-9 11.9,-8.7 12.2,-8.45 12.45,-8.15 12.75,-7.85 13,-7.5 13.3,-7.2 13.55,-6.85 13.85,-6.5 14.1,-6.15 14.35,-5.8 14.65,-5.45 14.9,-5.05 15.15,-4.7 15.4,-4.3 15.7,-3.9 15.95,-3.5 16.2,-3.05 16.45,-2.65 16.7,-2.2 16.95,-1.75 17.2,-1.3 17.45,-0.85 17.7,-0.35 16.75,0.1 -7,-3.3 -16.5,-7 -16.85,-6.35 -8.55,-2.9 -17.35,-5.35 -8.8,-2.4 -17.85,-4.3 -18.15,-3.6 -9.2,-1.55 -18.55,-2.5 -11.45,-1.15 -11.4,-0.85 -11.4,-0.55 -11.35,-0.3 M 2097.4,316.4 v -0.05 h 111.9 l 15.55,0.2 13.6,0.55 11.7,0.95 9.7,1.35 4.45,0.95 4.4,1.25 4.4,1.55 4.45,1.9 4.45,2.2 4.45,2.55 4.45,2.85 4.5,3.2 4.4,3.5 4.1,3.8 3.9,4.1 3.65,4.4 3.4,4.7 3.15,5 2.9,5.3 2.65,5.65 2.4,5.85 2.05,6.05 1.75,6.2 1.45,6.4 1.1,6.6 0.8,6.75 0.45,6.9 0.15,7.1 -0.2,8.3 -0.6,8 -1,7.65 -1.4,7.35 -1.8,7.05 -2.2,6.75 -2.55,6.4 -3,6.1 -3.3,5.7 -3.75,5.5 -4.25,5.25 -4.5,4.75 -4.95,4.55 -5.45,4.3 -5.75,3.9 -5.6,3.25 -0.2,0.55 65.25,155.2 0.1,0.7 -0.25,0.65 -0.55,0.5 -0.7,0.15 h -83.3 l -0.45,-0.05 -0.7,-0.5 -47.9,-141.5 -0.45,-0.3 h -38.45 l -0.4,0.4 V 675.3 l -0.1,0.55 -0.3,0.45 -0.45,0.3 -0.55,0.1 h -76.6 l -0.55,-0.1 -0.45,-0.3 -0.3,-0.45 -0.1,-0.55 V 317.8 l 0.1,-0.55 0.3,-0.45 0.45,-0.3 0.55,-0.1 m -249.5,0 v 0.25 h 216.4 l 0.55,0.1 0.45,0.3 0.3,0.45 0.1,0.55 v 59.2 l -0.1,0.55 -0.3,0.45 -0.45,0.3 -0.55,0.1 h -137.9 l -0.4,0.4 v 82.4 l 0.4,0.4 h 106.8 l 0.55,0.1 0.45,0.3 0.3,0.45 0.1,0.55 v 59.2 l -0.1,0.55 -0.3,0.45 -0.45,0.3 -0.55,0.1 h -106.8 l -0.4,0.4 v 87.4 l 0.4,0.4 h 137.9 l 0.55,0.1 0.45,0.3 0.3,0.45 0.1,0.55 v 61.85 l -0.1,0.55 -0.3,0.45 -0.45,0.3 -0.55,0.1 h -216.4 l -0.55,-0.1 -0.45,-0.3 -0.3,-0.45 -0.1,-0.55 V 317.8 l 0.1,-0.55 0.3,-0.45 0.45,-0.3 0.55,-0.1 m -108.75,0 h 76.6 l 0.55,0.1 0.45,0.3 0.3,0.45 0.1,0.55 v 357.5 l -0.1,0.55 -0.3,0.45 -0.45,0.3 -0.55,0.1 h -76.6 l -0.55,-0.1 -0.45,-0.3 -0.3,-0.45 -0.1,-0.55 V 317.8 l 0.1,-0.55 0.3,-0.45 0.45,-0.3 0.55,-0.1 m -253.95,0 h -0.15 221.9 l 0.55,0.1 0.45,0.3 0.3,0.45 0.1,0.55 v 65 l -0.1,0.55 -0.3,0.45 -0.45,0.3 -0.55,0.1 h -71.7 l -0.4,0.4 v 290.6 l -0.1,0.55 -0.3,0.45 -0.45,0.3 -0.55,0.1 h -76.6 l -0.55,-0.1 -0.45,-0.3 -0.3,-0.45 -0.1,-0.55 V 384.6 l -0.4,-0.4 h -69.85 l -0.55,-0.1 -0.45,-0.3 -0.3,-0.45 -0.1,-0.55 v -65 l 0.1,-0.55 0.3,-0.45 0.45,-0.3 0.55,-0.1 m -272,0 v -0.05 h 85.75 l 0.45,0.05 0.7,0.45 92,222.15 0.05,-221.2 0.1,-0.55 0.3,-0.45 0.45,-0.3 0.55,-0.1 h 58.65 l 0.55,0.1 0.45,0.3 0.3,0.45 0.1,0.55 v 357.5 l -0.1,0.55 -0.3,0.45 -0.45,0.3 -0.55,0.1 h -68.6 l -0.45,-0.05 -0.7,-0.45 -109.15,-259.05 -0.05,258.15 -0.1,0.55 -0.3,0.45 -0.45,0.3 -0.55,0.1 h -58.65 l -0.55,-0.1 -0.45,-0.3 -0.3,-0.45 -0.1,-0.55 V 317.8 l 0.1,-0.55 0.3,-0.45 0.45,-0.3 0.55,-0.1 m -557.05,0 -0.1,-0.05 h 111.9 l 15.55,0.2 13.6,0.55 11.7,0.95 9.75,1.35 4.45,0.95 4.4,1.25 4.4,1.55 4.45,1.9 4.45,2.2 4.45,2.55 4.45,2.85 4.5,3.2 4.4,3.5 4.1,3.8 3.9,4.1 3.65,4.4 3.4,4.7 3.15,5 2.9,5.3 2.65,5.65 2.4,5.85 2.05,6.05 1.75,6.2 1.45,6.4 1.1,6.6 0.8,6.75 0.45,6.9 0.15,7.1 -0.2,8.3 -0.6,8 -1,7.65 -1.4,7.35 -1.8,7.05 -2.2,6.75 -2.5,6.3 -3,6.2 -3.3,5.7 -3.75,5.5 -4.25,5.25 -4.55,4.85 -4.9,4.45 -5.45,4.3 -5.75,3.9 -5.6,3.25 -0.2,0.55 65.25,155.2 0.1,0.7 -0.25,0.65 -0.55,0.5 -0.7,0.15 h -83.3 l -0.45,-0.05 -0.7,-0.5 -47.9,-141.5 -0.45,-0.3 h -38.45 l -0.4,0.4 V 675.3 l -0.1,0.55 -0.3,0.45 -0.45,0.3 -0.55,0.1 h -76.6 l -0.55,-0.1 -0.45,-0.3 -0.3,-0.45 -0.1,-0.55 V 317.8 l 0.1,-0.55 0.3,-0.45 0.45,-0.3 0.55,-0.1 m -244,0 -0.05,0.2 h 211.1 l 0.55,0.1 0.45,0.3 0.3,0.45 0.1,0.55 v 59.2 l -0.1,0.55 -0.3,0.45 -0.45,0.3 -0.55,0.1 H 490.55 l -0.4,0.4 v 92.95 l 0.4,0.4 h 101.8 l 0.55,0.1 0.45,0.3 0.3,0.45 0.1,0.55 v 59.2 l -0.1,0.55 -0.3,0.45 -0.45,0.3 -0.55,0.1 h -101.8 l -0.4,0.4 V 675.3 l -0.1,0.55 -0.3,0.45 -0.45,0.3 -0.55,0.1 h -76.6 l -0.55,-0.1 -0.45,-0.3 -0.3,-0.45 -0.1,-0.55 V 317.8 l 0.1,-0.55 0.3,-0.45 0.45,-0.3 0.55,-0.1 m 638.4,59.25 0.2,0.05 -5.8,0.35 -2.9,0.5 -2.7,0.65 -2.6,0.85 -2.5,1.05 -2.4,1.2 -2.3,1.4 -2.15,1.6 -2.1,1.8 -1.95,2 -3.6,4.45 -3.25,5.3 -1.45,2.9 -1.35,3.2 -1.3,3.6 -2.3,8.35 -1.95,9.8 -1.6,11.35 -1.25,12.85 -0.9,14.35 -0.55,15.85 -0.2,17.4 0.15,17.05 0.5,15.65 0.85,14.2 1.2,12.75 1.55,11.3 1.9,9.85 1.1,4.4 2.45,7.65 2.8,6.35 3.2,5.45 1.75,2.45 1.9,2.3 1.95,2.05 2.1,1.85 2.2,1.65 2.3,1.45 2.4,1.25 2.5,1.05 2.6,0.9 2.7,0.7 2.8,0.5 2.85,0.3 3.05,0.1 5.9,-0.35 2.9,-0.5 2.7,-0.65 2.6,-0.85 2.5,-1 2.4,-1.2 2.3,-1.4 2.15,-1.55 2.1,-1.8 1.9,-1.9 3.7,-4.5 3.3,-5.25 1.5,-2.9 1.4,-3.2 1.3,-3.6 2.35,-8.3 1.95,-9.85 1.6,-11.4 1.25,-12.95 0.9,-14.5 0.55,-16 0.2,-17.55 -0.2,-17.45 -0.55,-15.9 -0.9,-14.4 -1.25,-12.85 -1.6,-11.35 -0.95,-5.1 -2.1,-9.05 -2.45,-7.5 -1.35,-3.2 -1.45,-2.9 -3.25,-5.25 -1.75,-2.35 -1.95,-2.2 -2,-1.95 -2.1,-1.8 -2.2,-1.6 -2.3,-1.4 -2.4,-1.2 -2.5,-1.05 -2.55,-0.85 -2.75,-0.65 -2.75,-0.45 -2.95,-0.3 -3.1,-0.1 M 2206.9,375.1 v -0.15 h -31.05 l -0.4,0.4 v 99.8 l 0.4,0.4 H 2210 l 5.65,-0.2 5.25,-0.6 4.8,-1 4.55,-1.4 4.15,-1.8 3.8,-2.2 3.45,-2.6 3.05,-3 2.7,-3.45 2.35,-3.85 2,-4.25 1.65,-4.65 1.25,-5.05 0.9,-5.45 0.55,-5.8 0.2,-6.3 -0.1,-4.35 -0.3,-4.15 -0.55,-3.95 -0.75,-3.75 -1,-3.65 -1.15,-3.35 -1.4,-3.15 -1.55,-2.9 -1.75,-2.75 -3.65,-4.8 -2,-2.1 -2,-1.8 -2.1,-1.6 -2.15,-1.35 -2.2,-1.15 -2.4,-0.95 -2.6,-0.8 -6.2,-1.3 -7.25,-0.75 -8.3,-0.25 m -1441.25,0 0.05,-0.15 h -31.05 l -0.4,0.4 v 99.8 l 0.4,0.4 h 34.15 l 5.65,-0.2 5.25,-0.6 4.8,-1 4.55,-1.4 4.15,-1.8 3.8,-2.2 3.45,-2.6 3.05,-3 2.7,-3.45 2.35,-3.85 2,-4.25 1.65,-4.65 1.25,-5.05 0.9,-5.45 0.55,-5.8 0.2,-6.3 -0.1,-4.35 -0.3,-4.15 -0.55,-3.95 -0.75,-3.75 -1,-3.65 -1.15,-3.35 -1.4,-3.15 -1.55,-2.9 -1.75,-2.75 -3.7,-4.8 -2,-2.1 -2,-1.8 -2.1,-1.6 -2.15,-1.35 -2.2,-1.15 -2.4,-0.95 -2.6,-0.8 -6.2,-1.3 -7.25,-0.75 -8.3,-0.25"
            id="path4"
            inkscape:connector-curvature="0"
            style="fill:#ffffff;stroke:none;fill-opacity:1"/>
    </g>
</svg>
