<?xml version="1.0" encoding="UTF-8" standalone="no"?>
<!-- Created with Inkscape (http://www.inkscape.org/) -->

<svg
    xmlns:dc="http://purl.org/dc/elements/1.1/"
    xmlns:cc="http://creativecommons.org/ns#"
    xmlns:rdf="http://www.w3.org/1999/02/22-rdf-syntax-ns#"
    xmlns:sodipodi="http://sodipodi.sourceforge.net/DTD/sodipodi-0.dtd"
    xmlns:inkscape="http://www.inkscape.org/namespaces/inkscape"
    xmlns="http://www.w3.org/2000/svg"
    width="150.96996"
    height="172.53709"
    viewBox="0 0 150.96995 172.5371"
    id="svg4700"
    version="1.1"
    inkscape:version="0.91 r13725"
    sodipodi:docname="github-logo.svg">
    <defs
        id="defs4702"/>
    <sodipodi:namedview
        id="base"
        pagecolor="#ffffff"
        bordercolor="#666666"
        borderopacity="1.0"
        inkscape:pageopacity="0.0"
        inkscape:pageshadow="2"
        inkscape:zoom="1.979899"
        inkscape:cx="-9.885402"
        inkscape:cy="67.642883"
        inkscape:document-units="px"
        inkscape:current-layer="layer1"
        showgrid="false"
        fit-margin-top="12.647614"
        fit-margin-left="0"
        fit-margin-right="0"
        fit-margin-bottom="12.647614"
        units="px"
        inkscape:window-width="1366"
        inkscape:window-height="705"
        inkscape:window-x="-8"
        inkscape:window-y="-8"
        inkscape:window-maximized="1"/>
    <metadata
        id="metadata4705">
        <rdf:RDF>
            <cc:Work
                rdf:about="">
                <dc:format>image/svg+xml</dc:format>
                <dc:type
                    rdf:resource="http://purl.org/dc/dcmitype/StillImage"/>
                <dc:title></dc:title>
            </cc:Work>
        </rdf:RDF>
    </metadata>
    <g
        inkscape:label="Layer 1"
        inkscape:groupmode="layer"
        id="layer1"
        transform="translate(-275.94357,-271.80795)">
        <path
            inkscape:connector-curvature="0"
            id="path4162"
            style="fill:#1b1817;fill-opacity:1;fill-rule:evenodd;stroke:none"
            d="m 351.42857,284.45556 c -41.68375,0 -75.485,33.79375 -75.485,75.485 0,33.35 21.62875,61.645 51.62125,71.62625 3.7725,0.69875 5.1575,-1.6375 5.1575,-3.63125 0,-1.79875 -0.07,-7.74625 -0.1025,-14.05375 -21,4.56625 -25.43125,-8.90625 -25.43125,-8.90625 -3.43375,-8.72375 -8.38125,-11.045 -8.38125,-11.045 -6.84875,-4.685 0.51625,-4.58875 0.51625,-4.58875 7.58,0.5325 11.57125,7.78 11.57125,7.78 6.7325,11.53875 17.65875,8.2025 21.96625,6.27375 0.67875,-4.8775 2.63375,-8.20875 4.7925,-10.09375 -16.76625,-1.9075 -34.39125,-8.38125 -34.39125,-37.305 0,-8.24 2.94875,-14.975 7.7775,-20.26125 -0.78375,-1.90125 -3.3675,-9.57875 0.7325,-19.97625 0,0 6.33875,-2.0275 20.7625,7.73875 6.02125,-1.6725 12.47875,-2.51125 18.89375,-2.54125 6.415,0.03 12.8775,0.86875 18.91,2.54125 14.4075,-9.76625 20.7375,-7.73875 20.7375,-7.73875 4.10875,10.3975 1.525,18.075 0.74125,19.97625 4.84,5.28625 7.7675,12.02125 7.7675,20.26125 0,28.99375 -17.65875,35.37625 -34.4675,37.245 2.7075,2.3425 5.12,6.93625 5.12,13.97875 0,10.1 -0.0863,18.22875 -0.0863,20.715 0,2.01 1.3575,4.3625 5.18375,3.6225 29.9775,-9.9925 51.57875,-38.2775 51.57875,-71.6175 0,-41.69125 -33.79625,-75.485 -75.485,-75.485"/>
        <path
            inkscape:connector-curvature="0"
            id="path4166"
            style="fill:#1b1817;fill-opacity:1;fill-rule:nonzero;stroke:none"
            d="m 304.53407,392.83456 c -0.16625,0.37625 -0.75625,0.48875 -1.29375,0.23125 -0.54875,-0.2475 -0.855,-0.75875 -0.6775,-1.135 0.1625,-0.385 0.7525,-0.4925 1.3,-0.235 0.5475,0.24625 0.86,0.7625 0.67125,1.13875"/>
        <path
            inkscape:connector-curvature="0"
            id="path4170"
            style="fill:#1b1817;fill-opacity:1;fill-rule:nonzero;stroke:none"
            d="m 307.59194,396.24519 c -0.36,0.33375 -1.065,0.17875 -1.54125,-0.34875 -0.495,-0.52625 -0.58625,-1.23125 -0.22125,-1.56875 0.37125,-0.33375 1.05375,-0.1775 1.5475,0.34875 0.495,0.5325 0.59125,1.23 0.215,1.56875"/>
        <path
            inkscape:connector-curvature="0"
            id="path4174"
            style="fill:#1b1817;fill-opacity:1;fill-rule:nonzero;stroke:none"
            d="m 310.56807,400.59206 c -0.4625,0.3225 -1.22,0.0212 -1.6875,-0.65 -0.4625,-0.6725 -0.4625,-1.4775 0.0113,-1.8 0.4675,-0.3225 1.21375,-0.0312 1.6875,0.63375 0.46125,0.6825 0.46125,1.4875 -0.0113,1.81625"/>
        <path
            inkscape:connector-curvature="0"
            id="path4178"
            style="fill:#1b1817;fill-opacity:1;fill-rule:nonzero;stroke:none"
            d="m 314.64519,404.79256 c -0.41375,0.45625 -1.295,0.33375 -1.94,-0.29 -0.66,-0.6075 -0.84375,-1.47125 -0.43,-1.9275 0.42,-0.4575 1.30625,-0.32875 1.95625,0.28875 0.655,0.6075 0.85375,1.4775 0.41375,1.92875"/>
        <path
            inkscape:connector-curvature="0"
            id="path4182"
            style="fill:#1b1817;fill-opacity:1;fill-rule:nonzero;stroke:none"
            d="m 320.27019,407.23144 c -0.18375,0.59125 -1.03125,0.85875 -1.88625,0.6075 -0.85375,-0.25875 -1.4125,-0.95 -1.24,-1.5475 0.1775,-0.595 1.03,-0.875 1.89125,-0.60625 0.8525,0.2575 1.4125,0.945 1.235,1.54625"/>
        <path
            inkscape:connector-curvature="0"
            id="path4186"
            style="fill:#1b1817;fill-opacity:1;fill-rule:nonzero;stroke:none"
            d="m 326.44819,407.68319 c 0.0213,0.6225 -0.70375,1.13875 -1.60125,1.15 -0.9025,0.02 -1.63375,-0.48375 -1.64375,-1.09625 0,-0.62875 0.71,-1.13875 1.61125,-1.155 0.8975,-0.0175 1.63375,0.48375 1.63375,1.10125"/>
        <path
            inkscape:connector-curvature="0"
            id="path4190"
            style="fill:#1b1817;fill-opacity:1;fill-rule:nonzero;stroke:none"
            d="m 332.19644,406.70531 c 0.1075,0.60625 -0.51625,1.23 -1.4075,1.39625 -0.87625,0.16125 -1.6875,-0.215 -1.79875,-0.81625 -0.10875,-0.6225 0.525,-1.24625 1.40125,-1.4075 0.8925,-0.155 1.69125,0.21 1.805,0.8275"/>
    </g>
</svg>
