<?xml version="1.0" encoding="UTF-8" standalone="no"?>
<!-- Generator: Adobe Illustrator 16.0.0, SVG Export Plug-In . SVG Version: 6.00 Build 0)  -->

<svg
    xmlns:dc="http://purl.org/dc/elements/1.1/"
    xmlns:cc="http://creativecommons.org/ns#"
    xmlns:rdf="http://www.w3.org/1999/02/22-rdf-syntax-ns#"
    xmlns:sodipodi="http://sodipodi.sourceforge.net/DTD/sodipodi-0.dtd"
    xmlns:inkscape="http://www.inkscape.org/namespaces/inkscape"
    xmlns="http://www.w3.org/2000/svg"
    version="1.1"
    id="Layer_2"
    x="0px"
    y="0px"
    width="1036.8866"
    height="1185.0133"
    viewBox="0 0 1036.8866 1185.0133"
    enable-background="new 0 0 1041.381 941.625"
    xml:space="preserve"
    inkscape:version="0.91 r13725"
    sodipodi:docname="ed-logo.svg"><metadata
     id="metadata71"><rdf:RDF><cc:Work
         rdf:about=""><dc:format>image/svg+xml</dc:format><dc:type
    rdf:resource="http://purl.org/dc/dcmitype/StillImage"/><dc:title></dc:title></cc:Work></rdf:RDF></metadata>
    <defs
        id="defs69"/>
    <sodipodi:namedview
        pagecolor="#ffffff"
        bordercolor="#666666"
        borderopacity="1"
        objecttolerance="10"
        gridtolerance="10"
        guidetolerance="10"
        inkscape:pageopacity="0"
        inkscape:pageshadow="2"
        inkscape:window-width="1366"
        inkscape:window-height="705"
        id="namedview67"
        showgrid="false"
        fit-margin-top="121.69413"
        fit-margin-left="0"
        fit-margin-right="0"
        fit-margin-bottom="121.69413"
        inkscape:zoom="0.25063056"
        inkscape:cx="-122.19349"
        inkscape:cy="592.50666"
        inkscape:window-x="-8"
        inkscape:window-y="-8"
        inkscape:window-maximized="1"
        inkscape:current-layer="Layer_2"/>
    <g
        id="g3"
        transform="translate(-4.4941486,121.69413)"><path
       d="m 366.333,622.501 c -2.491,-2.489 -100.149,-92.796 -102.389,-94.877 -0.069,8.43 -0.079,20.649 0.181,26.867 0,13.884 -0.188,19.196 18.125,37.509 10.01,9.454 53.497,48.931 93.356,86.2 -0.062,-1.013 -1.085,-34.103 -1.085,-36.417 0,-7.284 -3.226,-14.319 -8.188,-19.282 z"
       id="path5"
       inkscape:connector-curvature="0"
       style="fill:#fd7022" />
        <path
            d="m 308.625,486.625 c -7.648,-6.844 -10.202,-13.496 -10.536,-20.72 -0.279,-6.029 1.911,-13.46 6.419,-20.25 1.76,-2.65 7.963,-9.595 8.367,-10.093 -5.977,-5.599 -39.696,-37.24 -43.875,-41.063 -6.435,-5.959 -10.529,-13.323 -13,-22 -1.434,-5.904 -2,-11.846 -2,-19 0,-3.209 0.146,-11.03 0,-22 0.401,-1.244 -0.503,-20.039 -0.418,-23.326 -14.253,-14.898 -21.941,-36.565 -26.854,-62.829 -2.88,-15.397 -4.17,-31.344 -4.297,-46.901 C 188.499,167.639 4.5,0 4.5,0 3.981,80.167 38.083,119.5 68.544,149.646 l 62.456,60.021 0,15.666 c 0,0 -48.734,-45.042 -48.75,-45.5 0,55.416 10.625,82.166 57.264,132.745 L 196,367.5 l 0,15.333 c 0,0 -41.602,-38.447 -41.5,-38.667 -4.25,32.583 -1.625,62.208 38,101.833 -0.131,-0.06 177.302,163.828 179.973,166.5 9.083,9.083 11.527,22.159 11.527,32.625 l 0,23.376 c 0,3.125 1.114,12.175 1.306,12.751 0.493,1.481 1.191,4.517 2.263,6.125 0.712,1.067 2.176,3.44 2.943,4.335 0.443,0.518 0.75,0.864 0.755,0.873 l 80.491,76.041 42.245,-98.375 C 513.74,670.011 316.53,493.698 308.625,486.625 Z"
            id="path7"
            inkscape:connector-curvature="0"
            style="fill:#fd7022"/>
        <path
            d="m 263.727,351.125 c -0.02,13.996 2.162,23.653 12.884,34.375 4.318,3.984 43.731,39.975 43.731,39.975 29.742,-33.808 1.671,-54.546 2.242,-53.975 0,0 -49.057,-44.868 -58.217,-53.746 -0.195,5.785 -0.437,10.849 -0.64,11.371 0.125,11.142 -0.02,18.924 0,22 z"
            id="path9"
            inkscape:connector-curvature="0"
            style="fill:#fd7022"/>
        <polygon
            points="493,439.5 493,451.25 461,456.5 449.125,467.5 495.688,467.5 523,491.25 502.125,434.125 495.218,427.4 484.218,428.4 471.25,439.5 "
            id="polygon11"
            style="fill:#fd7022"/>
        <path
            d="m 264.583,301.667 c 13.67,13.353 60.211,56.627 64.667,61.083 20.25,20.375 19.7,46.729 -0.606,71.55 -0.65,0.794 -12.611,15.693 -14.139,17.993 -6.838,9.707 -6.297,18.665 13.495,38.457 7.937,7.102 191,165.75 191,165.75 L 491.875,517.375 471.75,489.5 l -44.833,-2 C 395.25,484.334 377,444.5 426,400.333 l 0,-33 -192.083,-178.52 c -0.346,17.584 -0.042,35.604 3.958,53.854 4.705,25.156 13.459,46.058 26.708,59 z"
            id="path13"
            inkscape:connector-curvature="0"
            style="fill:#fd7022"/>
        <polygon
            points="375.606,678.201 375.606,678.2 375.606,678.2 "
            id="polygon15"
            style="fill:#fd7022"/>
        <polygon
            points="523,680.384 475.897,792.726 499.417,816.001 509.75,751.25 523,731.667 536.25,751.25 546.583,816.001 570.103,792.726 "
            id="polygon17"
            style="fill:#fd7022"/>
        <path
            d="M 545.753,862.193 C 543.82,851.193 528,753.25 528,753.25 l -5,-7 -5,7 c 0,0 -15.82,97.943 -17.753,108.943 -2.08,13.807 0.587,19.474 14.253,35.807 -3.168,3.168 -7.5,7.167 -7.5,11.167 0,2.126 0,14.208 0,14.208 0,3.445 1.415,18.25 16,18.25 14.585,0 16,-14.805 16,-18.25 0,0 0,-12.082 0,-14.208 0,-4 -4.332,-7.999 -7.5,-11.167 13.666,-16.333 16.333,-22 14.253,-35.807 z"
            id="path19"
            inkscape:connector-curvature="0"
            style="fill:#fd7022"/>
        <polygon
            points="523,611.167 542,512.667 560.25,489 523,503.25 485.75,489 504,512.667 "
            id="polygon21"
            style="fill:#fd7022"/>
        <polygon
            points="534.833,387.917 523,379.917 511.167,387.917 509.161,326.661 505.167,305.5 496.375,409.25 510.375,420.875 523,491.25 535.625,420.875 549.625,409.25 540.833,305.5 536.839,326.661 "
            id="polygon23"
            style="fill:#fd7022"/>
        <path
            d="m 619.084,487.5 -44.792,2 -20.146,27.875 -27.135,139.125 c 0,0 183.058,-158.648 190.994,-165.75 19.792,-19.792 20.332,-28.75 13.493,-38.457 -1.527,-2.3 -13.49,-17.199 -14.141,-17.993 -20.307,-24.82 -20.856,-51.175 -0.606,-71.55 4.455,-4.456 50.995,-47.731 64.665,-61.083 13.25,-12.942 21.962,-33.843 26.668,-59 4,-18.25 4.346,-36.271 4,-53.854 L 620,367.333 l 0,33 c 49,44.167 30.75,84.001 -0.916,87.167 z"
            id="path25"
            inkscape:connector-curvature="0"
            style="fill:#fd7022"/>
        <path
            d="m 725.658,425.475 c 0,0 39.414,-35.99 43.731,-39.975 10.722,-10.722 12.903,-20.378 12.884,-34.375 0.02,-3.077 -0.125,-10.859 0,-22 -0.203,-0.522 -0.444,-5.586 -0.64,-11.371 -9.161,8.878 -58.218,53.746 -58.218,53.746 0.573,-0.571 -27.499,20.167 2.243,53.975 z"
            id="path27"
            inkscape:connector-curvature="0"
            style="fill:#fd7022"/>
        <polygon
            points="561.782,428.4 550.782,427.4 543.875,434.125 523,491.25 550.313,467.5 596.875,467.5 585,456.5 553,451.25 553,439.5 574.75,439.5 "
            id="polygon29"
            style="fill:#fd7022"/>
        <path
            d="m 679.666,622.501 c -4.961,4.963 -8.188,11.998 -8.188,19.282 0,2.314 -1.023,35.404 -1.084,36.417 39.859,-37.27 83.346,-76.746 93.355,-86.2 18.313,-18.313 18.125,-23.625 18.125,-37.509 0.26,-6.218 0.25,-18.438 0.181,-26.867 -2.24,2.081 -99.898,92.388 -102.389,94.877 z"
            id="path31"
            inkscape:connector-curvature="0"
            style="fill:#fd7022"/>
        <polygon
            points="670.395,678.201 670.395,678.2 670.395,678.2 "
            id="polygon33"
            style="fill:#fd7022"/>
        <path
            d="m 823.568,198.444 c -0.127,15.557 -1.416,31.504 -4.297,46.901 -4.912,26.264 -12.6,47.931 -26.854,62.829 0.086,3.287 -0.819,22.083 -0.418,23.326 -0.146,10.97 0,18.791 0,22 0,7.154 -0.566,13.096 -2,19 -2.471,8.677 -6.564,16.041 -13,22 -4.179,3.822 -37.898,35.464 -43.875,41.063 0.404,0.498 6.607,7.442 8.367,10.093 4.508,6.79 6.698,14.221 6.419,20.25 -0.334,7.224 -2.888,13.876 -10.536,20.72 C 729.47,493.698 532.264,670.011 532,670.25 l 42.25,98.375 80.5,-76.041 c 0.005,-0.009 0.329,-0.355 0.772,-0.873 0.767,-0.895 2.266,-3.268 2.978,-4.335 1.072,-1.608 1.701,-4.644 2.193,-6.125 0.193,-0.576 1.307,-9.626 1.307,-12.751 l 0,-23.375 c 0,-10.466 2.443,-23.542 11.527,-32.625 2.672,-2.672 180.034,-166.56 179.903,-166.5 39.625,-39.625 42.284,-69.25 38.034,-101.833 0.102,0.219 -41.465,38.667 -41.465,38.667 l 0,-15.334 56.361,-54.921 C 953,262 963.25,235.25 963.25,179.834 c -0.016,0.458 -49.25,45.5 -49.25,45.5 l 0,-15.666 62.956,-60.021 c 30.46,-30.146 64.938,-69.479 64.419,-149.646 0,-0.001 -183.873,167.638 -217.807,198.443 z"
            id="path35"
            inkscape:connector-curvature="0"
            style="fill:#fd7022"/></g>
    <g
        id="g37"
        transform="translate(-4.4941486,121.69413)"/>
    <g
        id="g39"
        transform="translate(-4.4941486,121.69413)"/>
    <g
        id="g41"
        transform="translate(-4.4941486,121.69413)"/>
    <g
        id="g43"
        transform="translate(-4.4941486,121.69413)"/>
    <g
        id="g45"
        transform="translate(-4.4941486,121.69413)"/>
    <g
        id="g47"
        transform="translate(-4.4941486,121.69413)"/>
    <g
        id="g49"
        transform="translate(-4.4941486,121.69413)"/>
    <g
        id="g51"
        transform="translate(-4.4941486,121.69413)"/>
    <g
        id="g53"
        transform="translate(-4.4941486,121.69413)"/>
    <g
        id="g55"
        transform="translate(-4.4941486,121.69413)"/>
    <g
        id="g57"
        transform="translate(-4.4941486,121.69413)"/>
    <g
        id="g59"
        transform="translate(-4.4941486,121.69413)"/>
    <g
        id="g61"
        transform="translate(-4.4941486,121.69413)"/>
    <g
        id="g63"
        transform="translate(-4.4941486,121.69413)"/>
    <g
        id="g65"
        transform="translate(-4.4941486,121.69413)"/></svg>
