<?xml version="1.0" encoding="UTF-8" standalone="no"?>
<svg
    xmlns:dc="http://purl.org/dc/elements/1.1/"
    xmlns:cc="http://creativecommons.org/ns#"
    xmlns:rdf="http://www.w3.org/1999/02/22-rdf-syntax-ns#"
    xmlns:sodipodi="http://sodipodi.sourceforge.net/DTD/sodipodi-0.dtd"
    xmlns:inkscape="http://www.inkscape.org/namespaces/inkscape"
    xmlns="http://www.w3.org/2000/svg"
    class=""
    app-context="doc-2d"
    x="0px"
    y="0px"
    width="746.35999"
    height="852.98285"
    jvs-fullPath="_new_1509041647143/Untitled"
    id="svg2"
    version="1.1"
    inkscape:version="0.91 r13725"
    sodipodi:docname="edcd-logo.svg">
    <metadata
        id="metadata20">
        <rdf:RDF>
            <cc:Work
                rdf:about="">
                <dc:format>image/svg+xml</dc:format>
                <dc:type
                    rdf:resource="http://purl.org/dc/dcmitype/StillImage"/>
                <dc:title></dc:title>
            </cc:Work>
        </rdf:RDF>
    </metadata>
    <sodipodi:namedview
        pagecolor="#ffffff"
        bordercolor="#666666"
        borderopacity="1"
        objecttolerance="10"
        gridtolerance="10"
        guidetolerance="10"
        inkscape:pageopacity="0"
        inkscape:pageshadow="2"
        inkscape:window-width="1366"
        inkscape:window-height="705"
        id="namedview18"
        showgrid="false"
        fit-margin-top="158.99875"
        fit-margin-left="0"
        fit-margin-right="0"
        fit-margin-bottom="158.99875"
        inkscape:zoom="0.28032173"
        inkscape:cx="-752.81096"
        inkscape:cy="416.54481"
        inkscape:window-x="-8"
        inkscape:window-y="-8"
        inkscape:window-maximized="1"
        inkscape:current-layer="svg2"/>
    <desc
        id="desc6"/>
    <defs
        id="defs8"/>
    <g
        id="jvs-guides"
        transform="translate(-26.82,26.16875)"/>
    <g
        id="jvs-content"
        style="enable-background:new"
        transform="translate(-26.82,26.16875)">
        <g
            name="Layer"
            jvs-layer-color="#fb0094"
            class="jvs-layer selected"
            id="g12">
            <title
                id="title14">EDCD
            </title>
            <path
                d="m 465.23,412.15 307.95,-279.32 0,53.86 c 0,27.28 -26.36,50.69 -26.36,50.69 l -29.82,27.5 0,38.4 c 0,25.69 -12.72,34.1 -12.72,34.1 l -39.55,35 0,43.62 c 0,14.09 -20.68,33.64 -20.68,33.64 l -67.5,59.54 -48.82,0 c 0,-27.27 -62.5,-81.81 -62.5,-81.81 z M 400,539.19 l 26.36,-30.45 65.64,0 C 467.91,482.6 428.82,482.37 428.82,482.37 l 0.23,-11.59 24.32,0 -16.36,-13.41 -14.51,0 -2.27,-22.27 5.91,-3.63 -9.32,-106.59 -7.73,83.63 -9.09,7.05 -9.09,-7.05 -7.73,-83.63 -9.32,106.59 5.91,3.63 -2.27,22.27 -14.5,0 -16.36,13.41 24.32,0 0.23,11.59 c 0,0 -39.09,0.23 -63.18,26.37 l 65.68,0 z m -65.23,-127 -307.95,-279.36 0,53.86 c 0,27.28 26.36,50.69 26.36,50.69 l 29.82,27.5 0,38.4 c 0,25.69 12.72,34.1 12.72,34.1 l 39.55,35 0,43.62 c 0,14.09 20.68,33.64 20.68,33.64 l 67.5,59.54 48.86,0 c 0,-27.27 62.5,-81.81 62.5,-81.81 z m 216.69,253.05 c 19.24,0 38.52,0.7 57.7,-0.36 35,-2 57.32,-23.79 60.76,-58.1 3.94,-39.27 -23.75,-71.73 -63.11,-73.27 -18,-0.7 -36,-0.25 -54.07,-0.3 -0.96103,0.0709 -1.9164,0.20451 -2.86,0.4 l 0,131.18 c 0.50742,0.2108 1.03766,0.36182 1.58,0.45 z m 53,-108.07 c 17.87,2.44 29,13.43 32.3,31.29 2,10.91 1.38,21.67 -3.37,31.93 -4.88,10.53 -12.83,17.81 -24.29,19.76 -9,1.54 -18.21,1.43 -27.62,2.08 l 0,-86.18 c 7.98,0.35 15.58,0.11 23.01,1.12 z M 272.7,665.29 c 19.38,-0.15 38.85,0.76 58.13,-0.72 35.58,-2.72 58,-27.73 58.57,-63.45 0.6,-37.28 -25.95,-66 -63.18,-67.58 -18.29,-0.76 -36.64,-0.26 -55,-0.31 -0.75384,0.0821 -1.49756,0.23957 -2.22,0.47 l 0,131.35 c 1.62,0.11 2.66,0.25 3.7,0.24 z m 27.92,-108.77 c 11.84,-0.15 23.6,-1.33 34.74,3.85 8.31,3.87 14.66,9.87 17.8,18.47 6.3,17.29 5.89,34.08 -5.43,49.51 -4.36,6 -10.38,10.2 -17.48,11.38 -9.58,1.6 -19.4,1.83 -29.63,2.69 z M 522.78,543 c 0,-1.18 -1.59,-2.78 -2.84,-3.38 -16.40523,-8.1271 -35.02121,-10.65606 -53,-7.2 -31.92,6 -53.11,29 -56.13,61.47 -2.33,25.11 5.4,46.79 27.18,61 27.56,17.93 56.4,15.67 85.22,2.6 0.86024,-0.4625 1.45828,-1.29679 1.62,-2.26 0.11,-8.23 0.07,-16.47 0.07,-25.31 -2,1.12 -3.3,1.82 -4.57,2.56 -11.38,6.65 -23.6,10.09 -36.84,9.25 -16,-1 -28.77,-7.77 -35.81,-22.46 -7.22,-15.08 -6.61,-30.49 3,-44.45 C 462,558.24 478.9,554.93 497.3,558 c 8.51,1.41 16.66,5 25.61,7.76 0,-7.43 0.09,-15.11 -0.13,-22.76 z m -358.26,43.43 0,-30.26 79.28,0 0,-22.78 c -1.7,-0.07 -3.18,-0.2 -4.66,-0.2 -34.08,0 -68.17,0.06 -102.25,-0.1 -4.19,0 -5.32,1.15 -5.3,5.32 0.15,40.6 0.09,81.19 0.1,121.79 0,1.62 0.15,3.24 0.22,4.8 l 113.34,0 0,-22.77 -80.7,0 0,-33.35 75.68,0 0,-22.45 z"
                id="path16"
                inkscape:connector-curvature="0"
                style="fill:#1d1d1d;fill-opacity:1"/>
        </g>
    </g>
</svg>
