<?xml version="1.0" encoding="UTF-8" standalone="no"?>
<!-- Created with Inkscape (http://www.inkscape.org/) -->

<svg
    xmlns:dc="http://purl.org/dc/elements/1.1/"
    xmlns:cc="http://creativecommons.org/ns#"
    xmlns:rdf="http://www.w3.org/1999/02/22-rdf-syntax-ns#"
    xmlns:sodipodi="http://sodipodi.sourceforge.net/DTD/sodipodi-0.dtd"
    xmlns:inkscape="http://www.inkscape.org/namespaces/inkscape"
    xmlns="http://www.w3.org/2000/svg"
    width="210.85631mm"
    height="206.52438mm"
    viewBox="0 0 747.12865 731.77931"
    id="svg2"
    version="1.1"
    inkscape:version="0.91 r13725"
    sodipodi:docname="Coat of Arms.svg">
    <defs
        id="defs4"/>
    <sodipodi:namedview
        id="base"
        pagecolor="#ffffff"
        bordercolor="#666666"
        borderopacity="1.0"
        inkscape:pageopacity="0.0"
        inkscape:pageshadow="2"
        inkscape:zoom="0.49497475"
        inkscape:cx="583.74125"
        inkscape:cy="314.3505"
        inkscape:document-units="px"
        inkscape:current-layer="layer1"
        showgrid="false"
        showguides="false"
        fit-margin-top="0"
        fit-margin-left="0"
        fit-margin-right="0"
        fit-margin-bottom="0"
        inkscape:window-width="1366"
        inkscape:window-height="705"
        inkscape:window-x="-8"
        inkscape:window-y="-8"
        inkscape:window-maximized="1"
        inkscape:snap-bbox="true"
        inkscape:snap-bbox-edge-midpoints="true"
        inkscape:bbox-nodes="true"
        inkscape:snap-page="true"/>
    <metadata
        id="metadata7">
        <rdf:RDF>
            <cc:Work
                rdf:about="">
                <dc:format>image/svg+xml</dc:format>
                <dc:type
                    rdf:resource="http://purl.org/dc/dcmitype/StillImage"/>
                <dc:title></dc:title>
            </cc:Work>
        </rdf:RDF>
    </metadata>
    <g
        inkscape:label="Layer 1"
        inkscape:groupmode="layer"
        id="layer1"
        transform="translate(-0.72102957,-145.16486)"
        style="display:inline">
        <path
            style="fill:#000000"
            d="m 370.98571,875.21233 c -6.6653,-3.987 -16.8788,-8.50161 -42.6,-18.8301 -20.6122,-8.27694 -36.0852,-14.74131 -43.8,-18.29901 -1.32,-0.60873 -4.56,-2.09055 -7.2,-3.29295 -9.1959,-4.18833 -24.30711,-11.85576 -34.20002,-17.35308 -28.64961,-15.92016 -52.66701,-32.90778 -75.3,-53.26005 -5.608,-5.04291 -19.40545,-18.85215 -24.62248,-24.64353 C 96.384574,687.49394 66.156154,622.87082 51.628074,543.63362 c -2.4486,-13.35486 -5.3741,-35.08557 -6.72452,-49.95 -2.84421,-31.30695 -3.40293,-70.43852 -1.5056,-105.45 0.98623,-18.19906 0.87027,-27.92647 -0.4734,-39.70966 -2.93684,-25.75436 -12.3955,-47.75607 -26.95013,-62.68847 -3.84628,-3.94611 -9.3660097,-8.27116 -13.6331197,-10.68238 -0.95942,-0.54214 -1.68639001,-1.13956 -1.61550001,-1.32759 0.17794,-0.47202 9.54988971,-29.07151 14.66174971,-44.74189 2.31447,-7.095 5.1231,-15.6675 6.2414,-19.05 1.1183,-3.3825 3.28945,-10.03125 4.82478,-14.775 1.53532,-4.74375 2.87526,-8.625 2.97762,-8.625 0.10237,0 1.39398,0.76017 2.87023,1.68928 19.85821,12.49803 47.60034,23.15778 74.834106,28.75457 22.6598,4.6568 39.37827,6.29986 64.05,6.29471 21.84991,-0.005 34.14502,-0.99299 54,-4.34116 17.79209,-3.00031 33.96232,-7.04044 48.49262,-12.11594 9.0766,-3.17046 12.0737,-4.31908 19.44,-7.45013 29.7865,-12.66084 55.1132,-29.18644 76.6142,-49.99071 l 4.4537,-4.30939 1.0931,1.00939 c 0.6011,0.55516 2.6491,2.49438 4.5509,4.30938 28.5779,27.27317 66.5026,48.59071 107.2555,60.28857 13.9714,4.0104 22.1429,5.86937 36.3,8.25802 19.8441,3.34819 32.1468,4.33741 54,4.34197 24.6717,0.005 41.3902,-1.63791 64.05,-6.29471 27.0136,-5.55154 54.4219,-16.03368 74.2394,-28.39248 1.8092,-1.12825 3.3617,-2.04944 3.45,-2.04707 0.1697,0.005 1.2909,3.35922 8.0702,24.1457 5.3577,16.42794 20.4784,62.59042 20.6496,63.04189 0.071,0.18803 -0.6554,0.78545 -1.6148,1.32759 -14.8693,8.40224 -28.0754,26.07339 -34.7359,46.48052 -6.0833,18.63872 -8.037,37.95171 -6.4641,63.89999 1.4626,24.12763 1.5917,61.34181 0.2939,84.75 -2.2603,40.7715 -7.9153,77.86434 -17.1105,112.2333 -16.6228,62.13129 -43.5628,113.15357 -82.9056,157.01669 -5.4819,6.11181 -19.7305,20.27985 -25.9722,25.82541 -23.0253,20.45739 -45.6546,36.36117 -74.55,52.39353 -8.2101,4.55529 -26.1063,13.6368 -33.45,16.97427 -2.7225,1.23729 -5.988,2.72781 -7.2566,3.31224 -7.8495,3.61614 -23.289,10.06782 -43.8934,18.34161 -28.1941,11.32149 -37.5307,15.53172 -45.3,20.42757 -0.5288,0.33324 -0.9914,0.14394 -3.9,-1.59591 z m 5.1457,-16.76328 c 7.0101,-4.12569 17.0812,-8.56866 43.3043,-19.10427 30.557,-12.27681 42.8424,-17.69373 62.1,-27.38136 39.9737,-20.10897 72.0164,-42.75342 99.9248,-70.61649 16.0289,-16.00287 28.1254,-30.67203 40.8598,-49.55012 38.1612,-56.57193 60.235,-127.65963 65.7554,-211.76319 0.9412,-14.33844 1.1025,-19.16841 1.2679,-37.95 0.17,-19.31006 -0.078,-31.76693 -0.9544,-48 -0.7242,-13.40876 -0.8234,-18.6845 -0.4794,-25.5 1.0458,-20.71752 4.8976,-36.79161 12.322,-51.42084 4.1434,-8.16414 8.4957,-14.21854 14.7006,-20.44942 4.3535,-4.3717 8.0332,-7.29447 11.7655,-9.34525 1.6442,-0.90343 2.3155,-1.43571 2.2628,-1.79423 -0.1849,-1.2571 -27.1033,-83.03178 -27.3336,-83.03577 -0.1422,-0.002 -2.1199,1.13447 -4.3947,2.52653 -27.4541,16.79994 -65.3105,28.18924 -104.6967,31.49858 -18.4333,1.54882 -39.8628,1.33477 -58.0194,-0.57953 -38.9646,-4.10815 -75.2552,-15.10692 -107.1306,-32.46867 -18.3829,-10.0127 -35.9681,-22.9099 -50.175,-36.799 l -3.975,-3.88607 -3.975,3.88607 c -14.1885,13.87109 -31.8159,26.79929 -50.175,36.799 -40.7513,22.19618 -89.27893,34.08792 -139.21384,34.11446 -49.50524,0.0263 -97.137026,-11.94796 -131.428416,-33.04009 -1.83823,-1.13067 -3.45823,-2.05451 -3.6,-2.05297 -0.22911,0.002 -27.14695,81.78163 -27.33272,83.03959 -0.0526,0.35595 0.62349,0.89139 2.26273,1.7921 7.80808,4.29026 17.31252,14.08157 23.21482,23.91552 9.47342,15.78385 14.39312,33.88608 15.57261,57.29999 0.34182,6.78549 0.24885,11.6679 -0.47989,25.2 -0.8781,16.3057 -1.12273,28.70162 -0.95316,48.3 0.16511,19.08357 0.34748,24.56751 1.27203,38.25 3.68105,54.47616 13.93074,102.47784 31.0477,145.40367 15.417126,38.66301 36.129506,72.33683 63.165946,102.6941 5.20031,5.83905 18.31468,18.97107 24.42217,24.45504 31.42479,28.21659 67.47807,50.82639 113.85002,71.39781 9.6072,4.26192 18.4304,7.93638 37.8,15.74202 9.735,3.92304 19.995,8.10918 22.8,9.30252 6.1579,2.61981 16.2565,7.52997 19.35,9.40842 1.2375,0.75144 2.2912,1.37304 2.3417,1.38135 0.05,0.008 1.3797,-0.74298 2.954,-1.6695 z m 96.7043,-90.60777 c -0.4125,-0.0563 -6.825,-0.44361 -14.25,-0.86064 -26.2263,-1.47306 -27.4482,-1.65924 -46.3889,-7.06815 -13.2854,-3.79392 -15.3417,-4.93614 -26.9565,-14.97363 l -4.3453,-3.75525 -9.6047,-0.15 -9.6046,-0.15 -3.3,3.32913 c -4.8089,4.8513 -9.1683,8.18634 -13.5,10.32762 -9.9414,4.91442 -26.9823,9.60657 -39.75,10.94505 -12.108,1.26933 -37.4847,2.40105 -37.9234,1.69125 -0.3259,-0.52728 23.2766,-11.39364 44.2234,-20.36004 9.847,-4.21506 13.8261,-5.56167 22.65,-7.6653 1.7742,-0.42297 1.7849,-0.43179 0.75,-0.61506 -0.5775,-0.10227 -3.9204,-0.66027 -7.4287,-1.23999 -7.9013,-1.30563 -16.253,-3.08868 -23.3171,-4.97802 -2.9676,-0.79374 -5.4404,-1.39845 -5.4951,-1.34379 -0.055,0.0546 0.3822,0.25827 0.9708,0.45252 0.5885,0.19425 1.0658,0.44394 1.0605,0.55491 -0.02,0.41409 -6.6633,5.35425 -9.0537,6.73227 -4.9773,2.86935 -11.7118,5.00442 -19.7977,6.27651 -3.7977,0.59748 -5.4232,0.67581 -14.189,0.68385 -15.67413,0.0144 -20.01372,-0.69714 -43.80002,-7.18155 -7.425,-2.02413 -14.78087,-3.99108 -16.34637,-4.371 -1.56551,-0.37992 -2.71301,-0.73149 -2.55,-0.78123 0.163,-0.0497 4.61637,-0.78054 9.89637,-1.62399 5.28,-0.84348 15.28013,-2.52447 22.22251,-3.73557 6.94238,-1.21107 14.50238,-2.41323 16.8,-2.67141 14.60751,-1.64142 25.30631,-1.39938 39.48951,0.89334 0.5434,0.0878 -0.902,-0.56901 -3.212,-1.45968 -14.3791,-5.54424 -25.6056,-10.83231 -37.9513,-17.87643 -2.0618,-1.17639 -3.36885,-1.79925 -2.90458,-1.38408 0.75964,0.67929 0.78967,0.77472 0.3,0.95343 -0.29927,0.10923 -2.02914,0.76566 -3.84414,1.45875 -7.1433,2.72775 -10.80801,3.28842 -21.45,3.28164 -9.80407,-0.006 -11.90474,-0.28557 -20.11942,-2.6754 -12.47865,-3.63033 -18.55217,-6.16419 -27.7562,-11.57985 -7.89985,-4.64828 -26.80804,-16.93331 -27.30831,-17.74277 -0.33393,-0.5403 12.30889,-0.085 22.08393,0.79533 17.17836,1.54704 36.93008,3.99531 41.18649,5.10516 1.35254,0.35265 14.69894,6.15936 17.76351,7.72848 0.90415,0.46293 0.62527,0.2352 -3.6,-2.9397 -8.55336,-6.42705 -15.30823,-12.28509 -23.55,-20.42322 l -6.15,-6.07269 -3.45,0.35577 c -6.53372,0.67377 -11.12785,0.31863 -19.18453,-1.48302 -5.28628,-1.18212 -11.56651,-3.30372 -14.71547,-4.97124 -6.71168,-3.55413 -16.77225,-11.04885 -24.54305,-18.28356 -3.16927,-2.95062 -5.09108,-5.0391 -10.88423,-11.82819 -2.2425,-2.62803 -5.78625,-6.56913 -7.875,-8.75805 -2.08875,-2.18889 -3.79772,-4.19517 -3.79772,-4.45839 0,-0.64773 1.1606,-0.41685 6.3,1.25322 4.96533,1.61352 8.28804,2.47473 14.94156,3.87273 12.50862,2.62824 28.13629,9.09543 38.50997,15.9366 1.77169,1.16841 3.13311,1.97841 3.02537,1.8 -0.10775,-0.17838 -1.36335,-2.07933 -2.79024,-4.22433 -4.99423,-7.50771 -9.4518,-15.11883 -12.74643,-21.76398 l -1.71742,-3.46401 -2.82974,-0.67365 c -6.87516,-1.63674 -14.95737,-4.86441 -20.12116,-8.03547 -3.79085,-2.32794 -8.73992,-6.17442 -11.59158,-9.00912 -5.0192,-4.98933 -7.37758,-8.32584 -14.500916,-20.51508 -3.23588,-5.53719 -15.97941,-28.85634 -15.97941,-29.24046 0,-0.1983 3.40606,1.50669 7.65,3.82944 4.97449,2.72256 11.291806,6.47553 18.299996,10.87161 3.465,2.17353 8.42824,5.21358 11.02942,6.7557 5.53655,3.28236 8.42354,5.51388 12.01192,9.28464 1.43476,1.50771 2.60866,2.66616 2.60866,2.57436 0,-0.0918 -0.482,-1.87749 -1.07111,-3.96822 -1.57303,-5.58261 -3.27175,-13.25511 -4.405,-19.89576 l -0.99831,-5.85 -3.43779,-1.8 c -8.15954,-4.27227 -12.78892,-7.76331 -17.07964,-12.87987 -7.852966,-9.36441 -12.401896,-20.81805 -16.209716,-40.81407 -0.98814,-5.18904 -1.95143,-9.65775 -3.50958,-16.28106 -0.11118,-0.47259 -0.0226,-0.675 0.29519,-0.675 0.24969,0 2.52667,1.5249 5.05997,3.38868 2.5333,1.86378 5.88849,4.25508 7.455986,5.31402 3.47398,2.34687 7.57453,6.42045 11.8357,11.75787 3.72933,4.67124 8.98886,12.09009 11.55502,16.29897 0.9951,1.63212 1.81003,2.83764 1.81095,2.67897 0.0348,-6.0102 1.13694,-20.0004 2.11276,-26.81793 0.31721,-2.21616 0.54498,-4.05618 0.50616,-4.08891 -0.0388,-0.0327 -0.81309,-0.4317 -1.72059,-0.88662 -10.56438,-5.29578 -16.03295,-14.6922 -17.71854,-30.44505 -0.51573,-4.81976 -0.38747,-15.41927 0.3013,-24.9 0.34164,-4.7025 0.70762,-10.71 0.8133,-13.35 0.10568,-2.64 0.28378,-5.05585 0.39578,-5.36855 0.19251,-0.53752 0.24071,-0.52933 0.88295,0.15 0.37362,0.3952 2.55155,3.48605 4.83984,6.86855 2.28828,3.3825 5.18478,7.425 6.43666,8.98333 1.25187,1.55833 2.75217,3.61698 3.334,4.57476 2.64303,4.3509 7.33536,15.3927 8.86762,20.86691 0.38102,1.36125 0.76124,2.47479 0.84493,2.47452 0.0837,-3e-4 0.77863,-1.85655 1.54432,-4.12501 1.78646,-5.29268 3.92764,-10.82476 6.39416,-16.52036 l 1.95992,-4.52577 -2.72328,-4.28919 c -4.43943,-6.99215 -6.62975,-12.08985 -7.48306,-17.4159 -0.57632,-3.5972 -0.21623,-11.49385 0.7284,-15.97329 0.97403,-4.61883 2.68747,-10.62988 4.91709,-17.25 2.30925,-6.85652 7.94456,-22.20056 8.15253,-22.19802 0.19516,0.002 5.91712,15.94271 7.52463,20.96225 2.56464,8.00823 3.50571,14.5713 3.16684,22.08577 -0.11161,2.475 -0.38403,5.58 -0.60537,6.9 -0.22134,1.32 -0.38399,2.42331 -0.36144,2.4518 0.0226,0.0285 1.67607,-2.40152 3.67449,-5.4 4.33417,-6.50312 9.59861,-13.57459 14.17417,-19.0395 1.83632,-2.19325 3.33876,-4.05387 3.33876,-4.13472 0,-0.0809 -0.70875,0.38065 -1.575,1.02557 -2.37109,1.76528 -2.79266,1.93633 -3.36404,1.36496 -2.46287,-2.46287 -4.20763,-12.45598 -3.52158,-20.16981 1.20771,-13.57921 4.92404,-20.14254 22.65571,-40.01168 3.49148,-3.91236 6.43367,-7.01736 6.5382,-6.9 0.30792,0.3457 1.48285,11.56646 1.67155,15.96339 0.31502,7.34075 -0.75765,15.46873 -2.93494,22.23903 -0.55025,1.71103 -1.96272,5.02796 -3.13881,7.37096 l -2.13835,4.25999 3.47863,-3.22509 c 6.49763,-6.02405 12.39184,-10.96984 18.62863,-15.63115 1.4025,-1.04822 2.64615,-1.98802 2.76366,-2.08846 0.11752,-0.10043 -0.14841,-1.12596 -0.59095,-2.27895 -0.7372,-1.92071 -0.80537,-2.46077 -0.81366,-6.44633 -0.008,-3.74025 0.0896,-4.66539 0.69457,-6.6 2.88636,-9.22994 10.95277,-18.77224 22.85204,-27.03322 5.52248,-3.83395 20.39436,-12.44405 20.39436,-11.80736 0,0.44128 -3.3713,12.14633 -4.4041,15.29058 -2.6191,7.97434 -6.13958,14.61199 -10.37018,19.5525 -1.87801,2.19317 -2.20331,2.61571 -1.87574,2.43654 0.165,-0.0903 3.2025,-1.84603 6.75,-3.90171 6.00622,-3.48047 10.00442,-5.76334 15.64472,-8.9328 l 2.2948,-1.28948 0.8097,-2.48907 c 2.2137,-6.80548 7.0415,-11.91679 14.7077,-15.57165 4.9335,-2.35204 10.3433,-4.06155 22.3431,-7.06055 4.0425,-1.0103 8.7201,-2.23221 10.3947,-2.71535 1.6747,-0.48314 3.3284,-0.87843 3.675,-0.87843 4.3572,0 -14.0272,19.84711 -25.3934,27.41392 -7.2876,4.8515 -13.3827,6.91651 -21.6763,7.34383 l -4.05,0.20867 -4.95,3.45639 c -2.7225,1.90102 -7.3452,5.05965 -10.2726,7.01919 -2.92744,1.95954 -5.28121,3.6042 -5.23062,3.65479 0.0506,0.0506 1.43326,-0.16614 3.0726,-0.48163 11.75812,-2.26286 26.35252,-1.39768 40.08632,2.3764 7.3702,2.02534 17.0443,5.61297 17.0443,6.32084 0,0.55108 -2.3128,0.93814 -7.2,1.20495 -5.9509,0.32489 -12.0678,0.89071 -21,1.94254 -23.6049,2.77964 -35.48042,2.769 -45.5,-0.0408 l -2.74998,-0.77118 -2.35002,1.58092 c -5.58134,3.75471 -15.4141,11.13993 -18.70002,14.04528 l -1.35,1.19364 3.07444,-1.17972 c 10.20234,-3.91483 24.40789,-5.5935 40.88048,-4.83085 6.6131,0.30618 8.9923,0.66644 9.6522,1.46159 0.5506,0.66349 -0.7876,1.6188 -3.9328,2.8074 -7.81548,2.9536 -12.85651,4.99904 -18.77432,7.61784 -8.36362,3.70115 -13.00676,5.48248 -18.7964,7.21123 -8.45053,2.52328 -16.77193,3.89897 -25.89716,4.28131 l -5.09356,0.21341 -4.01867,4.5 c -4.97863,5.57493 -10.41599,12.32459 -14.1706,17.59068 -1.57222,2.20513 -2.96959,4.19371 -3.10527,4.41907 -0.13568,0.22536 0.81583,-0.43461 2.11448,-1.4666 9.96724,-7.9206 23.31807,-14.21568 37.76718,-17.80769 4.08865,-1.01642 12.18812,-2.58139 14.46802,-2.7955 1.62592,-0.15268 1.89521,-0.10456 2.07781,0.3713 0.28322,0.73806 -1.00469,1.84769 -7.77857,6.70182 -3.00699,2.15479 -7.22226,5.33621 -9.36726,7.06982 -2.145,1.73361 -5.4525,4.35054 -7.35,5.81541 -13.9291,10.75325 -36.19918,22.53041 -42.63587,22.54727 l -1.68587,0.004 -2.70951,5.475 c -3.43821,6.94744 -6.02975,12.95981 -8.69612,20.175 -1.85577,5.0217 -3.97263,11.39769 -3.97263,11.96559 0,0.1095 0.59706,-0.94233 1.32681,-2.33742 3.69037,-7.05506 10.75014,-15.32662 17.28226,-20.24872 6.81065,-5.13198 33.5303,-19.22945 36.44656,-19.22945 0.45825,0 0.45318,0.0791 -0.0566,0.88435 -0.30796,0.48639 -1.9852,2.54514 -3.7272,4.575 -4.14891,4.83449 -6.37217,7.66576 -14.08789,17.94065 -13.446,17.9058 -21.88138,26.3031 -34.1839,34.02966 -3.51056,2.20479 -5.20553,2.8848 -5.77385,2.31648 -0.19503,-0.19503 -0.42695,-1.46643 -0.51538,-2.82537 l -0.16077,-2.47077 -0.82098,3.75 c -4.50251,20.56611 -5.81193,43.7601 -3.65828,64.8 3.19495,31.2129 13.3579,60.77316 30.22039,87.9 2.87008,4.61712 7.45787,11.451 7.59521,11.31366 0.0451,-0.0451 -0.25121,-1.22541 -0.65854,-2.62287 -0.40733,-1.39743 -1.13332,-4.43079 -1.61329,-6.74079 -2.47292,-11.90142 -2.4713,-15.6264 0.0121,-27.9 1.22297,-6.04428 3.63897,-15.53412 5.09937,-20.02989 1.25657,-3.86832 4.04497,-10.00197 4.84587,-10.65948 0.42266,-0.34698 0.49687,-0.1347 0.68173,1.95 0.30069,3.39096 1.67328,9.79269 4.26238,19.87962 3.22213,12.55314 5.05896,20.46222 5.95929,25.65975 1.02214,5.90073 1.274,13.00587 0.63273,17.85 -0.88735,6.70308 -2.87144,14.09925 -4.55113,16.96542 -0.75005,1.27986 -1.02107,1.47183 -1.90738,1.35111 -0.63259,-0.0862 -0.16865,0.53055 3.36903,4.47852 5.70907,6.37119 17.95294,18.26646 21.62635,21.01059 0.5881,0.43935 0.5886,0.43464 0.0444,-0.41685 -2.49563,-3.90447 -4.11306,-7.41222 -4.97751,-10.79487 -1.18741,-4.64634 -1.36475,-8.21943 -1.29764,-26.14392 0.0352,-9.405 0.17021,-17.74056 0.3,-18.52347 l 0.23597,-1.4235 2.82672,5.0235 c 4.37108,7.76802 7.9304,13.61022 11.24314,18.45432 5.2537,7.68228 6.74927,10.13895 9.17385,15.06915 3.36125,6.83484 5.18565,11.99943 6.66658,18.87204 0.89558,4.15614 0.97218,12.83166 0.13924,15.76956 l -0.55047,1.94163 0.67771,0.54876 c 0.97487,0.78942 7.55425,4.84304 12.24478,7.54418 4.60436,2.65152 15.60676,8.39607 15.76826,8.2329 0.059,-0.06 -0.703,-1.05408 -1.6941,-2.20908 -3.9674,-4.62357 -8.02504,-11.63526 -10.62951,-18.368 -2.59911,-6.71892 -5.63956,-17.61642 -6.55157,-23.48199 -0.26938,-1.7325 -0.541,-3.39396 -0.60359,-3.69213 -0.0626,-0.29817 -0.008,-0.50067 0.1215,-0.45 0.34405,0.1347 25.15297,22.73601 30.61077,27.88692 5.0905,4.80417 10.2692,10.39232 12.972,13.99742 3.4148,4.55493 5.2418,9.26667 6.0214,15.52917 l 0.3705,2.97639 4.3464,1.27854 c 7.8179,2.29971 25.0055,6.36456 25.3701,6 0.074,-0.0745 -0.592,-0.61833 -1.4811,-1.20861 -8.0939,-5.37408 -19.814,-18.16371 -25.0449,-27.33045 -1.3268,-2.32527 -3.5296,-7.90538 -3.2363,-8.19863 0.058,-0.0575 2.1148,0.82569 4.5716,1.96278 5.5039,2.54726 9.8337,4.20563 19.3311,7.40396 13.9844,4.7094 20.3322,7.7937 26.0859,12.67479 4.3733,3.71001 7.0458,7.39212 10.3628,14.27763 l 2.2278,4.62447 7.4297,0.2232 c 7.0727,0.21246 18.3257,0.0305 22.0738,-0.357 1.2323,-0.12738 1.6504,-0.27393 1.425,-0.49938 -0.1755,-0.1755 -0.3191,-0.88062 -0.3191,-1.56693 0,-2.5179 3.3571,-7.5441 8.9077,-13.33662 7.9533,-8.29986 11.5438,-10.31706 28.5923,-16.06299 8.2269,-2.77278 13.283,-4.71618 19.7785,-7.60217 1.8857,-0.83784 3.4925,-1.45935 3.5707,-1.38117 0.2846,0.28455 -0.9547,4.26374 -2.101,6.74633 -4.1904,9.07521 -16.8034,23.24277 -25.5982,28.75323 -0.825,0.5169 -1.4046,0.94239 -1.2881,0.94554 0.5167,0.0138 9.234,-1.89051 13.7381,-3.00126 4.4684,-1.10193 7.1471,-1.83333 13.2256,-3.61119 l 1.9756,-0.57783 0.5217,-3.22701 c 1.1158,-6.90276 3.4996,-11.86257 9.1206,-18.97701 2.8752,-3.63903 13.9614,-14.7242 20.7565,-20.75459 7.5488,-6.69921 20.2322,-17.61327 20.3415,-17.50389 0.1704,0.17037 -1.4774,9.25434 -2.3416,12.90849 -2.9181,12.33984 -8.7241,24.52739 -15.7207,32.99999 -0.6812,0.825 -1.439,1.76217 -1.6839,2.08263 -0.2526,0.33048 2.3461,-0.8526 6.0047,-2.73375 7.0063,-3.6024 10.9476,-5.83938 17.775,-10.08864 4.3313,-2.69573 4.4251,-2.77631 4.4297,-3.80711 0.01,-2.24577 0.908,-16.14543 1.2005,-18.58284 1.2401,-10.33494 4.0927,-17.42367 10.4145,-25.88073 3.1681,-4.23819 8.3376,-12.41379 13.8787,-21.9495 3.822,-6.57726 4.6841,-7.87863 4.8487,-7.31976 0.1101,0.37383 0.4484,3.37971 0.7516,6.67971 0.8064,8.77584 0.739,21.94533 -0.1463,28.59036 -1.1204,8.40912 -2.9103,15.51513 -4.6199,18.34158 -0.3553,0.58743 -0.8548,1.40556 -1.11,1.81806 -0.4007,0.6477 -0.3009,0.61131 0.7318,-0.26667 3.4906,-2.9679 11.3108,-10.42209 14.7378,-14.04816 6.5632,-6.94452 10.5348,-11.51631 8.6983,-10.01289 -0.3053,0.24993 -0.6205,0.31113 -0.7723,0.15 -0.4769,-0.50637 -2.966,-6.65424 -4.0434,-9.98697 -1.666,-5.15316 -2.1042,-8.1039 -2.0995,-14.13531 0.01,-8.67699 0.8763,-13.2723 6.862,-36.2604 2.1587,-8.29092 3.4653,-14.50287 3.763,-17.89191 0.287,-3.26688 0.6223,-4.34769 1.3487,-4.34769 3.0109,0 9.6515,21.67836 10.9743,35.82591 0.8337,8.91666 -0.3986,21.7674 -2.7398,28.57251 -0.3209,0.93252 -0.5834,1.83816 -0.5834,2.01252 0,0.45816 4.0735,-5.52342 7.3283,-10.76094 16.7229,-26.90967 26.5077,-54.41088 30.1538,-84.75 1.1319,-9.41871 1.3577,-13.52238 1.3539,-24.6 -0.01,-15.55929 -1.0475,-26.26839 -3.9701,-40.8 -0.7368,-3.66375 -0.8289,-3.92124 -0.9652,-2.7 -0.1341,1.2012 -0.2406,1.36035 -0.9662,1.44402 -1.7218,0.19848 -9.7357,-4.61463 -15.8628,-9.52716 -8.5559,-6.85989 -15.0651,-13.51383 -18.1408,-18.54447 -6.389,-10.44958 -11.9428,-17.73838 -19.4853,-25.57239 -5.5171,-5.73028 -5.6271,-6.24056 -0.9609,-4.45841 6.2626,2.3919 18.3921,8.24404 24.0921,11.62379 5.8412,3.4635 12.1133,8.62687 18.0913,14.89335 3.7299,3.90989 6.0413,7.07955 7.8474,10.761 0.8165,1.66434 1.4845,2.8794 1.4845,2.70015 0,-0.58065 -3.7913,-11.55026 -5.485,-15.86988 -2.3962,-6.11164 -4.4444,-10.70689 -7.4546,-16.725 l -2.6635,-5.325 -1.4789,0 c -3.7244,0 -7.3051,-1.21438 -14.9038,-5.05449 -9.3942,-4.74751 -15.849,-8.84074 -26.8649,-17.03608 -3.7405,-2.78268 -10.018,-7.4509 -13.95,-10.37381 -7.4442,-5.53358 -11.5186,-8.82057 -11.7271,-9.46062 -0.5116,-1.5704 15.1727,1.72345 27.6778,5.81258 9.9455,3.25215 17.4687,7.01692 24.4473,12.23389 4.41,3.29678 4.0392,3.04382 3.7456,2.5554 -0.1411,-0.23478 -1.3303,-1.91187 -2.6426,-3.72687 -4.2018,-5.81133 -10.2087,-13.10548 -16.2795,-19.76835 l -1.8846,-2.06835 -5.6466,-0.24756 c -6.5653,-0.28783 -15.1514,-1.38445 -19.4396,-2.48286 -6.4091,-1.64166 -14.5071,-4.54298 -23.5202,-8.42674 -7.6329,-3.28905 -13.5077,-5.69103 -18.4109,-7.52757 -4.3446,-1.6273 -5.9937,-2.45157 -5.8414,-2.91968 0.1988,-0.61074 1.4678,-1.04946 4.1225,-1.42511 3.3506,-0.47414 20.0087,-0.49025 24.9,-0.0241 8.5554,0.81538 16.2751,2.49185 22.8551,4.9634 1.5281,0.57395 2.8057,1.01608 2.8393,0.98251 0.2793,-0.2793 -12.9884,-10.4621 -19.1974,-14.73378 l -3.853,-2.6508 -1.1852,0.66612 c -0.6519,0.36636 -2.2255,0.84629 -3.497,1.0665 -7.6888,1.33166 -27.7814,1.34561 -39.0618,0.0272 -3.5475,-0.41464 -10.2975,-1.10349 -15,-1.53079 -11.5503,-1.04951 -16.8,-1.85437 -16.8,-2.57568 0,-1.09997 14.0917,-5.46287 25.5,-7.89503 7.9057,-1.68541 11.6013,-2.07465 17.85,-1.88 4.916,0.15314 12.6448,1.13856 14.7,1.87426 1.2711,0.455 -0.1388,-0.50596 -5.55,-3.78269 -3.0525,-1.84845 -8.115,-4.94593 -11.25,-6.8833 l -5.7,-3.52248 -2.85,-0.37825 c -3.8391,-0.50953 -9.2541,-1.86421 -12,-3.00208 -2.9233,-1.2114 -7.9374,-3.87054 -10.291,-5.45777 -5.4892,-3.70174 -24.6624,-25.09355 -23.5173,-26.23863 0.3309,-0.33097 3.9856,0.5496 16.8672,4.06404 12.9381,3.52986 15.2088,4.26326 18.8911,6.10137 9.6236,4.80383 16.4345,12.25094 17.6398,19.28754 l 0.3476,2.02926 9.1563,4.53138 c 5.036,2.49226 10.6925,5.23953 12.57,6.10505 3.8884,1.79252 3.9187,2.11342 -0.2662,-2.82102 -2.812,-3.31547 -4.8185,-6.31757 -6.1529,-9.20567 -2.2746,-4.92317 -7.0446,-20.43649 -7.0446,-22.91109 l 0,-0.99726 1.108,0.46298 c 1.9929,0.83268 11.2359,6.19226 14.778,8.56908 9.1728,6.15506 18.2747,14.88699 22.9989,22.06407 1.9835,3.01341 2.6502,4.54437 3.2794,7.53028 0.9618,4.56407 0.4911,12.519 -0.8353,14.11721 -0.2876,0.34653 -0.1855,0.55288 0.5304,1.0718 5.8734,4.25747 15.0418,11.88306 21.2782,17.69766 l 3.5876,3.34497 -0.9843,-1.65 c -3.5694,-5.98396 -5.0792,-10.63713 -5.735,-17.67563 -0.327,-3.50898 -1.2915,-31.23879 -1.0935,-31.43681 0.1851,-0.18502 10.5214,10.83488 14.6679,15.63786 9.7987,11.35021 13.5963,18.46506 15.0647,28.22458 1.3667,9.08234 -0.7053,23.69817 -3.4162,24.0983 -0.4334,0.064 -1.419,-0.45061 -2.8224,-1.47354 -1.186,-0.86452 -1.9539,-1.31885 -1.7064,-1.00963 0.2475,0.30922 1.8008,2.18731 3.4518,4.17355 4.5589,5.48477 9.1628,11.66934 13.6465,18.33187 l 4.0517,6.02055 0.012,-11.12055 c 0.013,-11.55356 0.2138,-14.314 1.3791,-18.92055 0.7802,-3.08448 3.4235,-9.80338 5.665,-14.4 1.9254,-3.94849 3.0638,-5.58199 3.5542,-5.1 0.9023,0.88682 7.3715,18.97234 10.1247,28.30464 3.4069,11.54841 4.2677,17.38337 3.2823,22.25077 -1.5409,7.61166 -5.9653,17.46631 -9.4509,21.05062 l -1.6694,1.71662 1.5299,3.38868 c 2.383,5.27827 5.3256,12.83689 7.4432,19.11893 l 1.9343,5.7384 0.1727,-1.65933 c 0.095,-0.91263 0.2507,-2.43558 0.346,-3.38433 0.5046,-5.02394 4.5265,-13.01316 13.2524,-26.325 5.7968,-8.84338 10.4041,-15.18067 10.6247,-14.61426 0.2502,0.6423 1.636,15.82511 2.0869,22.86426 0.4098,6.39616 0.1679,17.89623 -0.4656,22.14108 -1.7304,11.59359 -5.7074,20.22003 -11.6857,25.34748 -2.0645,1.77066 -5.5808,4.21227 -6.7843,4.71078 -0.6871,0.28458 -0.8631,0.51978 -0.7565,1.01076 0.6859,3.16053 1.8384,14.44905 2.1019,20.5899 0.096,2.2275 0.2497,5.04534 0.3425,6.26187 l 0.1686,2.21187 1.0409,-1.87812 c 1.4407,-2.59938 4.2679,-6.75987 6.1415,-9.03792 3.9019,-4.7442 18.852,-19.25409 25.7151,-24.95799 3.8662,-3.21312 5.0756,-3.98847 5.5233,-3.54081 0.3736,0.37362 0.3595,0.43872 -1.4039,6.4911 -0.4327,1.485 -1.5959,6.75 -2.5849,11.7 -0.989,4.95 -2.2703,10.79484 -2.8474,12.98856 -2.9401,11.17797 -7.8745,21.21717 -13.7087,27.89085 -4.1515,4.74882 -8.6479,8.07612 -15.7037,11.62059 -2.2992,1.155 -4.2317,2.12892 -4.2946,2.16423 -0.063,0.0353 -0.4385,1.99284 -0.835,4.35 -1.295,7.70073 -3.7508,18.6561 -5.3319,23.78577 -0.2543,0.825 -0.4638,1.55235 -0.4656,1.61634 0,0.064 1.1161,-0.9582 2.4841,-2.27157 5.7153,-5.48691 10.4494,-8.69811 27.6627,-18.76389 13.0847,-7.65156 19.95,-11.30349 19.95,-10.61235 0,0.23388 -1.1962,2.83413 -2.6581,5.77836 -5.5147,11.1063 -17.5113,31.86177 -21.6692,37.48998 -5.5037,7.45014 -16.3986,15.16704 -26.9727,19.10484 -3.4328,1.27839 -9.293,3.0654 -10.95,3.33915 l -1.2,0.19821 -2.4975,4.92036 c -2.9326,5.77782 -8.043,14.40693 -12.3147,20.79399 -1.6708,2.49822 -3.0378,4.60854 -3.0378,4.6896 0,0.0811 1.5187,-0.83592 3.375,-2.03775 9.0377,-5.85141 21.9796,-12.02124 30.9145,-14.73789 1.4517,-0.44139 5.6367,-1.46856 9.3,-2.28255 3.6633,-0.81402 9.2097,-2.16729 12.3254,-3.00729 8.7502,-2.35902 10.4653,-2.10297 6.0351,0.90096 -3.2579,2.20902 -7.4361,6.51156 -11.3952,11.7345 -6.313,8.32821 -10.1311,12.26505 -16.6548,17.17269 -4.5883,3.45168 -15.4948,10.50609 -18.8913,12.21915 -3.6256,1.82862 -11.529,4.16877 -18.3087,5.42118 -4.7242,0.8727 -12.8882,1.12674 -15.6,0.48543 l -1.95,-0.46113 -6.15,6.07548 c -7.8935,7.79781 -13.7492,12.91689 -22.2984,19.49316 -2.2816,1.75506 -4.0659,3.19104 -3.965,3.19104 0.1008,0 0.8409,-0.33324 1.6447,-0.74052 2.2005,-1.11507 8.537,-3.59451 11.4187,-4.46805 9.5537,-2.89611 18.8152,-4.42635 33.75,-5.57637 18.8963,-1.45509 30.7086,-1.98234 31.5945,-1.41027 0.3155,0.20373 0.2877,0.37287 -0.139,0.84432 -2.2485,2.48466 -23.6069,15.26243 -36.2722,21.70013 -7.3887,3.75561 -18.2713,7.20918 -27.5833,8.75349 -5.0533,0.83802 -16.0709,0.76293 -21.15,-0.14415 -4.0434,-0.7221 -8.1777,-1.88043 -9.965,-2.79192 -1.7687,-0.90201 -2.205,-2.26902 -1.21,-3.79062 0.2887,-0.44157 0.39,-0.72288 0.225,-0.62514 -0.165,0.0978 -1.1775,0.71097 -2.25,1.36272 -6.3667,3.86883 -19.1146,10.46457 -26.7653,13.8483 -5.2584,2.32563 -13.2089,5.49765 -18.2347,7.27515 -2.2275,0.78783 -3.9509,1.43925 -3.8296,1.44765 0.1212,0.008 2.2137,-0.3843 4.65,-0.87264 9.6419,-1.93269 18.6484,-2.88393 24.5296,-2.59068 4.7502,0.23685 15.2042,1.38738 23.7,2.60829 12.2215,1.75635 34.2779,5.63595 35.849,6.30561 l 0.749,0.31929 -0.6657,0.53907 c -1.7477,1.41522 -30.8618,9.37698 -40.1211,10.97184 -11.7033,2.01582 -29.7773,1.52283 -39.0112,-1.06407 -8.1415,-2.2809 -19.4679,-8.10744 -21.1558,-10.8831 -0.5214,-0.85734 -0.5311,-0.99081 -0.1063,-1.46022 0.403,-0.44532 0.1013,-0.41406 -2.1852,0.22629 -8.3361,2.3346 -21.8864,5.1984 -30.4738,6.44052 -2.5966,0.37557 -4.6891,0.71049 -4.65,0.74424 0.039,0.0338 2.6264,0.69822 5.7495,1.4766 13.9524,3.47745 27.2316,8.59848 36.6611,14.1381 3.4229,2.01087 5.9448,3.15726 10.1793,4.62741 4.1994,1.45791 8.8793,3.45087 13.4812,5.74092 4.4459,2.21247 4.965,2.5653 4.3485,2.95506 -0.4284,0.27081 -2.2981,0.31899 -3.8985,0.10041 z m -141.9,-88.95797 c -19.3997,-0.37542 -23.1411,-1.10451 -27.304,-5.32071 -1.0747,-1.08843 -2.2631,-2.59287 -2.6409,-3.34317 -0.5999,-1.19133 -0.8655,-1.41144 -2.096,-1.73694 -0.775,-0.20499 -1.8237,-0.50235 -2.3304,-0.66078 -0.5067,-0.15846 -1.2075,-0.28809 -1.5573,-0.28809 -0.3498,0 -0.7194,-0.135 -0.8214,-0.3 -0.102,-0.165 -0.4493,-0.3 -0.7718,-0.3 -0.3225,0 -0.8208,-0.11925 -1.1073,-0.26499 -0.2865,-0.14577 -0.9259,-0.44538 -1.4209,-0.66585 -1.545,-0.68808 -3.336,-2.00046 -3.8957,-2.85465 -0.4612,-0.70386 -0.486,-0.97071 -0.1758,-1.89198 1.2433,-3.69237 3.699,-5.72019 9.4715,-7.82118 0.33,-0.12012 1.545,-0.69156 2.7,-1.26987 l 2.1,-1.0515 -0.086,-1.28886 c -0.098,-1.47492 -1.284,-3.31695 -4.0208,-6.24657 -2.1823,-2.33604 -3.2433,-4.73709 -3.2433,-7.33971 0,-1.2858 0.6991,-4.09008 1.3397,-5.37423 0.2532,-0.50754 0.4603,-1.10454 0.4603,-1.32669 0,-0.22215 0.1013,-0.40602 0.225,-0.40857 0.1238,-0.003 0.5554,-0.67758 0.9591,-1.5 0.4037,-0.82245 0.8424,-1.49535 0.975,-1.49535 0.1325,0 0.2409,-0.17703 0.2409,-0.39342 0,-0.21639 0.2388,-0.65514 0.5307,-0.975 0.2918,-0.31986 0.9633,-1.25658 1.4921,-2.08158 0.5288,-0.825 1.0662,-1.64187 1.1943,-1.81527 0.7293,-0.98733 3.033,-5.42442 3.8081,-7.33473 0.9542,-2.35188 1.3531,-4.56291 1.3642,-7.56087 0.014,-3.77181 0.2692,-4.44576 3.6145,-9.53913 3.9923,-6.07833 4.0053,-6.76299 0.1461,-7.70748 -0.825,-0.2019 -2.3679,-0.37281 -3.4287,-0.3798 -2.0997,-0.0138 -3.9213,-0.52233 -3.9213,-1.09464 0,-0.34314 1.1819,-2.79999 1.5,-3.11808 0.2968,-0.29673 1.2405,-1.96098 1.4035,-2.475 0.092,-0.28875 0.2858,-0.525 0.4315,-0.525 0.1458,0 0.265,-0.14442 0.265,-0.32094 0,-0.17652 0.405,-0.9096 0.9,-1.62906 0.495,-0.71946 0.9,-1.39446 0.9,-1.5 0,-0.10554 0.405,-0.78054 0.9,-1.5 0.495,-0.71946 0.9,-1.39446 0.9,-1.5 0,-0.10554 0.3888,-0.7569 0.8639,-1.44744 0.4751,-0.69057 1.1501,-1.76112 1.5,-2.37906 0.3499,-0.61791 0.9269,-1.62975 1.2823,-2.2485 0.3554,-0.61875 0.9292,-1.665 1.275,-2.325 0.3459,-0.66 0.6991,-1.2675 0.7849,-1.35 0.2681,-0.25776 2.8818,-5.81718 3.667,-7.8 0.1633,-0.4125 0.4162,-0.98442 0.5619,-1.27092 0.1458,-0.28653 0.265,-0.7848 0.265,-1.1073 0,-0.3225 0.1189,-0.65985 0.2642,-0.74964 0.1453,-0.0898 0.3384,-0.46902 0.4291,-0.8427 0.091,-0.37371 0.3184,-1.21944 0.5058,-1.87944 1.6201,-5.70411 2.2318,-10.24647 2.2423,-16.65 0.01,-5.82093 -0.3801,-9.41127 -1.6442,-15.15 -0.1818,-0.825 -0.4054,-1.94001 -0.497,-2.47779 -0.092,-0.53778 -0.2866,-1.05198 -0.4333,-1.1427 -0.1468,-0.0907 -0.2669,-0.49629 -0.2669,-0.90129 0,-0.405 -0.1218,-0.97077 -0.2707,-1.2573 -0.1489,-0.2865 -0.4321,-1.12842 -0.6293,-1.87092 -0.1971,-0.7425 -0.4803,-1.58442 -0.6292,-1.87092 -0.1489,-0.28653 -0.2708,-0.76578 -0.2708,-1.065 0,-0.29925 -0.1115,-0.67233 -0.2478,-0.82908 -0.1363,-0.15675 -0.4306,-0.8925 -0.654,-1.635 -0.2235,-0.7425 -0.4888,-1.485 -0.5896,-1.65 -0.1009,-0.165 -0.3555,-0.84 -0.5658,-1.5 -0.2103,-0.66 -0.5266,-1.5375 -0.7027,-1.95 -0.1762,-0.4125 -0.4192,-1.02 -0.5401,-1.35 -0.1208,-0.33 -0.3908,-1.005 -0.6,-1.5 -0.2091,-0.495 -0.4972,-1.20375 -0.6401,-1.575 -0.1429,-0.37125 -0.3949,-1.0125 -0.5599,-1.425 -0.165,-0.4125 -0.435,-1.0875 -0.6,-1.5 -0.165,-0.4125 -0.453,-1.12125 -0.6401,-1.575 -0.1871,-0.45375 -0.439,-1.095 -0.5599,-1.425 -0.3047,-0.8322 -0.7325,-1.85706 -1.4701,-3.52173 -0.3464,-0.78195 -0.6299,-1.53285 -0.6299,-1.66866 0,-0.13581 -0.27,-0.80574 -0.6,-1.48878 -0.33,-0.68301 -0.6,-1.38519 -0.6,-1.56042 0,-0.1752 -0.1192,-0.55296 -0.265,-0.83949 -0.2479,-0.48744 -0.5008,-1.08543 -1.235,-2.92092 -0.165,-0.4125 -0.4261,-1.05375 -0.5801,-1.425 -0.1541,-0.37125 -0.4517,-1.215 -0.6613,-1.875 -0.2096,-0.66 -0.4885,-1.32825 -0.6198,-1.485 -0.1313,-0.15675 -0.2388,-0.58752 -0.2388,-0.9573 0,-0.36975 -0.135,-0.75573 -0.3,-0.8577 -0.165,-0.10197 -0.3,-0.50697 -0.3,-0.9 0,-0.39303 -0.135,-0.79803 -0.3,-0.9 -0.165,-0.10197 -0.3,-0.44928 -0.3,-0.77178 0,-0.3225 -0.1218,-0.82077 -0.2707,-1.1073 -0.1489,-0.2865 -0.4321,-1.12842 -0.6293,-1.87092 -0.1971,-0.7425 -0.4803,-1.58442 -0.6292,-1.87092 -0.1489,-0.28653 -0.2708,-0.8523 -0.2708,-1.2573 0,-0.405 -0.1201,-0.8106 -0.2668,-0.90129 -0.1468,-0.0907 -0.3395,-0.60492 -0.4284,-1.1427 -0.089,-0.53778 -0.2925,-1.51779 -0.4528,-2.17779 -2.4447,-10.06671 -3.5162,-21.87137 -2.6278,-28.95 0.441,-3.51403 0.6204,-4.55047 1.3758,-7.95 0.165,-0.7425 0.4422,-1.99125 0.6159,-2.775 0.6879,-3.10289 0.9184,-4.87083 1.0806,-8.29036 0.1652,-3.48389 0.1925,-3.59603 1.1937,-4.90763 0.5635,-0.73825 1.2759,-1.90133 1.583,-2.58464 0.3072,-0.6833 0.8568,-1.91737 1.2214,-2.74237 1.2776,-2.89074 2.3207,-4.80616 2.8616,-5.25516 0.6597,-0.54746 0.5836,-4.26532 -0.1324,-6.47029 -0.7805,-2.40354 -1.0078,-4.23748 -0.7035,-5.67455 0.2058,-0.9715 0.3946,-1.21446 0.9919,-1.27597 1.7327,-0.17843 5.8001,-1.09097 7.0378,-1.57897 0.33,-0.13011 1.41,-0.54794 2.4,-0.92851 2.518,-0.96794 7.3443,-3.48792 9.1964,-4.80167 0.4379,-0.31068 0.9442,-0.56488 1.125,-0.56488 0.1807,0 0.3286,-0.135 0.3286,-0.3 0,-0.165 0.1445,-0.3 0.321,-0.3 0.1765,0 0.8853,-0.38357 1.575,-0.85237 1.9699,-1.33893 7.2256,-4.1525 9.129,-4.88712 0.3713,-0.14328 0.9788,-0.38327 1.35,-0.5333 3.5389,-1.43022 6.0749,-1.86535 11.8252,-2.02895 l 4.8502,-0.13799 0.9236,1.93522 c 1.5956,3.34325 4.7601,7.22279 6.9438,8.5127 0.4852,0.28665 0.8822,0.62707 0.8822,0.7565 0,0.12942 0.1771,0.23531 0.3935,0.23531 0.2164,0 0.6551,0.23716 0.975,0.52702 0.5291,0.47949 3.7988,2.16315 5.4565,2.80971 0.3713,0.1448 0.9788,0.38935 1.35,0.54344 0.3713,0.1541 1.215,0.4428 1.875,0.64157 0.66,0.19877 1.47,0.46231 1.8,0.58564 0.843,0.31504 4.6773,1.31736 6.3,1.64689 5.5554,1.12812 9.3995,1.82212 12.525,2.26123 1.1138,0.15648 3.0038,0.4213 4.2,0.58849 1.1963,0.16719 3.39,0.43799 4.875,0.60177 11.8706,1.30923 16.6247,1.96959 21.45,2.97947 0.7425,0.15539 1.755,0.36745 2.25,0.47125 0.495,0.10379 1.17,0.29484 1.5,0.42455 0.33,0.12971 1.14,0.39912 1.8,0.59868 1.866,0.56423 4.8846,2.13709 5.7465,2.99427 0.9421,0.93694 3.7035,4.97262 3.7035,5.41248 0,0.17245 0.135,0.31354 0.3,0.31354 0.165,0 0.3,0.1411 0.3,0.31355 0,0.29473 2.8867,4.76209 3.2867,5.08645 0.5421,0.43957 3.9503,4.84759 4.4874,5.80375 0.8525,1.51784 0.8465,4.12438 -0.014,5.9149 -0.3518,0.73225 -0.723,1.39885 -0.825,1.48135 -0.102,0.0825 -0.3319,0.41478 -0.5109,0.73839 -0.8043,1.45452 -4.812,2.46214 -8.5414,2.14747 -1.2283,-0.10363 -4.6827,-0.27152 -7.6766,-0.37308 -5.2671,-0.17868 -5.4495,-0.16518 -5.6342,0.41681 -0.2299,0.72414 0.3368,2.11417 1.1707,2.87189 1.6745,1.52155 2.5089,1.57023 15.7636,0.91986 3.1729,-0.15569 3.5003,-0.12138 3.9885,0.41807 0.4714,0.52088 0.4903,0.75378 0.167,2.04913 -0.5818,2.33117 -1.3075,3.3645 -4.7133,6.71146 -1.763,1.7325 -3.4074,3.555 -3.6542,4.05 -0.7806,1.56526 -2.2132,3.89609 -2.4586,4 -0.1298,0.055 -0.2361,0.22221 -0.2361,0.37157 0,0.70619 -2.2549,2.88804 -3.5616,3.44628 -2.6693,1.14027 -4.6234,0.17304 -9.6242,-4.76395 -2.0703,-2.0439 -4.1692,-3.98077 -4.6642,-4.30414 -1.3969,-0.91259 -5.4556,-1.90466 -7.7479,-1.89386 -1.6874,0.008 -7.2633,1.06657 -7.8521,1.49075 -0.165,0.11888 -0.9412,0.40023 -1.725,0.62524 -0.7837,0.22501 -1.425,0.51463 -1.425,0.64361 0,0.12897 -0.1897,0.2345 -0.4216,0.2345 -0.2319,0 -0.9407,0.25461 -1.575,0.56581 -2.0713,1.01611 -7.0152,3.27845 -8.6534,3.95974 -0.33,0.13725 -1.6125,0.58333 -2.85,0.99129 l -2.25,0.74176 0.08,1.2957 c 0.088,1.42005 0.3624,2.28708 1.4856,4.6872 0.6344,1.35576 2.4583,4.06881 3.0644,4.5585 0.1022,0.0825 0.9247,1.0275 1.8279,2.1 0.9032,1.0725 1.7198,2.0175 1.8147,2.1 0.4239,0.36864 2.604,3.84195 2.945,4.69203 0.4246,1.05831 7.9474,8.49411 10.1638,10.04625 0.3748,0.26244 1.1891,0.93492 1.8097,1.49445 0.6205,0.5595 2.0014,1.75623 3.0686,2.65941 1.0672,0.90318 2.0078,1.71504 2.0903,1.80414 0.082,0.0891 0.8925,0.76518 1.8,1.5024 0.9075,0.73725 1.8525,1.54539 2.1,1.79592 0.2475,0.2505 1.2589,1.13043 2.2475,1.95543 1.9732,1.64655 11.2122,10.76898 12.6199,12.46062 2.2122,2.65851 4.6326,5.94585 4.6326,6.29196 0,0.16356 0.11,0.29739 0.2444,0.29739 0.1343,0 0.5186,0.50625 0.8538,1.125 0.9257,1.70886 1.9407,3.4899 2.1797,3.825 0.1178,0.165 0.3825,0.9075 0.5884,1.65 0.2059,0.7425 0.5002,1.76457 0.6541,2.2713 0.1538,0.5067 0.2796,1.23963 0.2796,1.6287 0,0.38907 0.1259,1.122 0.2797,1.6287 0.1538,0.50673 0.4395,1.5288 0.6348,2.2713 0.5224,1.98627 1.4012,3.72531 3.411,6.75 2.2685,3.41409 2.5743,4.28712 3.0456,8.69355 0.3218,3.00804 0.3145,4.25445 -0.045,7.65 -0.4391,4.15143 -0.7984,6.62118 -1.3105,9.00645 -0.1594,0.7425 -0.4426,2.0925 -0.6293,3 -0.1866,0.9075 -0.4687,2.2575 -0.6268,3 -0.8402,3.94716 -1.4066,7.38033 -1.7322,10.5 -0.2946,2.82342 -0.5881,4.2 -0.8954,4.2 -0.1116,0 -0.4392,0.40008 -0.728,0.88908 -0.2889,0.489 -0.6957,1.06275 -0.904,1.275 -0.2083,0.21225 -0.8393,1.06092 -1.4022,1.88592 -0.9124,1.33716 -2.391,3.36723 -3.3926,4.65801 -0.1955,0.25191 -0.9558,1.33191 -1.6896,2.4 -0.7338,1.06809 -1.4153,2.00949 -1.5144,2.09199 -0.099,0.0825 -0.5048,0.6225 -0.9014,1.2 -0.3966,0.5775 -0.8016,1.1175 -0.9,1.2 -0.098,0.0825 -0.5062,0.6225 -0.9063,1.2 -0.4001,0.5775 -0.9673,1.31172 -1.2605,1.63158 -1.3568,1.47996 -0.2325,3.95667 3.6897,8.12799 l 2.9427,3.12963 0.1356,3.6804 c 0.1452,3.9414 0.4036,5.83614 0.8319,6.10089 0.1468,0.0907 0.2681,0.39321 0.2695,0.67221 0,0.64164 2.6775,5.93421 3.8858,7.69041 0.5014,0.72876 0.9116,1.46943 0.9116,1.64595 0,0.17652 0.135,0.32094 0.3,0.32094 0.165,0 0.3,0.14442 0.3,0.32094 0,0.17652 0.3854,0.88527 0.8564,1.575 0.8276,1.21185 2.3423,4.06068 2.9795,5.60406 1.5594,3.77655 1.9446,7.23489 1.1429,10.26036 -0.6802,2.56695 -0.9229,2.9844 -3.001,5.16315 -1.0878,1.14045 -1.9778,2.2542 -1.9778,2.475 0,0.22083 -0.1134,0.40149 -0.252,0.40149 -0.1386,0 -0.4307,0.54138 -0.649,1.20309 -0.3335,1.01058 -0.3302,1.33461 0.021,2.025 0.4882,0.95949 2.5308,3.05574 3.5048,3.59691 0.3713,0.20625 0.9113,0.50454 1.2,0.66291 0.2888,0.15834 1.47,0.72411 2.625,1.2573 3.0024,1.38597 4.2759,2.28891 5.2739,3.73953 0.8778,1.27578 1.1385,2.61768 0.5761,2.96526 -0.165,0.10197 -0.3,0.39909 -0.3,0.66024 0,1.31625 -4.2369,3.68976 -6.5865,3.68976 -0.6661,0 -1.0667,0.0889 -4.3219,0.95982 -2.3826,0.63744 -3.7421,2.05095 -4.9916,5.19018 -0.8285,2.08137 -1.3561,2.994 -2.1941,3.79482 l -0.9472,0.90516 -8.7043,-0.21255 c -4.7874,-0.11691 -8.7942,-0.26406 -8.904,-0.327 -0.259,-0.14853 -31.1879,0.41862 -43.6004,0.79947 -12.6037,0.38676 -31.6572,0.4893 -44.55,0.23979 z m 257.1175,-86.72469 c -3.0417,-2.96298 -6.4418,-8.60862 -9.7112,-16.125 -3.2606,-7.49631 -3.9053,-10.60542 -5.2877,-25.5 -1.8202,-19.61307 -2.8493,-38.09841 -2.1452,-38.53356 1.1394,-0.70422 15.8812,21.1404 21.5989,32.00562 3.9887,7.57977 5.6773,15.92355 5.3282,26.32794 -0.2748,8.19087 -1.3492,12.47217 -4.7333,18.85998 -2.0297,3.83133 -2.6404,4.84002 -2.9305,4.84002 -0.1069,0 -1.0605,-0.84375 -2.1192,-1.875 z m -436.58485,0.45 c -0.65742,-0.74979 -1.30162,-2.0898 -2.81522,-5.856 -2.51242,-6.25146 -3.48163,-11.4723 -3.46576,-18.669 0.0208,-9.44745 1.96164,-17.52864 6.07836,-25.3092 6.71486,-12.69102 19.17318,-30.51585 20.67831,-29.58564 0.28551,0.17646 0.26782,0.84846 -0.31978,12.14484 -0.79673,15.31677 -2.80368,35.6661 -4.20574,42.64371 -1.18662,5.90547 -5.93962,15.88071 -10.01656,21.02205 -1.5443,1.94748 -4.16081,4.13424 -4.94672,4.13424 -0.28961,0 -0.73371,-0.23625 -0.98689,-0.525 z m -13.73692,-59.78295 c -0.83521,-1.5606 -1.5449,-5.99949 -1.70145,-10.64205 -0.19021,-5.64087 0.36489,-9.66213 2.15343,-15.6 4.43786,-14.73354 9.27514,-21.82032 23.55227,-34.50492 7.55914,-6.71598 14.96467,-12.88041 15.19587,-12.6492 0.1856,0.18558 -2.36508,8.12796 -5.70171,17.75412 -7.10006,20.48367 -10.2806,28.29672 -13.39534,32.90586 -5.54594,8.20683 -18.11149,23.34414 -19.37807,23.34414 -0.2198,0 -0.54605,-0.27357 -0.725,-0.60795 z m 465.12427,-1.14501 c -1.2766,-0.93063 -6.8462,-7.01424 -9.8418,-10.75011 -7.8084,-9.7377 -13.9964,-22.11858 -21.0075,-42.03195 -2.7588,-7.83558 -6.8563,-20.47938 -6.6905,-20.64516 0.067,-0.067 1.3251,0.97941 2.7958,2.32533 1.4707,1.34589 6.6565,6.02829 11.524,10.40529 14.029,12.61536 16.6477,15.51159 19.7957,21.8937 6.2316,12.63384 9.2846,32.24328 5.9923,38.48904 -0.731,1.38687 -1.0437,1.42509 -2.568,0.31386 z"
            id="path4149"
            inkscape:connector-curvature="0"/>
    </g>
</svg>
