<?xml version="1.0" standalone="no"?>
<!DOCTYPE svg PUBLIC "-//W3C//DTD SVG 20010904//EN"
 "http://www.w3.org/TR/2001/REC-SVG-20010904/DTD/svg10.dtd">
<svg version="1.0" xmlns="http://www.w3.org/2000/svg"
 width="700.000000pt" height="700.000000pt" viewBox="0 0 700.000000 700.000000"
 preserveAspectRatio="xMidYMid meet">
<metadata>
Created by potrace 1.14, written by Peter Selinger 2001-2017
</metadata>
<g transform="translate(0.000000,700.000000) scale(0.100000,-0.100000)"
fill="#000000" stroke="none">
<path d="M3368 6993 c12 -2 30 -2 40 0 9 3 -1 5 -23 4 -22 0 -30 -2 -17 -4z"/>
<path d="M3448 6993 c7 -3 16 -2 19 1 4 3 -2 6 -13 5 -11 0 -14 -3 -6 -6z"/>
<path d="M3538 6993 c7 -3 16 -2 19 1 4 3 -2 6 -13 5 -11 0 -14 -3 -6 -6z"/>
<path d="M3598 6993 c12 -2 30 -2 40 0 9 3 -1 5 -23 4 -22 0 -30 -2 -17 -4z"/>
<path d="M3380 6784 c-1014 -50 -1992 -619 -2599 -1514 -485 -715 -665 -1535
-511 -2334 250 -1294 1372 -2416 2666 -2666 266 -51 625 -68 859 -41 974 115
1847 656 2427 1506 480 703 661 1533 508 2329 -250 1295 -1371 2416 -2666
2666 -206 39 -500 63 -684 54z m325 -1539 l200 -876 55 -31 c165 -92 297 -237
384 -419 61 -126 86 -227 93 -376 l6 -122 625 -578 c343 -318 645 -597 671
-620 l46 -42 -45 14 c-25 8 -412 127 -860 264 -448 137 -819 250 -825 252 -5
2 -28 -8 -50 -23 -73 -47 -163 -87 -252 -115 -80 -24 -102 -27 -253 -27 -151
0 -173 3 -253 27 -90 28 -194 76 -259 120 l-37 26 -838 -260 c-461 -142 -851
-264 -868 -269 -29 -9 -29 -9 11 28 22 20 324 299 671 619 l630 583 6 122 c7
146 31 250 87 366 93 195 221 335 395 433 33 19 60 39 61 44 4 34 390 1735
394 1735 3 0 95 -394 205 -875z m-1750 -649 c385 -118 740 -226 788 -241 l89
-27 -71 -70 c-145 -142 -238 -305 -289 -507 l-19 -73 -544 503 c-679 627 -695
642 -673 635 11 -3 334 -102 719 -220z m3805 200 c-14 -13 -291 -271 -616
-574 l-591 -550 -26 99 c-48 183 -133 333 -269 474 l-77 81 792 246 c436 136
796 247 802 247 5 1 -2 -10 -15 -23z m-2465 -2333 c144 -32 393 -18 536 31 24
8 44 14 44 13 3 -4 -369 -1636 -372 -1633 -4 4 -373 1608 -373 1622 0 9 13 8
48 -2 26 -8 79 -22 117 -31z"/>
<path d="M3 3605 c0 -27 2 -38 4 -22 2 15 2 37 0 50 -2 12 -4 0 -4 -28z"/>
<path d="M6993 3595 c0 -27 2 -38 4 -22 2 15 2 37 0 50 -2 12 -4 0 -4 -28z"/>
<path d="M6993 3405 c0 -27 2 -38 4 -22 2 15 2 37 0 50 -2 12 -4 0 -4 -28z"/>
<path d="M3 3395 c0 -27 2 -38 4 -22 2 15 2 37 0 50 -2 12 -4 0 -4 -28z"/>
<path d="M3378 3 c12 -2 30 -2 40 0 9 3 -1 5 -23 4 -22 0 -30 -2 -17 -4z"/>
<path d="M3448 3 c7 -3 16 -2 19 1 4 3 -2 6 -13 5 -11 0 -14 -3 -6 -6z"/>
<path d="M3538 3 c7 -3 16 -2 19 1 4 3 -2 6 -13 5 -11 0 -14 -3 -6 -6z"/>
<path d="M3588 3 c12 -2 30 -2 40 0 9 3 -1 5 -23 4 -22 0 -30 -2 -17 -4z"/>
</g>
</svg>
