<?xml version="1.0" encoding="UTF-8" standalone="no"?>
<svg
   xmlns:dc="http://purl.org/dc/elements/1.1/"
   xmlns:cc="http://creativecommons.org/ns#"
   xmlns:rdf="http://www.w3.org/1999/02/22-rdf-syntax-ns#"
   xmlns:svg="http://www.w3.org/2000/svg"
   xmlns="http://www.w3.org/2000/svg"
   xmlns:sodipodi="http://sodipodi.sourceforge.net/DTD/sodipodi-0.dtd"
   xmlns:inkscape="http://www.inkscape.org/namespaces/inkscape"
   class=""
   app-context="doc-2d"
   x="0px"
   y="0px"
   width="267"
   height="52.060001"
   jvs-fullPath="_new_1509131146673/Untitled"
   id="svg2"
   version="1.1"
   inkscape:version="0.91 r13725"
   sodipodi:docname="bugsnag-logo.svg">
  <metadata
     id="metadata24">
    <rdf:RDF>
      <cc:Work
         rdf:about="">
        <dc:format>image/svg+xml</dc:format>
        <dc:type
           rdf:resource="http://purl.org/dc/dcmitype/StillImage" />
        <dc:title></dc:title>
      </cc:Work>
    </rdf:RDF>
  </metadata>
  <sodipodi:namedview
     pagecolor="#ffffff"
     bordercolor="#666666"
     borderopacity="1"
     objecttolerance="10"
     gridtolerance="10"
     guidetolerance="10"
     inkscape:pageopacity="0"
     inkscape:pageshadow="2"
     inkscape:window-width="1366"
     inkscape:window-height="705"
     id="namedview22"
     showgrid="false"
     inkscape:zoom="2.2425739"
     inkscape:cx="91.218669"
     inkscape:cy="26.61009"
     inkscape:window-x="-8"
     inkscape:window-y="-8"
     inkscape:window-maximized="1"
     inkscape:current-layer="svg2"
     fit-margin-top="0"
     fit-margin-left="0"
     fit-margin-right="0"
     fit-margin-bottom="0" />
  <desc
     id="desc6" />
  <defs
     id="defs8">
    <style
       id="style10">.cls-1{fill:#383838;}</style>
  </defs>
  <g
     id="jvs-guides"
     transform="translate(-25.52,-25.4)" />
  <g
     id="jvs-content"
     style="enable-background:new"
     transform="translate(-25.52,-25.4)">
    <g
       name="Layer"
       jvs-layer-color="#fb0094"
       class="jvs-layer selected"
       id="g14">
      <title
         id="title16">Grey</title>
      <path
         d="m 117.58,52.13 c 0,8.14 -5.65,14.27 -13.13,14.27 -3.1385,0.126351 -6.151071,-1.242662 -8.12,-3.69 l 0,3 -7.13,0 0,-40.31 7.28,0 0,16 c 1.950013,-2.360164 4.89097,-3.673419 7.95,-3.55 7.5,0 13.15,6.15 13.15,14.28 z m -21.47,0 c 0,4.28 2.83,7.47 7,7.47 4.31,0 7,-3.33 7,-7.47 0,-4.14 -2.69,-7.47 -7,-7.47 -4.17,-0.01 -6.99,3.18 -6.99,7.47 z m 49.51,2 c 0,8.56 -6,12.26 -12.82,12.26 -6.82,0 -12.8,-3.68 -12.8,-12.25 l 0,-15.56 7.3,0 0,14.92 c 0,4.34 2.38,6.1 5.54,6.1 3.16,0 5.54,-1.76 5.54,-6.1 l 0,-14.92 7.28,0 z m 23.3,-12.53 0,-3 7.17,0 0,24.86 c 0,8.7 -5.68,14 -14.64,14 -4.28,0 -8.82,-1.12 -11.87,-3.28 l 2.6,-6 c 2.65424,1.805237 5.79004,2.77038 9,2.77 4.53,0 7.72,-2.52 7.72,-7.19 l 0,-1.9 c -2.05163,2.462208 -5.1386,3.82062 -8.34,3.67 C 153.92,65.53 148,60 148,51.71 c 0,-8.29 5.88,-13.85 12.48,-13.85 3.24638,-0.157659 6.37609,1.229204 8.44,3.74 z m -13.38,10.1 c 0,3.92 2.66,7.11 6.83,7.11 4.17,0 6.8,-3.08 6.8,-7.11 0,-4.03 -2.74,-7.14 -6.8,-7.14 -4.06,0 -6.83,3.2 -6.83,7.15 z m 44.31,-5.57 c -2.7005,-1.324155 -5.64529,-2.076524 -8.65,-2.21 -2.77,0 -4.17,1 -4.17,2.46 0,1.46 2,2 4.42,2.32 l 2.41,0.36 c 5.88,0.9 9.15,3.53 9.15,8.12 0,5.6 -4.59,9.21 -12.46,9.21 -3.69,0 -8.54,-0.7 -12.06,-3.19 l 2.88,-5.54 c 2.73111,1.820229 5.95912,2.749506 9.24,2.66 3.39,0 5,-1 5,-2.55 0,-1.31 -1.37,-2 -4.51,-2.49 L 188.9,55 c -6.27,-0.87 -9.38,-3.61 -9.38,-8.23 0,-5.57 4.31,-8.87 11.45,-8.87 3.92978,-0.06933 7.81769,0.816006 11.33,2.58 z m 31.21,2.29 0,17.28 -7.31,0 0,-14.92 c 0,-3.92 -2,-6.07 -5.29,-6.07 -3.14,0 -5.74,2 -5.74,6.13 l 0,14.86 -7.3,0 0,-27.12 7.11,0 0,3.19 c 1.79968,-2.613425 4.83192,-4.099222 8,-3.92 6.13,0 10.52,4.28 10.52,10.58 z m 30.78,17.28 -7.14,0 0,-3 c -1.97787,2.435782 -4.98432,3.802012 -8.12,3.69 -7.47,0 -13.13,-6.13 -13.13,-14.27 0,-8.14 5.65,-14.27 13.13,-14.27 3.14306,-0.115925 6.1552,1.264024 8.12,3.72 l 0,-3 7.14,0 z M 240.93,52.13 c 0,4.14 2.71,7.47 7,7.47 4.29,0 7,-3.19 7,-7.47 0,-4.28 -2.83,-7.47 -7,-7.47 -4.17,0 -7,3.34 -7,7.47 z m 44.42,-10.53 0,-3 7.17,0 0,24.86 c 0,8.7 -5.68,14 -14.64,14 -4.28,0 -8.82,-1.12 -11.87,-3.28 l 2.6,-6 c 2.65424,1.805237 5.79004,2.77038 9,2.77 4.53,0 7.72,-2.52 7.72,-7.19 l 0,-1.9 c -2.04947,2.45933 -5.13205,3.817439 -8.33,3.67 -6.61,0 -12.48,-5.51 -12.48,-13.83 0,-8.32 5.83,-13.85 12.48,-13.85 3.21698,-0.126481 6.30743,1.261445 8.35,3.75 z M 272,51.71 c 0,3.92 2.66,7.11 6.83,7.11 4.17,0 6.8,-3.08 6.8,-7.11 0,-4.03 -2.74,-7.14 -6.8,-7.14 -4.06,0 -6.83,3.19 -6.83,7.14 z"
         id="path18"
         style="fill:#252734;fill-opacity:1"
         inkscape:connector-curvature="0" />
      <path
         class="cls-1"
         d="m 58.76,65.77 0,0 -10.24,0 C 48.534689,56.928846 44.648803,48.531381 37.9,42.82 L 44.53,35 c 9.042069,7.661483 14.248048,18.918544 14.23,30.77 z M 52.92,40.52 c 5.373089,7.328711 8.263671,16.182652 8.25,25.27 l 10.22,0 C 71.408145,54.530716 67.827269,43.56034 61.17,34.48 Z m -27.4,9.3 c 6.312823,2.814586 10.371057,9.088186 10.35,16 l 10.24,0 c 3e-4,-10.93511 -6.432636,-20.847002 -16.42,-25.3 z"
         id="path20"
         style="fill:#4697cc;fill-opacity:1"
         inkscape:connector-curvature="0" />
    </g>
  </g>
</svg>
