<svg id="eddb-white" xmlns="http://www.w3.org/2000/svg" viewBox="0 0 700 248"><title>eddb-white</title><path d="M138.06,200.63q3.91,0,5.87,1.6a13.48,13.48,0,0,1,3,3.38,8.82,8.82,0,0,1,1.42,5V238A9.23,9.23,0,0,1,146.6,244a9.36,9.36,0,0,1-3.56,2.84,7.12,7.12,0,0,1-5,1.07H10a9.9,9.9,0,0,1-6-1.6A8.17,8.17,0,0,1,1.14,243a7.12,7.12,0,0,1-1.07-5V76.5q0-3.9,1.6-5.69A14.93,14.93,0,0,1,5.05,68a15.39,15.39,0,0,1,5-1.42h128q3.91,0,5.87,1.6a13.31,13.31,0,0,1,3,3.38,8.81,8.81,0,0,1,1.42,5v97.81a9.25,9.25,0,0,1-1.78,6.05A9.36,9.36,0,0,1,143,183.2a7.07,7.07,0,0,1-5,1.07H82.23V128.43a16,16,0,0,0,6.22-6.05,16.45,16.45,0,0,0,2.31-8.53A16.4,16.4,0,0,0,74.05,97.13a15.75,15.75,0,0,0-11.56,4.8,16.19,16.19,0,0,0-4.8,11.92q0,10,8.53,14.58v72.2ZM183.94,238V76.5a7.11,7.11,0,0,1,1.07-5,8.06,8.06,0,0,1,2.85-3.38,9.87,9.87,0,0,1,6-1.6h45.88a15.39,15.39,0,0,1,5,1.42,19.16,19.16,0,0,1,3.56,2.84c1.18,1.19,1.78,3.09,1.78,5.69V186.05q-8.55,4.62-8.54,14.58A16.39,16.39,0,0,0,257.92,217a16.17,16.17,0,0,0,11.91-4.8,15.74,15.74,0,0,0,4.81-11.56,16,16,0,0,0-8.54-14.58V10.31a7.09,7.09,0,0,1,1.07-5A9.41,9.41,0,0,1,270,1.78,9.17,9.17,0,0,1,276.06,0h45.88a8.86,8.86,0,0,1,5,1.42,16.16,16.16,0,0,1,3.55,3c1.19,1.3,1.78,3.26,1.78,5.86V238a8.82,8.82,0,0,1-1.42,5,13.24,13.24,0,0,1-3,3.38q-2,1.6-5.87,1.6h-128a7.13,7.13,0,0,1-5-1.07,8.17,8.17,0,0,1-3.38-2.84A10,10,0,0,1,183.94,238Zm183.88,0V76.5a7.05,7.05,0,0,1,1.06-5,8.21,8.21,0,0,1,2.85-3.38,9.88,9.88,0,0,1,6-1.6h45.88a15.4,15.4,0,0,1,5,1.42,18.84,18.84,0,0,1,3.56,2.84C433.37,72,434,73.9,434,76.5V186.05q-8.54,4.62-8.54,14.58A16.41,16.41,0,0,0,441.79,217a16.19,16.19,0,0,0,11.92-4.8,15.77,15.77,0,0,0,4.8-11.56,16.25,16.25,0,0,0-2.31-8.72,16.48,16.48,0,0,0-6.23-5.86V10.31a7.09,7.09,0,0,1,1.07-5,9.35,9.35,0,0,1,2.85-3.55,9.14,9.14,0,0,1,6-1.78h45.88a8.82,8.82,0,0,1,5,1.42,16.19,16.19,0,0,1,3.56,3c1.18,1.3,1.78,3.26,1.78,5.86V238a8.75,8.75,0,0,1-1.43,5,13.24,13.24,0,0,1-3,3.38c-1.31,1.07-3.26,1.6-5.87,1.6h-128a7.12,7.12,0,0,1-5-1.07,8.1,8.1,0,0,1-3.38-2.84A9.9,9.9,0,0,1,367.82,238ZM700,238a9.17,9.17,0,0,1-1.78,6.05,9.41,9.41,0,0,1-3.55,2.84,7.15,7.15,0,0,1-5,1.07h-128a9.92,9.92,0,0,1-6-1.6,8.17,8.17,0,0,1-2.84-3.38,7.12,7.12,0,0,1-1.07-5V10.31c0-2.6.54-4.56,1.6-5.86a13.1,13.1,0,0,1,3.38-3,8.82,8.82,0,0,1,5-1.42h45.88c2.61,0,4.56.59,5.87,1.78a16.37,16.37,0,0,1,3,3.55,8.79,8.79,0,0,1,1.42,5V186.05q-8.54,4.62-8.53,14.58a16.08,16.08,0,0,0,4.62,11.56,15.59,15.59,0,0,0,11.74,4.8,16.17,16.17,0,0,0,11.91-4.8,15.77,15.77,0,0,0,4.8-11.56,16.25,16.25,0,0,0-2.31-8.72,16.45,16.45,0,0,0-6.22-5.86V76.5q0-3.9,1.6-5.69A14.93,14.93,0,0,1,638.83,68a15.39,15.39,0,0,1,5-1.42h45.88c2.6,0,4.56.53,5.86,1.6a13.12,13.12,0,0,1,3,3.38,8.81,8.81,0,0,1,1.42,5Z" fill="#fff"/></svg>