<?xml version="1.0" encoding="UTF-8" standalone="no"?>
<svg
   xmlns:dc="http://purl.org/dc/elements/1.1/"
   xmlns:cc="http://creativecommons.org/ns#"
   xmlns:rdf="http://www.w3.org/1999/02/22-rdf-syntax-ns#"
   xmlns:svg="http://www.w3.org/2000/svg"
   xmlns="http://www.w3.org/2000/svg"
   xmlns:sodipodi="http://sodipodi.sourceforge.net/DTD/sodipodi-0.dtd"
   xmlns:inkscape="http://www.inkscape.org/namespaces/inkscape"
   viewBox="0 0 362.73401 512"
   id="svg2"
   version="1.1"
   inkscape:version="0.91 r13725"
   sodipodi:docname="HTML5_Logo.svg"
   width="362.73401"
   height="512">
  <metadata
     id="metadata30">
    <rdf:RDF>
      <cc:Work
         rdf:about="">
        <dc:format>image/svg+xml</dc:format>
        <dc:type
           rdf:resource="http://purl.org/dc/dcmitype/StillImage" />
        <dc:title>HTML5 Logo</dc:title>
      </cc:Work>
    </rdf:RDF>
  </metadata>
  <defs
     id="defs28" />
  <sodipodi:namedview
     pagecolor="#ffffff"
     bordercolor="#666666"
     borderopacity="1"
     objecttolerance="10"
     gridtolerance="10"
     guidetolerance="10"
     inkscape:pageopacity="0"
     inkscape:pageshadow="2"
     inkscape:window-width="1366"
     inkscape:window-height="705"
     id="namedview26"
     showgrid="false"
     fit-margin-top="0"
     fit-margin-left="0"
     fit-margin-right="0"
     fit-margin-bottom="0"
     inkscape:zoom="0.4609375"
     inkscape:cx="181.367"
     inkscape:cy="256"
     inkscape:window-x="-8"
     inkscape:window-y="-8"
     inkscape:window-maximized="1"
     inkscape:current-layer="svg2" />
  <title
     id="title4">HTML5 Logo</title>
  <polygon
     points="404.321,470.819 255.778,512 107.644,470.877 74.633,100.62 437.367,100.62 "
     id="polygon6"
     style="fill:#e44d26"
     transform="translate(-74.633,0)" />
  <polygon
     points="256,130.894 256,480.523 376.03,447.246 404.27,130.894 "
     id="polygon8"
     style="fill:#f16529"
     transform="translate(-74.633,0)" />
  <polygon
     points="256,221.716 256,176.305 255.843,176.305 142.132,176.305 143.219,188.488 154.38,313.627 256,313.627 256,268.217 195.91,268.217 191.76,221.716 "
     id="polygon10"
     style="fill:#ebebeb"
     transform="translate(-74.633,0)" />
  <polygon
     points="201.994,336.333 177.419,336.333 156.409,336.333 162.771,407.634 255.791,433.457 256,433.399 256,386.153 255.801,386.206 205.227,372.55 "
     id="polygon12"
     style="fill:#ebebeb"
     transform="translate(-74.633,0)" />
  <path
     d="m 33.749,0 23.077,0 0,22.8 21.11,0 0,-22.8 23.078,0 0,69.044 -23.077,0 0,-23.12 -21.11,0 0,23.12 -23.077,0 0,-69.044 z"
     id="path14"
     inkscape:connector-curvature="0" />
  <path
     d="m 131.361,22.896 -20.316,0 0,-22.896 63.72,0 0,22.896 -20.325,0 0,46.148 -23.078,0 0,-46.148 z"
     id="path16"
     inkscape:connector-curvature="0" />
  <path
     d="M 184.878,0 208.941,0 223.743,24.26 238.53,0 l 24.072,0 0,69.044 -22.982,0 0,-34.222 -15.877,24.549 -0.397,0 -15.888,-24.549 0,34.222 -22.58,0 0,-69.044 z"
     id="path18"
     inkscape:connector-curvature="0" />
  <path
     d="m 274.087,0 23.084,0 0,46.222 32.453,0 0,22.822 -55.537,0 0,-69.044 z"
     id="path20"
     inkscape:connector-curvature="0" />
  <polygon
     points="306.49,372.521 255.843,386.191 255.843,433.435 348.937,407.634 349.62,399.962 360.291,280.411 361.399,268.217 349.162,268.217 255.843,268.217 255.843,313.627 311.761,313.627 "
     id="polygon22"
     style="fill:#ffffff"
     transform="translate(-74.633,0)" />
  <polygon
     points="255.843,221.716 365.385,221.716 365.385,221.716 365.531,221.716 366.442,211.509 368.511,188.488 369.597,176.305 255.843,176.305 255.843,204.509 255.843,221.605 "
     id="polygon24"
     style="fill:#ffffff"
     transform="translate(-74.633,0)" />
</svg>
