<?xml version="1.0" encoding="UTF-8" standalone="no"?>
<!-- Created with Inkscape (http://www.inkscape.org/) -->

<svg
   xmlns:dc="http://purl.org/dc/elements/1.1/"
   xmlns:cc="http://creativecommons.org/ns#"
   xmlns:rdf="http://www.w3.org/1999/02/22-rdf-syntax-ns#"
   xmlns:svg="http://www.w3.org/2000/svg"
   xmlns="http://www.w3.org/2000/svg"
   xmlns:sodipodi="http://sodipodi.sourceforge.net/DTD/sodipodi-0.dtd"
   xmlns:inkscape="http://www.inkscape.org/namespaces/inkscape"
   version="1.1"
   id="svg815"
   xml:space="preserve"
   width="532.91315"
   height="151.83066"
   viewBox="0 0 532.91314 151.83065"
   sodipodi:docname="mongodb-logo.svg"
   inkscape:version="0.92.2 (5c3e80d, 2017-08-06)"><metadata
     id="metadata821"><rdf:RDF><cc:Work
         rdf:about=""><dc:format>image/svg+xml</dc:format><dc:type
           rdf:resource="http://purl.org/dc/dcmitype/StillImage" /><dc:title></dc:title></cc:Work></rdf:RDF></metadata><defs
     id="defs819"><clipPath
       clipPathUnits="userSpaceOnUse"
       id="clipPath833"><path
         d="m 274.27,28.5117 -29.778,9.8594 c 0,0 3.793,150.7149 -50.558,161.2659 -35.844,41.531 5.511,1774.053 135.726,5.937 0,0 -44.566,-22.379 -53.004,-60.379 C 268.223,107.172 274.27,28.5117 274.27,28.5117 Z"
         id="path831"
         inkscape:connector-curvature="0" /></clipPath><linearGradient
       x1="0"
       y1="0"
       x2="1"
       y2="0"
       gradientUnits="userSpaceOnUse"
       gradientTransform="matrix(342.302,-115.488,-104.178,-307.19,77.2895,572.506)"
       spreadMethod="pad"
       id="linearGradient841"><stop
         style="stop-opacity:1;stop-color:#929669"
         offset="0"
         id="stop835" /><stop
         style="stop-opacity:1;stop-color:#929669"
         offset="0.230769"
         id="stop837" /><stop
         style="stop-opacity:1;stop-color:#fdfcf0"
         offset="1"
         id="stop839" /></linearGradient><clipPath
       clipPathUnits="userSpaceOnUse"
       id="clipPath851"><path
         d="m 290.324,174.051 c 0,0 258.762,170.426 198.137,524.371 -58.383,257.144 -196.215,341.678 -211.027,373.958 -16.305,22.83 -32.727,63.31 -32.727,63.31 l 11.004,-716.475 c 0,0 -22.77,-218.774 34.613,-245.164 z"
         id="path849"
         inkscape:connector-curvature="0" /></clipPath><linearGradient
       x1="0"
       y1="0"
       x2="1"
       y2="0"
       gradientUnits="userSpaceOnUse"
       gradientTransform="matrix(239.701,-930.524,-1001.21,-160.521,202.693,1128.96)"
       spreadMethod="pad"
       id="linearGradient857"><stop
         style="stop-opacity:1;stop-color:#44aa3a"
         offset="0"
         id="stop853" /><stop
         style="stop-opacity:1;stop-color:#3d9439"
         offset="1"
         id="stop855" /></linearGradient><clipPath
       clipPathUnits="userSpaceOnUse"
       id="clipPath867"><path
         d="m 229.34,164.527 c 0,0 -242.7267,165.586 -228.757969,457.746 C 14.5469,914.438 185.984,1058.09 219.375,1084.15 c 21.586,23.01 22.477,31.88 24.145,54.58 15.132,-32.5 12.621,-485.457 14.222,-538.398 C 263.965,394.238 246.328,203.43 229.34,164.527 Z"
         id="path865"
         inkscape:connector-curvature="0" /></clipPath><linearGradient
       x1="0"
       y1="0"
       x2="1"
       y2="0"
       gradientUnits="userSpaceOnUse"
       gradientTransform="matrix(419.53,95.3215,131.096,-391.715,-24.9311,592.245)"
       spreadMethod="pad"
       id="linearGradient873"><stop
         style="stop-opacity:1;stop-color:#40a73c"
         offset="0"
         id="stop869" /><stop
         style="stop-opacity:1;stop-color:#5ebc45"
         offset="1"
         id="stop871" /></linearGradient><clipPath
       clipPathUnits="userSpaceOnUse"
       id="clipPath883"><path
         d="M 0,0 H 3996.85 V 1138.73 H 0 Z"
         id="path881"
         inkscape:connector-curvature="0" /></clipPath></defs><sodipodi:namedview
     pagecolor="#ffffff"
     bordercolor="#666666"
     borderopacity="1"
     objecttolerance="10"
     gridtolerance="10"
     guidetolerance="10"
     inkscape:pageopacity="0"
     inkscape:pageshadow="2"
     inkscape:window-width="1366"
     inkscape:window-height="705"
     id="namedview817"
     showgrid="false"
     inkscape:pagecheckerboard="true"
     fit-margin-top="0"
     fit-margin-left="0"
     fit-margin-right="0"
     fit-margin-bottom="0"
     inkscape:zoom="0.95486929"
     inkscape:cx="260.95492"
     inkscape:cy="86.349895"
     inkscape:window-x="-8"
     inkscape:window-y="-8"
     inkscape:window-maximized="1"
     inkscape:current-layer="g823" /><g
     id="g823"
     inkscape:groupmode="layer"
     inkscape:label="mongo-logo"
     transform="matrix(1.3333333,0,0,-1.3333333,-1.9216939e-4,151.83066)"><g
       id="g825"
       transform="scale(0.1)"><g
         id="g827"><g
           id="g829"
           clip-path="url(#clipPath833)"><path
             d="m 274.27,28.5117 -29.778,9.8594 c 0,0 3.793,150.7149 -50.558,161.2659 -35.844,41.531 5.511,1774.053 135.726,5.937 0,0 -44.566,-22.379 -53.004,-60.379 C 268.223,107.172 274.27,28.5117 274.27,28.5117"
             style="fill:url(#linearGradient841);fill-opacity:1;fill-rule:nonzero;stroke:none"
             id="path843"
             inkscape:connector-curvature="0" /></g></g><g
         id="g845"><g
           id="g847"
           clip-path="url(#clipPath851)"><path
             d="m 290.324,174.051 c 0,0 258.762,170.426 198.137,524.371 -58.383,257.144 -196.215,341.678 -211.027,373.958 -16.305,22.83 -32.727,63.31 -32.727,63.31 l 11.004,-716.475 c 0,0 -22.77,-218.774 34.613,-245.164"
             style="fill:url(#linearGradient857);fill-opacity:1;fill-rule:nonzero;stroke:none"
             id="path859"
             inkscape:connector-curvature="0" /></g></g><g
         id="g861"><g
           id="g863"
           clip-path="url(#clipPath867)"><path
             d="m 229.34,164.527 c 0,0 -242.7267,165.586 -228.757969,457.746 C 14.5469,914.438 185.984,1058.09 219.375,1084.15 c 21.586,23.01 22.477,31.88 24.145,54.58 15.132,-32.5 12.621,-485.457 14.222,-538.398 C 263.965,394.238 246.328,203.43 229.34,164.527"
             style="fill:url(#linearGradient873);fill-opacity:1;fill-rule:nonzero;stroke:none"
             id="path875"
             inkscape:connector-curvature="0" /></g></g><g
         id="g877"><g
           id="g879"
           clip-path="url(#clipPath883)"><path
             d="m 3162.28,258.836 c 17.17,-13.731 51.5,-19.383 81.76,-19.383 39.24,0 77.67,7.277 115.27,41.172 38.42,34.734 64.58,88.016 64.58,172.793 0,81.547 -31.07,147.754 -94.82,186.512 -35.99,22.601 -82.57,31.48 -135.72,31.48 -15.54,0 -31.07,-0.801 -40.07,-4.84 -2.45,-1.617 -7.35,-8.074 -7.35,-11.308 -1.64,-14.532 -1.64,-125.141 -1.64,-190.539 0,-67.012 0,-160.668 1.64,-171.985 0.82,-9.679 5.72,-26.636 16.35,-33.902 z m -163.18,448.91 c 13.89,0 66.71,-2.422 91.25,-2.422 45.77,0 77.65,2.422 163.48,2.422 71.96,0 132.46,-19.379 175.79,-56.512 52.33,-45.222 80.12,-108.195 80.12,-184.894 0,-109 -49.87,-171.977 -99.74,-207.504 -49.87,-37.137 -114.47,-58.133 -206.84,-58.133 -49.06,0 -133.27,1.617 -203.58,2.414 h -0.97 c -3.26,6.469 6.03,31.649 11.78,32.301 19,2.152 24.15,2.883 32.98,6.516 14.84,6.105 18.35,13.671 19.99,40.316 2.45,50.055 1.64,109.801 1.64,177.629 0,48.437 0.81,142.906 -0.83,172.781 -2.45,25.028 -13.06,31.485 -34.33,36.332 -10.63,2.418 -25.35,4.844 -45.78,7.27 -1.63,4.84 10.95,26.644 15.04,31.484"
             style="fill:#bfbdbb;fill-opacity:1;fill-rule:nonzero;stroke:none"
             id="path885"
             inkscape:connector-curvature="0" /><path
             d="m 3726.24,668.18 c -3.26,-0.809 -7.36,-8.883 -7.36,-12.918 -0.81,-29.063 -1.62,-104.953 -1.62,-157.434 0,-1.613 2.44,-4.035 4.08,-4.035 10.63,-0.816 36.78,-1.625 58.86,-1.625 31.07,0 49.06,4.047 58.87,8.891 26.16,12.91 38.41,41.171 38.41,71.851 0,70.242 -49.04,96.891 -121.79,96.891 -4.92,0 -18.82,0 -29.45,-1.621 z m 185.59,-322.957 c 0,71.05 -52.32,111.418 -147.99,111.418 -4.08,0 -34.34,0.816 -41.69,-0.809 -2.45,-0.801 -4.89,-2.414 -4.89,-4.027 0,-50.875 -0.83,-132.418 1.62,-164.707 1.64,-13.731 11.46,-33.11 23.71,-38.762 13.1,-7.266 42.51,-8.883 62.95,-8.883 56.42,0 106.29,31.492 106.29,105.77 z m -333.24,362.523 c 7.36,0 29.12,-2.422 84.7,-2.422 52.33,0 94.83,1.61 145.52,1.61 62.95,0 149.61,-22.606 149.61,-116.262 0,-46.02 -32.69,-83.16 -75.2,-100.926 -2.46,-0.808 -2.46,-2.422 0,-3.23 60.49,-15.332 113.63,-52.477 113.63,-123.528 0,-69.433 -43.32,-113.035 -106.27,-140.492 -38.43,-16.945 -85.85,-22.598 -134.1,-22.598 -36.78,0 -135.36,4.036 -190.15,3.219 -5.73,2.434 5.25,28.274 10.14,32.301 13.09,0.805 23.18,1.746 37.08,5.785 19.62,4.848 21.94,11.172 24.4,40.238 1.64,25.024 1.64,114.645 1.64,178.438 0,87.199 0.81,146.133 0,175.199 -0.83,22.61 -9,29.875 -24.54,33.914 -12.25,2.418 -32.68,4.844 -49.04,7.27 -4.09,4.035 8.49,28.254 12.58,31.484"
             style="fill:#bfbdbb;fill-opacity:1;fill-rule:nonzero;stroke:none"
             id="path887"
             inkscape:connector-curvature="0" /><path
             d="m 653.824,201.059 c -1.359,2.171 -2.801,8.593 -2.5,16.324 0.223,5.875 1.391,9.601 2.492,10.883 15.418,2.429 22.719,4.074 31.383,6.39 14.453,3.586 19.903,11.391 20.75,29.879 2.375,43.543 2.512,125.195 1.645,182.625 l 0.011,1.692 c 0.067,6.16 0.165,14.582 -7.574,20.523 -11.34,7.469 -25.472,13.648 -43.363,19.016 -6.844,2.027 -10.629,5.621 -10.426,9.832 0.215,4.047 4.508,9.191 13.434,10.91 23.672,2.441 85.746,17.219 110.097,28.457 1.442,-1.754 3.719,-5.547 3.282,-11.606 -0.184,-2.546 -0.41,-5.211 -0.633,-7.968 -0.692,-8.114 -1.469,-17.313 -1.469,-26.485 0,-2.699 2.93,-5.258 6.035,-5.258 1.575,0 3.035,0.618 4.223,1.79 46.422,36.328 87.937,49.292 109.312,49.292 35.118,0 62.45,-16.761 83.575,-51.226 1.238,-1.824 2.898,-2.785 4.757,-2.785 1.774,0 3.446,0.91 4.43,2.371 42.685,32.34 84.985,51.64 113.265,51.64 66.93,0 106.9,-50.042 106.9,-133.839 0,-24.078 -0.24,-54.602 -0.45,-83.094 -0.21,-24.992 -0.38,-48.43 -0.38,-64.645 0,-3.933 5.25,-14.836 13.2,-17.015 9.78,-4.758 23.92,-7.192 41.77,-10.27 l 0.69,-0.113 c 1.36,-4.797 -1.48,-23.484 -4.2,-27.309 -4.43,0.035 -10.57,0.356 -18.21,0.739 -13.9,0.711 -32.94,1.671 -55.12,1.671 -44.47,0 -67.7,-0.875 -89.9,-2.304 -1.67,5.543 -2.25,23.426 -0.22,27.152 12.95,2.426 19.35,4.059 27.12,6.356 14.15,4.664 18.23,11.074 19.06,29.851 0.32,13.36 2.89,130.879 -1.67,158.785 -4.19,28.914 -26.02,62.762 -73.74,62.762 -17.7,0 -46.31,-7.355 -73.568,-28.004 -1.695,-1.644 -2.668,-4.832 -2.668,-6.93 l 0.051,-0.539 c 3.211,-15.062 3.211,-32.625 3.211,-59.207 0,-15.148 -0.098,-31.222 -0.184,-47.179 -0.187,-32.395 -0.363,-62.993 0.184,-86.102 0,-15.758 9.539,-19.516 17.204,-22.551 4.17,-0.925 7.48,-1.722 10.79,-2.511 6.42,-1.547 13.07,-3.141 22.91,-4.719 1.35,-3.106 1.47,-12.379 -0.38,-20.313 -1.03,-4.382 -2.22,-6.312 -2.84,-6.941 -24.73,0.848 -50.11,1.59 -86.719,1.59 -11.094,0 -29.219,-0.481 -45.203,-0.906 -12.954,-0.344 -25.227,-0.684 -32.2,-0.711 -1.011,1.593 -2.422,6.711 -2.422,14.074 0,6.844 1.254,11.672 2.551,13.16 3.434,0.633 6.707,1.211 9.828,1.77 8.586,1.527 16.004,2.832 23.118,4.582 12.121,3.691 16.667,10.421 17.55,25.812 2.367,35.934 4.215,139.434 -0.875,165.359 -8.664,41.598 -32.375,62.676 -70.453,62.676 -22.328,0 -50.508,-10.726 -73.547,-27.98 -3.867,-2.844 -6.785,-10.008 -6.785,-16.621 0,-12.325 -0.039,-27.004 -0.09,-42.739 -0.152,-51.988 -0.34,-116.691 0.926,-144.695 0.777,-8.602 3.777,-18.852 20.024,-22.629 3.542,-0.988 9.683,-2.019 16.8,-3.191 4.098,-0.684 8.575,-1.422 13.18,-2.25 1.652,-4.449 0.641,-21.895 -2.191,-27.328 -7.106,0.046 -15.844,0.453 -25.872,0.894 -15.324,0.672 -34.371,1.527 -56.085,1.527 -25.551,0 -43.344,-0.855 -57.633,-1.527 -9.582,-0.453 -17.895,-0.855 -26.188,-0.894 v 0"
             style="fill:#ffffff;fill-opacity:1;fill-rule:nonzero;stroke:none"
             id="path889"
             inkscape:connector-curvature="0" /><path
             d="m 1464.89,503.027 c -14.88,0 -28.77,-3.89 -39.11,-10.968 -28.39,-17.243 -42.84,-51.676 -42.84,-102.262 0,-94.723 47.48,-160.871 115.46,-160.871 20.06,0 36.41,5.758 50,17.613 20.89,17.024 31.96,51.793 31.96,100.473 0,93.32 -46.41,156.015 -115.47,156.015 z m 13.09,-309.234 c -122.83,0 -166.59,89.996 -166.59,174.203 0,58.82 24.08,104.82 71.6,136.695 33.78,20.735 74.09,32.664 110.52,32.664 93.73,0 159.21,-67.316 159.21,-163.714 0,-65.543 -26.16,-117.27 -75.65,-149.598 -23.73,-14.547 -64.91,-30.25 -99.09,-30.25 v 0"
             style="fill:#ffffff;fill-opacity:1;fill-rule:nonzero;stroke:none"
             id="path891"
             inkscape:connector-curvature="0" /><path
             d="m 2736.84,503.027 c -14.9,0 -28.8,-3.89 -39.13,-10.968 -28.37,-17.243 -42.83,-51.668 -42.83,-102.262 0,-94.723 47.48,-160.871 115.47,-160.871 20.06,0 36.4,5.758 49.99,17.621 20.89,17.016 31.96,51.773 31.96,100.457 0,93.32 -46.39,156.023 -115.46,156.023 z m 13.08,-309.234 c -122.84,0 -166.6,89.984 -166.6,174.195 0,58.84 24.1,104.836 71.62,136.715 33.77,20.735 74.09,32.652 110.51,32.652 93.75,0 159.23,-67.328 159.23,-163.707 0,-65.558 -26.18,-117.285 -75.66,-149.593 -23.73,-14.559 -64.91,-30.262 -99.1,-30.262 v 0"
             style="fill:#ffffff;fill-opacity:1;fill-rule:nonzero;stroke:none"
             id="path893"
             inkscape:connector-curvature="0" /><path
             d="m 2325.81,506.25 c -37.87,0 -62.34,-29.867 -62.34,-76.086 0,-46.652 21.05,-101.117 80.34,-101.117 10.18,0 28.63,4.516 37.77,14.59 13.78,12.64 22.77,38.761 22.77,66.347 0,60.286 -29.37,96.266 -78.54,96.266 z m -4.9,-318.91 c -14.22,0 -24.57,-4.133 -30.75,-7.602 -29.97,-19.187 -43.86,-38.355 -43.86,-60.418 0,-20.8083 8.09,-37.3512 25.47,-52.0387 21.04,-17.8204 49.41,-26.4805 86.74,-26.4805 73.42,0 106.34,39.4297 106.34,78.5192 0,27.196 -13.67,45.43 -41.78,55.735 -21.67,7.914 -57.86,12.285 -102.16,12.285 z M 2325.81,0 c -44.1,0 -75.87,9.30078 -103.01,30.1602 -26.4,20.3593 -38.23,50.5507 -38.23,71.4098 0,5.989 1.42,21.5 14.46,36.309 7.69,8.723 25.49,25.047 66.59,53.289 1.26,0.473 2.14,1.719 2.14,3.23 0,1.68 -1.08,3.047 -2.57,3.364 -33.89,12.957 -44.11,34.222 -47.18,45.758 -0.05,0.414 -0.2,1.078 -0.34,1.777 -0.98,4.527 -1.88,8.805 4.24,13.199 4.74,3.383 12.36,7.891 20.43,12.649 11.91,7.031 25.41,14.988 32.88,21.39 1.19,1.153 1.67,2.848 1.38,4.535 -0.28,1.715 -1.27,3.118 -2.74,3.84 -50.14,16.828 -75.39,54.031 -75.39,110.692 0,36.578 16.89,69.636 46.32,90.714 20.16,15.922 70.79,35.059 103.58,35.059 l 1.91,-0.02 c 33.74,-0.796 52.76,-7.851 79.08,-17.589 14.29,-5.286 27.82,-7.43 46.74,-7.43 27.92,0 40.12,8.844 50.59,18.992 0.6,-1.258 2.02,-5.246 2.66,-14.437 0.66,-9.371 -1.9,-23.262 -9.07,-33.172 -5.71,-7.903 -18.94,-13.633 -31.44,-13.633 -1.26,0 -2.48,0.059 -3.67,0.184 -12.86,1.257 -18.9,3.132 -18.96,3.16 l -3.15,-1.094 c -1,-1.453 -0.36,-3.066 0.46,-5.106 0.2,-0.488 0.4,-0.953 0.47,-1.257 1.64,-6.539 4.56,-25.621 4.56,-30.965 0,-59.418 -23.47,-85.332 -48.84,-104.492 -24.2,-18.246 -52.49,-29.215 -84.37,-32.578 h -0.03 c -0.65,0 -3.67,-0.27 -9.76,-0.805 -3.93,-0.36 -8.82,-0.801 -9.54,-0.801 l -0.72,-0.098 c -5.54,-1.562 -19.92,-8.39 -19.92,-21.097 0,-10.574 6.52,-23.676 37.6,-26.024 6.3,-0.468 13.07,-0.941 20.12,-1.422 41.04,-2.855 92.29,-6.41 116.41,-14.582 33.17,-12.074 53.82,-41.757 53.82,-77.461 0,-53.328 -37.95,-103.4566 -101.53,-134.0894 C 2390.97,7.05859 2359.66,0 2325.81,0 v 0"
             style="fill:#ffffff;fill-opacity:1;fill-rule:nonzero;stroke:none"
             id="path895"
             inkscape:connector-curvature="0" /><path
             d="m 2126.22,230.734 c -17.98,2.422 -31.07,4.844 -46.59,12.114 -2.46,1.613 -5.74,8.882 -5.74,11.304 -1.63,25.032 -1.63,97.696 -1.63,145.328 0,38.758 -6.54,72.665 -22.89,96.899 -19.62,27.441 -47.41,43.594 -83.39,43.594 -31.87,0 -74.39,-21.801 -109.54,-51.68 -0.82,-0.809 -6.22,-5.922 -6.1,2.027 0.12,7.942 1.35,24.102 2.09,34.282 0.74,10.168 -5.36,14.964 -5.36,14.964 -22.89,-11.3 -86.97,-26.605 -110.78,-29.066 -17.4,-3.348 -21.4,-20.059 -2.87,-25.828 v -0.004 c 0,-0.027 -0.21,-0.059 -0.11,-0.09 19.39,-5.824 32.26,-12.055 42.02,-18.48 7.35,-5.653 6.43,-13.731 6.43,-20.188 0.82,-54.094 0.77,-137.265 -1.68,-182.472 -0.82,-17.766 -5.75,-24.215 -18.83,-27.454 l 1.18,0.403 c -9.81,-2.414 -17.99,-4.039 -30.26,-5.653 -4.08,-4.027 -4.09,-27.445 0,-32.3 8.18,0 49.87,2.433 84.21,2.433 47.41,0 71.94,-2.433 84.2,-2.433 4.91,5.664 6.54,27.464 3.27,32.3 -13.9,0.809 -23.71,2.422 -33.52,4.844 -13.08,3.231 -16.35,9.692 -17.16,24.227 -1.64,37.941 -1.64,118.679 -1.64,173.59 0,15.339 4.09,22.609 9,26.648 16.34,14.531 43.32,24.211 67.03,24.211 22.89,0 38.42,-7.266 49.87,-16.945 15.53,-12.922 21.26,-31.493 22.89,-45.219 3.27,-30.688 2.45,-92.043 2.45,-145.328 0,-29.071 -2.45,-36.34 -13.08,-39.567 -4.9,-2.425 -17.98,-4.847 -33.52,-6.461 -4.9,-4.836 -3.27,-27.445 0,-32.3 21.26,0 45.79,2.433 81.76,2.433 44.97,0 73.57,-2.433 85.02,-2.433 4.91,5.664 6.53,26.656 3.27,32.3"
             style="fill:#ffffff;fill-opacity:1;fill-rule:nonzero;stroke:none"
             id="path897"
             inkscape:connector-curvature="0" /></g></g></g></g></svg>