<?xml version="1.0" encoding="UTF-8" standalone="no"?>
<!DOCTYPE svg PUBLIC "-//W3C//DTD SVG 1.1//EN" "http://www.w3.org/Graphics/SVG/1.1/DTD/svg11.dtd">
<svg width="100%" height="100%" viewBox="0 0 2778 2778" version="1.1" xmlns="http://www.w3.org/2000/svg" xmlns:xlink="http://www.w3.org/1999/xlink" xml:space="preserve" style="fill-rule:evenodd;clip-rule:evenodd;stroke-linejoin:round;stroke-miterlimit:1.41421;">
    <g transform="matrix(5.55556,0,0,5.55556,0,0)">
        <rect x="0" y="0" width="500" height="500" style="fill:rgb(71,182,72);"/>
        <path id="Studio_3T" d="M92.87,105.3C91.675,102.883 89.928,100.78 87.77,99.163C84.383,96.765 80.711,94.798 76.838,93.307C73.663,92.08 70.595,90.591 67.666,88.857C66.19,87.955 64.939,86.729 64.006,85.273C63.234,83.878 62.852,82.3 62.9,80.706C62.815,78.306 63.841,75.997 65.679,74.452C67.532,72.875 70.25,72.087 73.832,72.086C78.557,72.086 83.931,73.366 89.953,75.927L93.474,66.792C87.399,63.996 80.798,62.527 74.111,62.482C67.348,62.482 61.959,64.122 57.944,67.401C53.929,70.68 51.921,75.178 51.92,80.893C51.81,85.116 53.152,89.251 55.72,92.605C58.253,95.854 62.608,98.742 68.783,101.271C74.774,103.707 78.727,105.815 80.642,107.596C82.498,109.245 83.547,111.624 83.514,114.107C83.611,116.738 82.448,119.263 80.387,120.9C78.302,122.586 75.069,123.429 70.687,123.429C67.415,123.393 64.159,122.969 60.987,122.165C57.595,121.351 54.297,120.189 51.143,118.698L51.143,129.285C56.022,131.69 62.291,132.892 69.95,132.892C77.609,132.892 83.615,131.159 87.97,127.692C92.325,124.225 94.502,119.447 94.502,113.358C94.564,110.584 94.007,107.831 92.87,105.3ZM115.62,122.094C114.307,120.827 113.65,118.868 113.651,116.215L113.651,88.482L128.243,88.482L128.243,80.144L113.651,80.144L113.651,68.62L106.934,68.62L103.228,79.582L95.728,83.611L95.728,88.483L102.728,88.483L102.728,116.4C102.728,127.393 107.885,132.889 118.2,132.889C120.181,132.894 122.158,132.714 124.106,132.351C125.703,132.08 127.264,131.632 128.762,131.016L128.762,122.724C126.187,123.554 123.499,123.981 120.794,123.989C118.886,124.076 117.02,123.393 115.62,122.094ZM181.32,131.955L181.32,80.144L170.388,80.144L170.388,105.956C170.388,112.452 169.315,117.082 167.169,119.846C165.023,122.61 161.664,123.992 157.093,123.992C153.666,123.992 151.149,123 149.543,121.017C147.937,119.034 147.134,116.059 147.134,112.093L147.134,80.144L136.155,80.144L136.155,114.013C136.155,120.354 137.684,125.085 140.741,128.208C143.798,131.331 148.432,132.892 154.641,132.892C157.946,132.953 161.22,132.247 164.207,130.831C166.852,129.589 169.093,127.624 170.669,125.163L171.225,125.163L172.754,131.955L181.324,131.955L181.32,131.955ZM224.707,125.163L225.216,125.163L227.116,131.955L235.639,131.955L235.639,59.063L224.708,59.063L224.708,77.942C224.775,80.892 225.038,83.834 225.495,86.749L224.939,86.749C221.419,81.721 216.293,79.207 209.56,79.207C203.136,79.207 198.11,81.574 194.481,86.307C190.852,91.04 189.038,97.653 189.038,106.146C189.038,114.613 190.829,121.187 194.412,125.868C197.995,130.549 202.982,132.892 209.375,132.895C216.108,132.895 221.219,130.319 224.708,125.166L224.707,125.163ZM203.259,119.471C201.251,116.457 200.247,112.077 200.248,106.331C200.248,100.522 201.281,96.048 203.348,92.909C205.237,89.868 208.622,88.067 212.2,88.2C216.678,88.2 219.967,89.574 222.067,92.322C224.167,95.07 225.217,99.708 225.217,106.235L225.217,107.781C225.155,113.496 224.105,117.627 222.067,120.172C220.029,122.717 216.771,123.99 212.293,123.99C208.278,123.991 205.267,122.485 203.26,119.471L203.259,119.471ZM257.346,80.144L246.461,80.144L246.461,131.955L257.347,131.955L257.347,80.144L257.346,80.144ZM247.41,70.844C248.644,71.985 250.295,72.57 251.973,72.46C252.147,72.476 252.322,72.485 252.497,72.485C255.551,72.485 258.064,69.972 258.064,66.918C258.064,66.751 258.056,66.583 258.041,66.417C258.15,64.748 257.571,63.106 256.441,61.873C255.23,60.757 253.615,60.181 251.971,60.28C251.762,60.256 251.552,60.244 251.342,60.244C248.289,60.244 245.777,62.756 245.777,65.809C245.777,66.012 245.788,66.215 245.81,66.417C245.721,68.048 246.299,69.648 247.411,70.845L247.41,70.844ZM307.126,86.444C302.802,81.619 296.935,79.206 289.526,79.206C281.774,79.206 275.767,81.564 271.506,86.28C267.245,90.996 265.114,97.554 265.113,105.955C265.008,110.865 266.022,115.736 268.078,120.196C269.896,124.113 272.85,127.394 276.555,129.612C280.406,131.845 284.797,132.979 289.248,132.891C296.907,132.891 302.882,130.518 307.175,125.771C311.468,121.024 313.614,114.419 313.614,105.955C313.613,97.774 311.45,91.27 307.127,86.445L307.126,86.444ZM279.4,92.792C281.454,89.731 284.766,88.201 289.337,88.201C298.046,88.201 302.401,94.119 302.4,105.956C302.4,117.918 298.076,123.899 289.429,123.898C280.689,123.898 276.319,117.917 276.32,105.956C276.321,100.241 277.348,95.853 279.4,92.792ZM377.224,66.7C373.24,63.889 367.743,62.484 360.733,62.484C356.38,62.421 352.04,62.957 347.833,64.077C343.894,65.23 340.175,67.035 336.833,69.417L344.433,81.784C349.065,78.851 353.543,77.384 357.867,77.384C359.799,77.289 361.719,77.744 363.403,78.696C364.772,79.561 365.563,81.109 365.464,82.725C365.464,87.535 360.816,89.94 351.521,89.939L347.259,89.939L347.259,103.852L351.428,103.852C354.228,103.79 357.025,104.049 359.766,104.625C361.497,104.936 363.105,105.734 364.399,106.925C365.422,108.128 365.937,109.683 365.835,111.259C365.978,113.416 364.915,115.483 363.078,116.622C361.241,117.763 358.315,118.333 354.3,118.332C351.433,118.298 348.581,117.929 345.8,117.232C342.654,116.471 339.613,115.329 336.743,113.832L336.743,129.198C339.996,130.499 343.372,131.47 346.819,132.098C350.164,132.65 353.55,132.917 356.94,132.898C365.807,132.898 372.732,131.071 377.717,127.417C382.586,123.994 385.405,118.328 385.198,112.38C385.198,103.011 379.546,97.608 368.243,96.171L368.243,95.884C373.092,94.51 376.798,92.3 379.361,89.255C381.926,86.197 383.292,82.307 383.2,78.317C383.348,73.677 381.085,69.277 377.224,66.7ZM426.281,78.6L442.772,78.6L442.772,63.467L391.446,63.467L391.446,78.6L407.983,78.6L407.983,131.957L426.283,131.957L426.283,78.6L426.281,78.6Z" style="fill:rgb(254,254,253);fill-rule:nonzero;"/>
        <path id="manitee" d="M316.279,389.077C310.334,396.322 304.011,403.386 297.46,410.066C291.363,416.125 284.593,421.466 277.282,425.987C275.282,427.27 273.249,428.503 271.182,429.687C263.862,433.94 255.832,436.833 247.482,438.228C243.162,438.926 238.775,439.111 234.412,438.778C230.952,438.511 222.531,439.003 222.853,433.245C223.228,426.526 228.06,421.326 232.267,416.676C235.992,412.552 239.811,408.525 243.63,404.498C244.97,403.092 246.305,401.679 247.685,400.306C250.485,397.512 253.316,394.74 256.13,391.962C259.648,388.51 263.19,385.074 266.699,381.614C269.473,379.003 272.529,376.709 275.811,374.775C283.011,370.275 290.848,369.584 298.885,372.105C301.585,372.942 304.194,374.048 306.674,375.405C310.074,377.294 313.897,379.505 316.564,382.427C317.785,383.766 318.726,385.469 317.785,387.234C317.346,387.897 316.841,388.515 316.279,389.077L316.279,389.077ZM151.707,399.093C150.937,408.42 148.328,417.593 140.987,423.5C137.017,426.694 132.054,428.316 127.16,429.323C120.223,430.737 113.087,430.875 106.101,429.731C96.559,428.28 87.164,425.983 78.028,422.869C68.533,419.692 59.194,413.51 55.26,403.719C51.669,394.776 54.918,384.542 58.273,376.067C59.266,373.553 60.401,371.097 61.673,368.712C63.117,366.037 64.724,363.455 66.486,360.978C71.608,353.706 77.235,347.9 85.068,343.678C95.911,337.839 109.383,335.036 121.447,337.971C134.247,341.071 141.32,348.787 146.154,361.355C148.107,366.446 150.274,372.255 150.99,377.655C151.997,384.755 152.237,391.942 151.707,399.093L151.707,399.093ZM59.733,315.1C59.733,315.287 59.733,315.473 59.733,315.656L59.733,315.1M247.133,183.967C246.892,183.967 246.65,183.967 246.408,183.967L247.866,183.967C247.622,183.967 247.378,183.967 247.133,183.967M247.133,186.096C241.503,186.096 235.792,186.29 230.071,186.673C222.313,187.208 214.588,188.135 206.924,189.451C202.629,190.195 198.414,191.051 194.408,191.993C189.861,193.063 185.329,194.308 180.94,195.707C158.382,202.744 137.22,213.652 118.4,227.941C113.027,232.056 107.9,236.376 103.16,240.777C85.848,256.85 75.113,270.611 68.351,285.385C66.034,290.468 64.336,295.812 63.294,301.3C60.72,315.054 61.494,324.812 65.651,331.135C67.573,334.227 71.029,336.045 74.666,335.877C78.929,335.877 83.656,334.121 87.821,332.577C88.745,332.235 89.637,331.907 90.488,331.608C100.252,328.184 108.558,325.901 117.365,325.901C119.558,325.901 121.748,326.053 123.92,326.358C139.607,328.595 151.131,342.121 156.684,354.035C159.872,360.873 163.275,368.876 163.275,377.352C163.275,377.488 163.588,380.689 190.966,380.689C207.179,380.689 223.79,379.595 225.944,379.369C233.733,378.606 241.402,376.906 248.785,374.307C253.643,372.564 258.143,369.817 262.493,367.159C266.308,364.699 270.3,362.527 274.437,360.659C279.406,358.612 284.732,357.569 290.106,357.59C292.532,357.588 294.954,357.798 297.343,358.218C306.053,359.753 312.766,364.278 319.871,369.064C321.239,369.989 322.619,370.916 324.015,371.825C324.829,372.442 325.798,372.823 326.815,372.925C328.236,372.925 329.063,371.457 330.252,369.04C330.943,367.405 331.91,365.902 333.11,364.594C335.223,362.601 338.033,361.51 340.937,361.552C342.248,361.556 343.551,361.753 344.804,362.137C349.985,363.701 349.545,367.437 349.156,370.737C349.019,371.725 348.943,372.721 348.927,373.718C348.976,379.281 353.427,381.255 357.233,381.255L357.648,381.246C363.202,381.065 364.298,376.676 365.563,371.594C365.763,370.775 365.971,369.96 366.194,369.166C366.788,367.149 367.482,365.163 368.275,363.216C369.285,360.716 370.727,360.192 371.754,360.192C374.802,360.192 378.023,364.88 380.371,368.299C381.051,369.289 381.638,370.146 382.012,370.568C389.224,378.702 395.563,384.096 402.566,388.059C406.887,390.503 411.642,392.086 416.566,392.72C421.986,393.37 427.484,392.802 432.656,391.057C438.488,388.892 443.462,384.89 446.826,379.657C447.861,378.145 448.724,376.521 449.398,374.817C454.272,361.274 446.809,349.017 439.598,337.156C436.642,332.563 434.014,327.767 431.732,322.804C428.736,315.384 426.165,307.799 424.032,300.086C421.891,292.319 419.296,284.685 416.26,277.223C410.578,263.663 402.803,251.078 393.218,239.93C387.656,233.643 381.373,228.032 374.498,223.215C363.935,215.757 352.616,209.432 340.728,204.344C330.581,200.015 320.117,196.471 309.428,193.744C298.464,190.975 287.32,188.97 276.078,187.744C269.889,187.066 263.501,186.585 257.084,186.322C253.806,186.182 250.484,186.114 247.128,186.114M385.228,337.614C377.651,337.614 371.528,331.891 371.528,324.886C371.528,317.847 377.656,312.157 385.228,312.157C392.8,312.157 398.921,317.847 398.921,324.886C398.915,331.871 392.791,337.594 385.222,337.594L385.228,337.614ZM385.228,337.614L385.228,337.401C377.752,337.401 371.745,331.757 371.728,324.886C371.742,317.986 377.747,312.372 385.228,312.37C392.709,312.368 398.698,317.981 398.712,324.886C398.698,331.757 392.695,337.398 385.228,337.401L385.228,337.827C392.898,337.813 399.128,332.027 399.128,324.886C399.128,317.716 392.897,311.96 385.228,311.945C377.551,311.96 371.318,317.716 371.314,324.886C371.314,332.023 377.55,337.813 385.228,337.827L385.228,337.614L385.228,337.614Z" style="fill:white;fill-rule:nonzero;"/>
    </g>
</svg>
