<?xml version="1.0" encoding="UTF-8" standalone="no"?>
<!-- Created with Inkscape (http://www.inkscape.org/) -->

<svg
   xmlns:dc="http://purl.org/dc/elements/1.1/"
   xmlns:cc="http://creativecommons.org/ns#"
   xmlns:rdf="http://www.w3.org/1999/02/22-rdf-syntax-ns#"
   xmlns:svg="http://www.w3.org/2000/svg"
   xmlns="http://www.w3.org/2000/svg"
   xmlns:xlink="http://www.w3.org/1999/xlink"
   xmlns:sodipodi="http://sodipodi.sourceforge.net/DTD/sodipodi-0.dtd"
   xmlns:inkscape="http://www.inkscape.org/namespaces/inkscape"
   width="512"
   height="512"
   viewBox="0 0 512.00001 512.00001"
   id="svg2"
   version="1.1"
   inkscape:version="0.91 r13725"
   sodipodi:docname="BGSv1.svg"
   inkscape:export-filename="C:\Users\mukho\Pictures\BGSv1.png"
   inkscape:export-xdpi="180"
   inkscape:export-ydpi="180">
  <defs
     id="defs4" />
  <sodipodi:namedview
     id="base"
     pagecolor="#ffffff"
     bordercolor="#666666"
     borderopacity="1.0"
     inkscape:pageopacity="0.0"
     inkscape:pageshadow="2"
     inkscape:zoom="0.49497475"
     inkscape:cx="393.89585"
     inkscape:cy="444.19448"
     inkscape:document-units="px"
     inkscape:current-layer="layer1"
     showgrid="false"
     units="px"
     inkscape:snap-bbox="true"
     inkscape:bbox-paths="true"
     inkscape:bbox-nodes="true"
     inkscape:snap-bbox-edge-midpoints="true"
     inkscape:snap-bbox-midpoints="true"
     inkscape:object-paths="true"
     inkscape:snap-intersection-paths="true"
     inkscape:object-nodes="true"
     inkscape:snap-midpoints="false"
     inkscape:snap-smooth-nodes="true"
     inkscape:snap-object-midpoints="true"
     inkscape:snap-center="true"
     inkscape:snap-page="true"
     inkscape:snap-global="true"
     inkscape:window-width="1366"
     inkscape:window-height="705"
     inkscape:window-x="-8"
     inkscape:window-y="-8"
     inkscape:window-maximized="1" />
  <metadata
     id="metadata7">
    <rdf:RDF>
      <cc:Work
         rdf:about="">
        <dc:format>image/svg+xml</dc:format>
        <dc:type
           rdf:resource="http://purl.org/dc/dcmitype/StillImage" />
        <dc:title></dc:title>
      </cc:Work>
    </rdf:RDF>
  </metadata>
  <g
     inkscape:groupmode="layer"
     id="layer3"
     inkscape:label="bg"
     style="display:none">
    <circle
       style="display:inline;fill:#ff0000;fill-opacity:0.25161294;fill-rule:evenodd;stroke:none;stroke-width:1px;stroke-linecap:butt;stroke-linejoin:miter;stroke-opacity:1"
       id="path5265"
       cx="256"
       cy="256.00003"
       r="194.40485" />
  </g>
  <g
     inkscape:label="Layer 1"
     inkscape:groupmode="layer"
     id="layer1"
     transform="translate(0,-540.36216)"
     style="display:inline">
    <circle
       style="fill:#ffffff;fill-rule:evenodd;stroke:none;stroke-width:1px;stroke-linecap:butt;stroke-linejoin:miter;stroke-opacity:1;fill-opacity:1"
       id="path5326"
       cx="256"
       cy="-796.36133"
       transform="scale(1,-1)"
       r="256" />
    <path
       sodipodi:type="inkscape:offset"
       inkscape:radius="0"
       inkscape:original="M 256 540.36133 C 114.6151 540.36133 0 654.97643 0 796.36133 C -2.2091392e-005 937.74624 114.61509 1052.3613 256 1052.3613 C 397.38491 1052.3613 512.00002 937.74624 512 796.36133 C 512 654.97643 397.3849 540.36133 256 540.36133 z M 256 561.49805 C 317.48721 561.49805 378.5962 586.80909 422.07422 630.28711 C 465.55224 673.76513 490.86328 734.87413 490.86328 796.36133 C 490.86329 857.84854 465.55224 918.95753 422.07422 962.43555 C 378.5962 1005.9136 317.48721 1031.2246 256 1031.2246 C 194.51279 1031.2246 133.4038 1005.9136 89.925781 962.43555 C 46.447761 918.95753 21.136714 857.84854 21.136719 796.36133 C 21.136719 734.87413 47.556648 672.65624 89.925781 630.28711 C 132.29491 587.91798 194.51279 561.49805 256 561.49805 z "
       xlink:href="#path5248"
       style="fill:#ff7100;fill-opacity:1;fill-rule:evenodd;stroke:none;stroke-width:1px;stroke-linecap:butt;stroke-linejoin:miter;stroke-opacity:1"
       id="path5263"
       inkscape:href="#path5248"
       d="m 256,540.36133 a 256,256 0 0 0 -256,256 256,256 0 0 0 256,255.99997 256,256 0 0 0 256,-255.99997 256,256 0 0 0 -256,-256 z m 0,21.13672 c 61.48721,0 122.5962,25.31104 166.07422,68.78906 43.47802,43.47802 68.78906,104.58702 68.78906,166.07422 1e-5,61.48721 -25.31104,122.5962 -68.78906,166.07422 C 378.5962,1005.9136 317.48721,1031.2246 256,1031.2246 c -61.48721,0 -122.5962,-25.311 -166.074219,-68.78905 -43.47802,-43.47802 -68.789067,-104.58701 -68.789062,-166.07422 0,-61.4872 25.311042,-122.5962 68.789062,-166.07422 C 133.4038,586.80909 194.51279,561.49805 256,561.49805 Z" />
    <path
       style="fill:#ff7100;fill-opacity:1;fill-rule:evenodd;stroke:none;stroke-width:1px;stroke-linecap:butt;stroke-linejoin:miter;stroke-opacity:1"
       d="m 256,540.36216 c -141.3849,0 -256,114.6151 -256,256 -2.2091392e-5,141.38491 114.61509,256.00004 256,256.00004 141.38491,0 256.00002,-114.61513 256,-256.00004 0,-141.3849 -114.6151,-256 -256,-256 z m 0,21.13672 c 61.48721,0 122.5962,25.31104 166.07422,68.78906 43.47802,43.47802 68.78906,104.58702 68.78906,166.07422 1e-5,61.48721 -25.31104,122.5962 -68.78906,166.07422 C 378.5962,1005.9144 317.48721,1031.2254 256,1031.2254 c -61.48721,0 -122.5962,-25.311 -166.074219,-68.78902 -43.47802,-43.47802 -68.789067,-104.58701 -68.789062,-166.07422 0,-61.4872 26.419929,-123.70509 68.789062,-166.07422 C 132.29491,587.91881 194.51279,561.49888 256,561.49888 Z"
       id="path5248"
       inkscape:connector-curvature="0"
       sodipodi:nodetypes="ssssssssssssas" />
    <ellipse
       style="fill:#ff7100;fill-opacity:1;fill-rule:evenodd;stroke:none;stroke-width:1px;stroke-linecap:butt;stroke-linejoin:miter;stroke-opacity:1"
       id="path5255"
       cx="256"
       cy="796.36133"
       rx="69.19545"
       ry="70.710678" />
    <path
       style="fill:#ff7100;fill-opacity:1;fill-rule:evenodd;stroke:none;stroke-width:1px;stroke-linecap:butt;stroke-linejoin:miter;stroke-opacity:1"
       d="M 286.0018,732.64374 256,601.9604 226.49955,732.39976 Z"
       id="path5271"
       inkscape:connector-curvature="0"
       inkscape:transform-center-x="-0.250675"
       inkscape:transform-center-y="-129.06011" />
    <path
       inkscape:transform-center-y="51.816984"
       inkscape:transform-center-x="-104.26889"
       inkscape:connector-curvature="0"
       id="path5300"
       d="M 295.78999,854.21164 424.35688,893.56307 324.9966,801.71823 Z"
       style="fill:#ff7100;fill-opacity:1;fill-rule:evenodd;stroke:none;stroke-width:1px;stroke-linecap:butt;stroke-linejoin:miter;stroke-opacity:1"
       sodipodi:nodetypes="cccc" />
    <path
       style="fill:#ff7100;fill-opacity:1;fill-rule:evenodd;stroke:none;stroke-width:1px;stroke-linecap:butt;stroke-linejoin:miter;stroke-opacity:1"
       d="M 187.00779,801.77699 87.643113,893.56307 215.74711,853.87625 Z"
       id="path5302"
       inkscape:connector-curvature="0"
       inkscape:transform-center-x="104.49987"
       inkscape:transform-center-y="51.538899"
       sodipodi:nodetypes="cccc" />
    <path
       style="display:inline;fill:#ff7100;fill-opacity:1;fill-rule:evenodd;stroke:none;stroke-width:1px;stroke-linecap:butt;stroke-linejoin:miter;stroke-opacity:1"
       d="M 424.72461,158.36133 304.81836,195.5957 c 14.95286,12.21949 24.84364,29.54942 27.75976,48.63868 z"
       id="path5287"
       inkscape:connector-curvature="0"
       sodipodi:nodetypes="cccc"
       inkscape:transform-center-x="-108.57651"
       inkscape:transform-center-y="-54.471118"
       transform="translate(0,540.36216)" />
    <path
       inkscape:transform-center-y="-54.634788"
       inkscape:transform-center-x="108.40157"
       sodipodi:nodetypes="cccc"
       inkscape:connector-curvature="0"
       id="path5319"
       d="m 87.572668,158.52185 92.199032,85.22467 c 3.10596,-19.0593 13.16873,-36.28993 28.24246,-48.35999 z"
       style="display:inline;fill:#ff7100;fill-opacity:1;fill-rule:evenodd;stroke:none;stroke-width:1px;stroke-linecap:butt;stroke-linejoin:miter;stroke-opacity:1"
       transform="translate(0,540.36216)" />
    <path
       style="display:inline;fill:#ff7100;fill-opacity:1;fill-rule:evenodd;stroke:none;stroke-width:1px;stroke-linecap:butt;stroke-linejoin:miter;stroke-opacity:1"
       d="M 256.28766,450.42374 283.99487,327.9647 c -18.05881,6.83981 -38.01236,6.74051 -56.00221,-0.27869 z"
       id="path5321"
       inkscape:connector-curvature="0"
       sodipodi:nodetypes="cccc"
       inkscape:transform-center-x="0.20121689"
       inkscape:transform-center-y="133.28591"
       transform="translate(0,540.36216)" />
  </g>
  <g
     inkscape:groupmode="layer"
     id="layer2"
     inkscape:label="guides"
     style="display:none">
    <path
       transform="translate(0,-540.36216)"
       style="fill:none;fill-rule:evenodd;stroke:#000000;stroke-width:1px;stroke-linecap:butt;stroke-linejoin:miter;stroke-opacity:1"
       d="m 256,796.36218 0,-256.00002"
       id="path5257"
       inkscape:connector-curvature="0" />
    <path
       transform="translate(0,-540.36216)"
       style="fill:none;fill-rule:evenodd;stroke:#000000;stroke-width:1px;stroke-linecap:butt;stroke-linejoin:miter;stroke-opacity:1"
       d="m 256,725.6515 96.5,0"
       id="path5259"
       inkscape:connector-curvature="0" />
    <path
       style="fill:none;fill-rule:evenodd;stroke:#000000;stroke-width:1px;stroke-linecap:butt;stroke-linejoin:miter;stroke-opacity:1"
       d="m 286,646.78591 0,117.68277 0,0"
       id="path5267"
       inkscape:connector-curvature="0"
       sodipodi:nodetypes="ccc"
       transform="translate(0,-540.36216)" />
    <path
       sodipodi:nodetypes="ccc"
       inkscape:connector-curvature="0"
       id="path5269"
       d="m 226.5,646.78591 0,117.68277 0,0"
       style="fill:none;fill-rule:evenodd;stroke:#000000;stroke-width:1px;stroke-linecap:butt;stroke-linejoin:miter;stroke-opacity:1"
       transform="translate(0,-540.36216)" />
  </g>
</svg>
