<svg version="1" xmlns="http://www.w3.org/2000/svg" width="933.333" height="933.333" viewBox="0 0 700.000000 700.000000"><path d="M322.5.6C251.6 7.5 192.3 30 139.3 70.1 67.9 124.2 20.5 201.5 5 289 1 311.7.5 318.2.5 350S1 388.3 5 411c15.6 88.4 64.3 167 136.5 220.5 48 35.6 101.8 57.3 163.5 66.2 18 2.5 72 2.5 90 0 61.7-8.9 115.5-30.6 163.5-66.2C630.7 578 679.4 499.4 695 411c4-22.7 4.5-29.2 4.5-61s-.5-38.3-4.5-61c-13.8-78.3-54.2-150-113.5-201.9C528 40.3 468.1 13.1 395 2.4 385 1 332.4-.4 322.5.6zm59 30.5c72.6 7.2 143.3 40.7 195 92.4C640.1 187 675 278 670 366.6c-2.6 45.3-13 84.5-33.5 125.9-15.8 32-35.4 59.4-60 84-51.8 51.9-120.2 84.2-195.5 92.6-13.5 1.5-48.5 1.5-62 0-75.3-8.4-143.7-40.7-195.5-92.6C60.1 513.1 24.8 421.4 30 334c1.9-30.9 6.1-52.9 15.7-82.5 21.4-66 62.4-122.5 117-161.3 25.8-18.4 58-34.5 89.1-44.6 43.4-14.2 85.5-18.8 129.7-14.5z"/><path d="M329.5 173.2c-13.1 58.2-20.3 88.6-21.3 89.3-.8.5-4.9 3.2-9 5.8-27 17.4-44.2 49.1-44.2 81.6v7.6l-67.5 62.4c-37.2 34.3-67.4 62.5-67.2 62.7.2.3 39.6-11.7 87.6-26.6l87.2-27 4.2 2.8c8 5.5 17 9.4 29.7 12.9 9.1 2.4 32.9 2.4 42 0 10.3-2.8 19.2-6.5 26.3-10.7 3.6-2.2 7.1-4 7.7-4 .6 0 40 11.9 87.7 26.5 47.6 14.6 86.8 26.4 87 26.2.2-.3-30-28.5-67.2-62.8L445 357.5v-7.6c0-26.4-11.4-52.7-30.7-71.1-4.9-4.6-18.8-14.6-22.1-16-.5-.2-10.1-40.2-21.3-89.1C359.7 124.9 350.3 85 350 85c-.3 0-9.5 39.7-20.5 88.2z"/><path d="M498.8 241.4c-44.4 13.9-81 25.4-81.3 25.8-.3.3 2.2 3.2 5.5 6.4 14.6 13.9 26.3 35 30 54.2.7 3.5 1.6 6.1 2 6 .9-.4 126-116.9 126-117.4 0-.6 1-1-82.2 25zM123 220.2c12.2 12.2 122.2 112.9 122.7 112.4.4-.3 1.6-4.6 2.9-9.5 4.4-17.7 13.1-32.7 27.3-47.4 4.6-4.8 8.2-8.9 8-9-.7-.6-159.2-49-161.9-49.5-2.4-.4-2.3-.3 1 3zM312 451.2c.5 1.8 9 38.8 19 82.3 9.9 43.4 18.4 79.9 18.9 81 .7 1.6 1.1.9 2-3.5.7-3 9.2-40.8 19-84s17.7-78.6 17.7-78.7c-.1-.1-3 .7-6.6 1.8-8.4 2.6-22.9 4.9-31 4.9-8.5 0-23.9-2.4-32-4.9-3.6-1.2-6.8-2.1-7.2-2.1-.3 0-.2 1.5.2 3.2z"/></svg>